<svg width="46" height="46" viewBox="0 0 46 46" fill="none" xmlns="http://www.w3.org/2000/svg">
<path d="M39.8182 29.0395C37.6204 30.3718 35.4193 31.7007 33.2215 33.033C29.78 35.1149 26.3419 37.2003 22.8459 39.1765C22.512 39.3639 22.1713 39.5548 21.8305 39.7388C19.125 41.1972 16.1742 42.434 13.2268 41.8036C12.5521 41.6605 11.932 41.4459 11.3561 41.1699C7.61821 39.3776 5.78502 35.0502 3.68946 31.5303C3.34191 30.9477 2.9705 30.3138 2.6059 29.6494C2.5548 29.554 2.50027 29.4586 2.44918 29.3598C2.30946 29.0974 2.17318 28.8283 2.04028 28.5591C1.29747 27.0462 0.694352 25.4174 0.602346 23.8398C0.51036 22.2962 0.90561 20.8004 2.13568 19.4987C2.74221 18.8582 3.44413 18.2585 4.20739 17.6962C6.66755 15.8699 9.73421 14.3944 12.1433 12.9395C14.9475 11.2494 17.7961 9.6309 20.6822 8.09756C21.6226 7.59668 22.5665 7.10604 23.5138 6.62213C25.749 5.48411 28.1376 4.36647 30.6216 4.55389C33.2998 4.75829 35.3477 6.06676 37.0275 7.88626C38.0089 8.94259 38.8607 10.1727 39.641 11.4573C39.9988 12.0468 40.3429 12.6431 40.6735 13.2428C41.3618 14.4865 42.0058 15.7268 42.6532 16.875C43.3653 18.1426 44.0809 19.4306 44.4898 20.8344C45.7641 25.2096 43.1234 27.0394 39.8182 29.0395Z" fill="#F7941E"/>
<path d="M20.5425 36.2053C18.7604 37.691 16.8625 37.6432 15.5507 36.546C14.8249 35.9429 14.2763 35.0161 14.0275 33.8508C13.9389 33.4385 13.8878 32.9955 13.881 32.5253C13.864 31.7791 13.9764 30.9886 14.4296 30.4093C14.9918 29.6835 15.9664 29.4381 16.8625 29.4688C18.0892 29.5132 19.3465 30.0924 20.2801 30.934C21.8612 32.3651 22.5188 34.5561 20.5425 36.2053Z" fill="#D1D3D4"/>
<path d="M20.9956 11.0178C17.21 13.2429 13.254 15.3179 9.64212 17.8258C6.23813 20.1905 3.61101 23.4105 3.9756 27.7584C4.05397 28.7022 3.4679 29.2338 2.75574 29.3598C1.83576 27.6289 1.01798 25.7004 0.908936 23.8399C1.51205 21.5263 2.80686 19.4512 4.51398 17.6963C6.97412 15.87 10.0408 14.3945 12.4498 12.9396C15.2541 11.2495 18.1027 9.63099 20.9888 8.09766C21.9156 8.72465 22.2529 10.2784 20.9956 11.0178Z" fill="#FCA649"/>
<path d="M39.9477 11.4573L4.66399 32.5423L3.284 30.2627L2.91258 29.6494L2.27881 28.5999L2.34696 28.559L37.3342 7.88623C37.7533 8.33603 38.1486 8.81994 38.5234 9.32423C39.0277 10.0023 39.5013 10.7212 39.9477 11.4573Z" fill="#D1D3D4"/>
<path d="M39.8182 29.0394C37.6204 30.3717 35.4192 31.7006 33.2214 33.0329C29.7799 35.1148 26.3419 37.2002 22.8459 39.1764C22.512 39.3638 22.1712 39.5547 21.8305 39.7387C21.684 39.1015 21.868 38.3893 22.5631 37.9327C27.4356 34.7434 32.3866 31.6528 37.1774 28.3443C39.2764 26.8928 41.4912 25.0527 42.1114 22.4461C42.5271 20.6958 41.8289 19.0444 40.9321 17.571C40.2469 16.4452 38.5294 14.7084 38.8653 13.2531C38.9477 12.8962 39.2269 12.5793 39.5842 12.4988C40.4105 12.3128 40.6806 13.2874 40.9471 13.839C41.4522 14.8848 42.0849 15.8636 42.6531 16.875C43.3653 18.1425 44.0808 19.4305 44.4897 20.8343C45.7641 25.2095 43.1234 27.0393 39.8182 29.0394Z" fill="#E57C0A"/>
<path d="M20.2801 30.934C20.2767 30.934 20.2767 30.934 20.2733 30.934C17.2612 30.5183 15.6392 33.8133 15.5507 36.546C14.8249 35.9429 14.2763 35.0161 14.0275 33.8508C13.9389 33.4385 13.8878 32.9955 13.881 32.5253C13.864 31.7791 13.9764 30.9886 14.4296 30.4093C14.9918 29.6835 15.9664 29.4381 16.8625 29.4688C18.0892 29.5132 19.3465 30.0924 20.2801 30.934Z" fill="#E3E4E5"/>
<path d="M38.5234 9.32423C26.4612 15.7574 14.7022 22.746 3.284 30.2627L2.91258 29.6494L2.27881 28.5999L2.34696 28.559L37.3342 7.88623C37.7533 8.33603 38.1486 8.81994 38.5234 9.32423Z" fill="#E3E4E5"/>
<path d="M4.00451 32.6321C6.05646 36.1429 7.26451 38.5697 10.1476 40.6222C10.4125 40.7834 10.6366 40.8993 10.8159 40.9943C11.5665 41.3195 11.6572 41.2528 11.6982 41.1699C11.7422 41.0818 11.7199 40.9763 11.0968 40.533C10.947 40.4139 10.7631 40.2675 10.5369 40.0875C8.02423 37.7262 7.48246 36.5823 5.1428 32.315C6.01766 31.92 9.34083 29.8459 13.3592 27.4403C26.9915 19.2758 35.2245 15.1515 38.6117 13.1506C39.1833 12.8166 39.5557 12.5759 39.7993 12.395C40.0902 12.8861 43.8852 19.3767 44.3634 21.3473C45.2452 24.8374 43.3897 26.416 40.3409 28.3264C30.341 34.4942 34.2341 32.0876 23.6985 38.488C20.7995 40.2621 17.2792 42.1916 13.9179 41.7226C13.191 41.6339 12.6416 41.4585 12.2718 41.3424C11.9023 41.2206 11.7092 41.1466 11.6982 41.1699C11.6885 41.1898 11.8611 41.3067 12.2198 41.4744C12.5795 41.6365 13.1258 41.8605 13.8717 41.9983C17.2759 42.6875 20.9937 40.8149 24.0252 39.0632C34.3113 33.1326 33.3488 33.6923 40.8798 29.2009C44.278 27.1339 46.4655 25.1633 45.4808 21.0727C45.0163 19.027 40.3496 10.1571 38.0201 7.64094L37.4648 7.05179C34.6411 4.29285 31.5742 3.4806 28.7961 4.00584C26.7922 4.37487 25.0888 5.23287 23.5344 6.01152C21.1214 7.23746 4.90524 15.8926 1.96219 19.0803C-0.637666 22.276 0.0646428 25.4736 2.13391 29.4148C2.77511 30.6305 3.45016 31.683 4.00451 32.6321ZM38.1704 12.2742C31.1911 15.2596 17.0223 23.3466 7.14748 30.5565C6.10608 31.3242 5.37124 31.8972 5.06985 32.1819C5.04743 32.1411 5.02625 32.1025 5.00365 32.0612C4.44897 31.0627 3.81451 30.0312 3.21619 28.8513C3.12955 28.6805 3.04327 28.5059 2.95758 28.3292C3.73859 28.1361 35.7369 9.75921 36.4151 9.32942C36.7766 9.10306 37.0537 8.91946 37.2709 8.76598C40.2992 12.2671 39.286 11.8033 38.1704 12.2742ZM2.93572 19.9868C5.53224 17.2093 21.3256 8.69197 24.161 7.24155C25.6903 6.46531 27.2994 5.66812 29.037 5.34385C31.9198 4.79589 34.6041 5.97666 36.6977 8.13857C36.4869 8.2255 36.2419 8.3319 35.9486 8.46608C28.3155 12.0095 12.8624 21.2925 5.15193 26.5935C3.9166 27.4471 3.10308 28.0478 2.92258 28.2557C1.37111 25.0309 0.907669 22.4511 2.93572 19.9868Z" fill="#202020"/>
<path d="M13.7298 33.7318C13.8425 33.8788 13.9356 33.8692 14.0288 33.8495C14.1231 33.8297 14.2078 33.7976 14.2608 33.6326C14.317 33.4675 14.332 33.1715 14.373 32.6197C14.6457 29.3536 17.5278 29.8567 19.229 30.9947C21.1052 32.2658 21.9288 34.3299 20.0673 35.8436C18.3497 37.3124 16.2967 37.2646 14.8789 35.3286C14.3116 34.4817 14.1413 33.8201 14.0288 33.8495C13.9582 33.8594 13.9336 34.5645 14.4137 35.6032C15.6753 38.0456 18.436 38.5275 20.7818 36.7455C21.1659 36.4644 21.5326 36.1114 21.821 35.6856C23.2003 33.6628 22.0221 31.2152 20.0043 29.8438C16.9245 27.7875 12.89 28.7148 13.3923 32.6531C13.4801 33.2775 13.621 33.5847 13.7298 33.7318Z" fill="#202020"/>
</svg>
