<svg width="36" height="36" viewBox="0 0 36 36" fill="none" xmlns="http://www.w3.org/2000/svg">
<g clip-path="url(#clip0_38_548)">
<path d="M4.5 22.5C4.5 22.1022 4.65804 21.7206 4.93934 21.4393C5.22064 21.158 5.60218 21 6 21H9C9.39782 21 9.77936 21.158 10.0607 21.4393C10.342 21.7206 10.5 22.1022 10.5 22.5V25.5C10.5 25.8978 10.342 26.2794 10.0607 26.5607C9.77936 26.842 9.39782 27 9 27H6C5.60218 27 5.22064 26.842 4.93934 26.5607C4.65804 26.2794 4.5 25.8978 4.5 25.5V22.5Z" stroke="#00A264" stroke-width="2" stroke-linecap="round" stroke-linejoin="round"/>
<path d="M25.5 22.5C25.5 22.1022 25.658 21.7206 25.9393 21.4393C26.2206 21.158 26.6022 21 27 21H30C30.3978 21 30.7794 21.158 31.0607 21.4393C31.342 21.7206 31.5 22.1022 31.5 22.5V25.5C31.5 25.8978 31.342 26.2794 31.0607 26.5607C30.7794 26.842 30.3978 27 30 27H27C26.6022 27 26.2206 26.842 25.9393 26.5607C25.658 26.2794 25.5 25.8978 25.5 25.5V22.5Z" stroke="#00A264" stroke-width="2" stroke-linecap="round" stroke-linejoin="round"/>
<path d="M15 10.5C15 10.1022 15.158 9.72064 15.4393 9.43934C15.7206 9.15804 16.1022 9 16.5 9H19.5C19.8978 9 20.2794 9.15804 20.5607 9.43934C20.842 9.72064 21 10.1022 21 10.5V13.5C21 13.8978 20.842 14.2794 20.5607 14.5607C20.2794 14.842 19.8978 15 19.5 15H16.5C16.1022 15 15.7206 14.842 15.4393 14.5607C15.158 14.2794 15 13.8978 15 13.5V10.5Z" stroke="#00A264" stroke-width="2" stroke-linecap="round" stroke-linejoin="round"/>
<path d="M15 12.75C13.0046 13.0822 11.1793 14.077 9.81862 15.5737C8.4579 17.0705 7.6411 18.9821 7.5 21" stroke="#00A264" stroke-width="2" stroke-linecap="round" stroke-linejoin="round"/>
<path d="M21 12.75C22.9954 13.0822 24.8207 14.077 26.1814 15.5737C27.5421 17.0705 28.3589 18.9821 28.5 21" stroke="#00A264" stroke-width="2" stroke-linecap="round" stroke-linejoin="round"/>
<path d="M15 12H6" stroke="#00A264" stroke-width="2" stroke-linecap="round" stroke-linejoin="round"/>
<path d="M30 12H21" stroke="#00A264" stroke-width="2" stroke-linecap="round" stroke-linejoin="round"/>
<path d="M3 12C3 12.3978 3.15804 12.7794 3.43934 13.0607C3.72064 13.342 4.10218 13.5 4.5 13.5C4.89782 13.5 5.27936 13.342 5.56066 13.0607C5.84196 12.7794 6 12.3978 6 12C6 11.6022 5.84196 11.2206 5.56066 10.9393C5.27936 10.658 4.89782 10.5 4.5 10.5C4.10218 10.5 3.72064 10.658 3.43934 10.9393C3.15804 11.2206 3 11.6022 3 12Z" stroke="#00A264" stroke-width="2" stroke-linecap="round" stroke-linejoin="round"/>
<path d="M30 12C30 12.3978 30.158 12.7794 30.4393 13.0607C30.7206 13.342 31.1022 13.5 31.5 13.5C31.8978 13.5 32.2794 13.342 32.5607 13.0607C32.842 12.7794 33 12.3978 33 12C33 11.6022 32.842 11.2206 32.5607 10.9393C32.2794 10.658 31.8978 10.5 31.5 10.5C31.1022 10.5 30.7206 10.658 30.4393 10.9393C30.158 11.2206 30 11.6022 30 12Z" stroke="#00A264" stroke-width="2" stroke-linecap="round" stroke-linejoin="round"/>
</g>
<defs>
<clipPath id="clip0_38_548">
<rect width="36" height="36" fill="white"/>
</clipPath>
</defs>
</svg>
