<svg width="36" height="36" viewBox="0 0 36 36" fill="none" xmlns="http://www.w3.org/2000/svg">
<g clip-path="url(#clip0_38_668)">
<path d="M10.5 12C10.5 13.9891 11.2902 15.8968 12.6967 17.3033C14.1032 18.7098 16.0109 19.5 18 19.5C19.9891 19.5 21.8968 18.7098 23.3033 17.3033C24.7098 15.8968 25.5 13.9891 25.5 12C25.5 10.0109 24.7098 8.10322 23.3033 6.6967C21.8968 5.29018 19.9891 4.5 18 4.5C16.0109 4.5 14.1032 5.29018 12.6967 6.6967C11.2902 8.10322 10.5 10.0109 10.5 12Z" stroke="#00A264" stroke-width="2" stroke-linecap="round" stroke-linejoin="round"/>
<path d="M12 16.5C10.3103 16.5001 8.67005 17.0708 7.3452 18.1196C6.02034 19.1684 5.08848 20.6339 4.70062 22.2785C4.31277 23.9231 4.49166 25.6505 5.20829 27.1808C5.92492 28.7111 7.13731 29.9545 8.64896 30.7095C10.1606 31.4646 11.883 31.6871 13.5369 31.3409C15.1908 30.9948 16.6793 30.1002 17.7613 28.8023C18.8432 27.5044 19.4552 25.8791 19.498 24.1899C19.5408 22.5007 19.0119 20.8465 17.997 19.4955" stroke="#00A264" stroke-width="2" stroke-linecap="round" stroke-linejoin="round"/>
<path d="M18.003 28.5045C18.7707 29.5265 19.7868 30.3353 20.9549 30.8542C22.123 31.3731 23.4043 31.5848 24.6773 31.4693C25.9502 31.3538 27.1725 30.9149 28.2282 30.1943C29.2838 29.4737 30.1378 28.4952 30.709 27.3518C31.2802 26.2083 31.5497 24.9379 31.492 23.661C31.4342 22.3842 31.051 21.1432 30.3789 20.0561C29.7068 18.9689 28.7679 18.0715 27.6515 17.4492C26.5351 16.8268 25.2782 16.5001 24 16.5" stroke="#00A264" stroke-width="2" stroke-linecap="round" stroke-linejoin="round"/>
</g>
<defs>
<clipPath id="clip0_38_668">
<rect width="36" height="36" fill="white"/>
</clipPath>
</defs>
</svg>
