<svg width="46" height="46" viewBox="0 0 46 46" fill="none" xmlns="http://www.w3.org/2000/svg">
<path d="M13.0515 43.9795C12.8164 44.0613 12.5199 44.1056 12.1451 44.1124C10.2574 44.1396 8.31519 44.0647 6.43773 43.925C5.7869 43.8807 5.11904 43.8125 4.54321 43.5195C4.0321 43.2572 3.65045 42.8891 3.36424 42.4564C3.31653 42.3814 3.26882 42.3031 3.22114 42.2213C2.69979 41.2877 2.55328 40.1121 2.43741 39.0763C2.16824 36.6979 2.04899 34.2923 1.94336 31.9002C1.7389 27.1878 1.76275 22.4617 2.02172 17.7493C2.05238 17.153 2.1035 16.5158 2.4783 16.0387C2.91446 15.4834 3.67431 15.2857 4.38646 15.1698C6.37638 14.8427 8.42423 14.8496 10.4073 15.1937C11.3512 15.3607 12.3564 15.6469 12.9152 16.4C12.9493 16.4476 12.9833 16.4954 13.0174 16.5464C13.6308 17.504 13.6751 18.9282 13.6308 20.264C13.6035 21.0613 13.5422 21.8313 13.5524 22.4515C13.5933 24.8741 13.6308 27.2934 13.6682 29.7161C13.7296 33.5801 13.7875 37.4441 13.8488 41.3081C13.8693 42.637 14.0397 43.6353 13.0515 43.9795Z" fill="#8DC63F"/>
<path d="M28.6642 43.0322C28.4018 43.2878 27.9998 43.3525 27.625 43.4002C24.8888 43.7512 22.1254 43.8943 19.3654 43.8228C19.27 43.8193 19.1644 43.8159 19.0894 43.758C18.9804 43.6763 18.9701 43.5297 18.9701 43.4002C18.9667 42.9164 18.9565 42.4326 18.9463 41.9487C18.9054 39.6487 18.8202 37.3487 18.6907 35.0521C18.4488 30.6838 18.0467 26.3223 17.4879 21.9813L17.5322 21.5894C19.6516 20.5161 22.0402 19.9266 24.4424 19.8823C24.8173 19.8755 25.2159 19.8857 25.5328 20.0731C25.7066 20.1754 25.8429 20.3219 25.9519 20.4854C26.0609 20.649 26.1461 20.8296 26.2211 21.0068C26.5686 21.8416 26.797 22.7105 26.9673 23.593C27.0968 24.2574 27.1956 24.9321 27.291 25.6034C28.0406 30.9598 28.5995 36.3435 28.9606 41.7375C28.9913 42.1906 29.0015 42.7051 28.6642 43.0322Z" fill="#D7DF23"/>
<path d="M42.4812 42.8483C42.4778 42.8483 42.4778 42.8518 42.4778 42.8552C42.4438 42.9813 42.3858 43.0971 42.287 43.1926C42.1916 43.2846 42.0724 43.3459 41.9429 43.3833C41.7964 43.4345 41.6362 43.4583 41.4829 43.4753C39.3771 43.7479 37.2509 43.857 35.1247 43.8024C35.0497 43.799 34.9679 43.7957 34.91 43.7514C34.8282 43.69 34.8214 43.5776 34.818 43.4753C34.8112 42.7155 34.7975 41.9556 34.7737 41.1958C34.7498 40.1668 34.7124 39.1343 34.6612 38.1053C34.4807 34.3878 34.1535 30.6737 33.6765 26.9801L33.714 26.6802C35.3427 25.8522 37.1827 25.3957 39.0329 25.3616C39.3226 25.3582 39.6292 25.3684 39.8746 25.5115C40.0211 25.5967 40.1301 25.7193 40.2187 25.8556C40.2937 25.9749 40.3516 26.1044 40.4061 26.2304C40.6208 26.745 40.7741 27.2765 40.8934 27.8149C41.0399 28.4589 41.1353 29.1166 41.2273 29.7708C41.8066 33.8971 42.2359 38.0405 42.5153 42.1941C42.529 42.4089 42.5392 42.6439 42.4812 42.8483Z" fill="#FBB040"/>
<path d="M13.0174 16.5465C12.646 16.9758 12.0736 17.2279 11.3614 17.0576C8.98987 16.4886 6.05608 16.4544 4.35238 18.5194C2.90764 20.2741 2.80883 23.0069 2.61802 25.1638C2.13076 30.6327 2.33861 36.1527 3.22794 41.5704C3.26543 41.8022 3.26202 42.0202 3.22113 42.2213C2.69979 41.2877 2.55328 40.1121 2.43741 39.0763C2.16824 36.6979 2.04899 34.2923 1.94336 31.9002C1.7389 27.1878 1.76275 22.4617 2.02172 17.7493C2.05238 17.153 2.1035 16.5158 2.4783 16.0387C2.91446 15.4834 3.67431 15.2857 4.38646 15.1698C6.37638 14.8427 8.42423 14.8496 10.4073 15.1937C11.3512 15.3607 12.3564 15.6469 12.9152 16.4C12.9493 16.4476 12.9833 16.4954 13.0174 16.5465Z" fill="#B0E261"/>
<path d="M13.0515 43.9795C12.8164 44.0612 12.52 44.1056 12.1452 44.1124C10.2574 44.1396 8.31521 44.0646 6.43775 43.925C5.78692 43.8807 5.11906 43.8125 4.54323 43.5195C4.03212 43.2571 3.65047 42.8891 3.36426 42.4564C3.42218 42.4495 3.48351 42.4461 3.54825 42.4495C4.85329 42.487 6.15493 42.4802 7.45997 42.3985C8.43448 42.3337 10.4142 42.5415 11.0445 41.7408C11.5454 41.1104 11.542 39.3863 11.6068 38.6298C11.6988 37.519 11.6886 36.4082 11.6238 35.294C11.3614 30.7247 11.0888 25.985 11.7874 21.4361C11.9509 20.3763 12.8232 20.0561 13.6308 20.2639C13.6035 21.0612 13.5422 21.8313 13.5524 22.4515C13.5933 24.8741 13.6308 27.2934 13.6683 29.7161C13.7296 33.58 13.7875 37.4441 13.8489 41.308C13.8693 42.637 14.0397 43.6353 13.0515 43.9795Z" fill="#80B729"/>
<path d="M25.9519 20.4854C25.7032 20.649 25.3931 20.7444 25.0183 20.741C22.4355 20.7137 19.7061 21.8926 19.0008 24.605C18.643 25.9884 18.9054 27.5694 19.0076 28.9733C19.1166 30.5168 19.2666 32.0536 19.4438 33.5903C19.5289 34.3332 19.1848 34.8204 18.6907 35.0521C18.4488 30.6838 18.0467 26.3223 17.4879 21.9813L17.5322 21.5894C19.6516 20.5161 22.0402 19.9266 24.4424 19.8823C24.8173 19.8755 25.2159 19.8857 25.5328 20.0731C25.7066 20.1754 25.8429 20.3219 25.9519 20.4854Z" fill="#F2F23D"/>
<path d="M28.6642 43.0323C28.4018 43.2878 27.9998 43.3525 27.625 43.4003C24.8888 43.7513 22.1254 43.8944 19.3654 43.8228C19.27 43.8194 19.1644 43.816 19.0894 43.7581C18.9804 43.6763 18.9701 43.5297 18.9701 43.4003C18.9667 42.9165 18.9565 42.4326 18.9463 41.9487C20.7181 42.4462 22.7626 42.4735 24.5447 42.01C25.5669 41.7443 25.9826 41.4036 26.0984 40.3677C26.2109 39.3795 26.1666 38.3505 26.1018 37.359C25.8429 33.3143 25.3999 29.2868 25.1887 25.2286C25.1273 24.0599 26.061 23.5147 26.9673 23.5931C27.0968 24.2575 27.1956 24.9322 27.291 25.6034C28.0407 30.9599 28.5995 36.3436 28.9607 41.7375C28.9913 42.1907 29.0016 42.7052 28.6642 43.0323Z" fill="#D1D109"/>
<path d="M40.2187 25.8556C40.1404 25.8761 40.0586 25.8897 39.9734 25.9C37.2781 26.1793 35.4518 27.7774 34.9611 30.4488C34.5079 32.926 34.5897 35.5872 34.6612 38.1053C34.4807 34.3878 34.1535 30.6737 33.6765 26.9801L33.714 26.6802C35.3427 25.8522 37.1827 25.3957 39.0329 25.3616C39.3226 25.3582 39.6292 25.3684 39.8746 25.5115C40.0211 25.5967 40.1301 25.7193 40.2187 25.8556Z" fill="#FFC271"/>
<path d="M42.4812 42.8481C42.4778 42.8481 42.4778 42.8516 42.4778 42.855C42.3109 43.0492 42.1303 43.2264 41.9429 43.3831C41.7963 43.4343 41.6362 43.4581 41.4829 43.4751C39.3771 43.7477 37.2509 43.8568 35.1247 43.8022C35.0497 43.7988 34.9679 43.7955 34.91 43.7511C34.8282 43.6898 34.8214 43.5774 34.818 43.4751C34.8112 42.7153 34.7975 41.9554 34.7737 41.1956C34.8077 41.1956 34.8452 41.199 34.8827 41.2058C36.106 41.4 37.8574 41.6624 39.0602 41.1615C40.4504 40.5857 40.3789 39.2363 40.2869 37.9449C40.0824 35.1066 39.7212 32.2716 39.4384 29.44C39.3328 28.3837 40.0756 27.8454 40.8934 27.8147C41.0399 28.4587 41.1353 29.1164 41.2273 29.7705C41.8066 33.8969 42.2359 38.0403 42.5153 42.1939C42.5289 42.4086 42.5392 42.6437 42.4812 42.8481Z" fill="#F29214"/>
<path d="M2.03642 40.865C2.25024 41.8868 2.67392 42.9032 3.4275 43.5873C3.80021 43.9242 4.20971 44.1745 4.6488 44.3287C5.93016 44.7758 10.0652 44.7203 11.4215 44.6245C11.6836 44.6054 11.904 44.5845 12.0895 44.5622C12.2785 44.5417 12.4431 44.5107 12.57 44.4758C13.0874 44.3198 13.0808 44.1766 13.0506 44.0982C13.0162 43.9986 12.9587 43.9612 12.5103 43.9389C12.3949 43.9287 12.2538 43.9161 12.0804 43.9008C11.8966 43.8863 11.6789 43.8691 11.4205 43.8486C5.69354 43.4717 5.09315 43.4908 4.26307 42.6981C3.78189 42.2401 3.46105 41.5067 3.28818 40.6042C3.11777 39.7061 3.03265 38.6286 2.93397 37.4956C2.70323 34.638 2.4686 29.3252 2.50523 24.6811C2.5094 24.0449 2.56812 17.478 2.8796 16.7878C2.95959 16.6087 3.05738 16.4834 3.22369 16.3641C3.38834 16.2473 3.60846 16.1494 3.86312 16.0771C5.7022 15.5613 9.29488 15.5552 11.1846 16.1182C11.7499 16.2874 12.2284 16.5422 12.4892 16.951C12.7843 17.3711 12.9367 17.9534 13.0103 18.5588C13.0874 19.1664 13.0873 19.8064 13.0708 20.452C12.9731 24.6796 13.4593 37.2313 13.6421 41.3449C13.6724 42.0037 13.7379 42.5621 13.7057 42.9987C13.6905 43.2167 13.6487 43.402 13.5819 43.5481C13.5144 43.6943 13.4193 43.7947 13.3374 43.8735C13.162 44.0196 13.0387 44.0694 13.0506 44.0982C13.0553 44.1132 13.1919 44.1133 13.4201 43.9889C13.5284 43.9199 13.6618 43.8169 13.7668 43.6505C13.8706 43.4854 13.9429 43.2718 13.9832 43.0337C14.0648 42.5548 14.0404 41.985 14.0546 41.3385C14.0699 40.1677 14.1588 18.4799 14.1535 18.4286C14.0767 17.7264 13.9252 16.9743 13.4727 16.2869C13.2553 15.9346 12.9247 15.638 12.5905 15.4247C12.2509 15.2119 11.8958 15.0628 11.5456 14.9527C10.2788 14.5597 7.94348 14.2656 5.48233 14.487C5.15384 14.5189 4.82728 14.5559 4.50411 14.6046C4.18539 14.6496 3.84623 14.7066 3.50131 14.8021C3.15716 14.8974 2.79598 15.0373 2.45532 15.2723C2.11404 15.5011 1.81246 15.8675 1.6507 16.2436C1.48368 16.6203 1.42133 16.9871 1.38416 17.3179C1.32356 17.8897 1.13938 21.3523 1.1176 24.671C1.0884 28.346 1.32527 37.4089 2.03642 40.865Z" fill="#202020"/>
<path d="M28.1751 42.6968C27.5191 43.2395 19.7257 43.3614 19.6916 43.3625L19.5951 43.3645C19.571 43.366 19.5478 43.3496 19.544 43.3261C19.3787 38.4174 19.187 33.2611 18.2679 26.4811C17.9018 23.757 17.578 22.0869 17.4879 22.0986C17.388 22.1115 17.5306 23.8039 17.7307 26.5369C18.3916 35.4257 18.3303 39.3572 18.3945 42.8647L18.3956 43.2833C18.396 43.5362 18.3902 43.7965 18.4829 44.0007C18.5641 44.21 18.7544 44.3868 18.9646 44.4561C19.0703 44.4944 19.1893 44.5149 19.3159 44.5209L19.6683 44.5313C20.5314 44.5298 27.7118 44.6305 28.9494 43.7723C29.1297 43.644 29.2904 43.4657 29.3989 43.2736C29.5072 43.0812 29.5669 42.8845 29.6007 42.705C29.8713 41.2169 28.4058 28.1313 27.7365 24.2364C27.5689 23.2681 27.354 22.3609 27.0621 21.5407C26.9061 21.1277 26.7818 20.7604 26.5232 20.332C26.3923 20.1246 26.2159 19.9125 25.9844 19.749C25.7514 19.582 25.4865 19.4905 25.2585 19.4471C24.7909 19.3642 24.4431 19.4048 24.1191 19.4166C23.7901 19.4342 23.4772 19.4619 23.1799 19.4965C21.9899 19.6351 21.0523 19.8756 20.3139 20.1092C18.8399 20.5968 18.1501 21.0307 17.8093 21.2722C17.4738 21.5286 17.4897 21.6224 17.5326 21.708C17.5756 21.7936 17.6457 21.861 18.0398 21.7608C18.4383 21.6747 19.1568 21.3958 20.576 21.0548C21.2869 20.8938 22.1758 20.723 23.288 20.6421C23.5659 20.6218 23.8575 20.6077 24.1632 20.6026C24.4719 20.5975 24.7951 20.5898 25.0122 20.6422C25.1237 20.6685 25.1997 20.7032 25.2607 20.7508C25.3246 20.7996 25.392 20.8766 25.4599 20.9908C25.5917 21.2136 25.7306 21.5974 25.8531 21.9569C26.8699 24.9423 28.4119 41.7812 28.2877 42.4636C28.2581 42.6154 28.228 42.6519 28.1751 42.6968Z" fill="#202020"/>
<path d="M34.2475 43.5429C34.2443 43.7408 34.2747 43.9211 34.3472 44.0676C34.4152 44.2185 34.5607 44.354 34.7085 44.416C34.7463 44.4327 34.7852 44.4476 34.8271 44.4588C36.2905 44.5776 38.7114 44.5581 41.1123 44.2972C41.3255 44.2725 41.509 44.2552 41.7449 44.222C41.9793 44.1826 42.2758 44.1337 42.5949 43.9132C42.7538 43.7991 42.8874 43.6511 42.9841 43.4821C43.0791 43.3135 43.129 43.1468 43.1577 42.9959C43.2127 42.6936 43.1947 42.4473 43.1837 42.2436C43.1586 41.8538 43.1339 41.4701 43.1096 41.0933C42.9236 38.3364 42.1186 29.2038 41.1905 26.6201C41.0666 26.2958 40.9725 26.0148 40.7588 25.6612C40.6507 25.4908 40.5024 25.3118 40.3048 25.1728C40.1056 25.0304 39.8798 24.9534 39.6908 24.9181C39.302 24.8506 39.0313 24.8858 38.7799 24.8957C38.5239 24.9106 38.2804 24.9335 38.0492 24.9618C37.1237 25.0751 36.396 25.2684 35.8242 25.4566C34.6827 25.849 34.1547 26.201 33.8988 26.4049C33.6472 26.6202 33.6693 26.7111 33.7123 26.7967C33.7552 26.8823 33.8191 26.9527 34.1293 26.8934C34.4429 26.845 34.9995 26.648 36.0863 26.4022C36.6306 26.2866 37.3097 26.1631 38.1574 26.1074C38.3691 26.0934 38.5913 26.0841 38.8241 26.0816C39.0601 26.0784 39.3061 26.0763 39.4446 26.1132C39.5171 26.1314 39.5538 26.1516 39.5811 26.1746C39.611 26.1991 39.6505 26.2427 39.6955 26.32C39.7824 26.4679 39.8911 26.7655 39.9816 27.0363C40.7568 29.3352 41.6552 39.9283 41.8428 42.3342C41.8582 42.5178 41.8607 42.6671 41.8447 42.7545C41.825 42.8483 41.8239 42.8262 41.8191 42.8388C41.8095 42.8526 41.7015 42.8988 41.539 42.9235C41.3745 42.9501 41.153 42.9769 40.9602 43.0026C38.5407 43.3124 37.1791 43.3047 35.5352 43.3412L35.4991 43.3428C35.4527 43.3421 35.4018 43.3591 35.3918 43.3169C35.3875 43.3001 35.3873 43.2822 35.385 43.2639L35.3822 43.2362C35.3812 43.2019 35.3565 42.3878 35.3581 42.4397C34.9913 33.1756 33.8676 27.0726 33.6778 27.0976C33.4284 27.1297 34.1783 32.6333 34.2462 42.4602L34.2461 43.0929L34.2475 43.5429Z" fill="#202020"/>
<path d="M14.1793 5.23736C13.8522 7.19662 12.9049 9.01961 11.559 10.3894C11.1603 9.9089 11.007 9.23083 11.3818 8.52214C12.0019 7.35675 12.7584 5.87109 12.2916 4.51162C11.8486 3.2202 10.3119 2.63405 9.12267 2.30695C9.00683 2.27634 8.9012 2.23541 8.80579 2.18774C9.25216 2.25588 9.63378 2.32401 9.9098 2.3785C10.6288 2.51825 11.3477 2.65793 12.0667 2.79768C12.9083 2.96123 13.8965 3.25422 14.1691 4.12313C14.2815 4.48092 14.2406 4.86933 14.1793 5.23736Z" fill="#119FD1"/>
<path d="M14.1793 5.23735C13.8522 7.19661 12.9049 9.0196 11.559 10.3894C11.0854 10.8698 10.564 11.2923 10.0018 11.6433C9.80758 11.7693 9.60655 11.8852 9.4021 11.9909C8.98981 12.2055 8.50256 12.3861 8.08002 12.1919C7.74269 12.0385 7.53143 11.6841 7.34062 11.3502C6.25024 9.43871 3.84803 6.87633 3.28241 4.78081C2.72359 2.70908 4.30804 2.09573 6.11737 2.01396C7.03736 1.97644 8.01869 2.07527 8.8058 2.18774C9.25217 2.25587 9.6338 2.324 9.90982 2.37849C10.6288 2.51825 11.3477 2.65792 12.0667 2.79768C12.9083 2.96122 13.8965 3.25422 14.1691 4.12312C14.2815 4.48092 14.2406 4.86932 14.1793 5.23735Z" fill="#27AAE1"/>
<path d="M10.0018 11.6433C9.80758 11.7693 9.60655 11.8852 9.4021 11.9908C8.98981 12.2054 8.50256 12.386 8.08002 12.1919C7.74269 12.0385 7.53143 11.6841 7.34062 11.3502C6.25025 9.43867 3.84803 6.87629 3.28241 4.78077C2.72359 2.70904 4.30804 2.09569 6.11737 2.01392C5.56537 5.38039 7.70521 9.53068 10.0018 11.6433Z" fill="#58CCF4"/>
<path d="M6.03846 10.2553C6.53846 10.8572 6.81515 11.154 6.99011 11.2915C7.16845 11.4278 7.25665 11.3974 7.33971 11.3498C7.4228 11.3021 7.49469 11.2445 7.45354 11.0139C7.41512 10.7811 7.25029 10.3817 6.83975 9.68891C5.9949 8.22016 3.97309 5.74383 3.85444 4.11128C3.84502 3.6713 3.94668 3.38147 4.3302 3.13598C5.90194 2.13135 10.3142 3.14503 11.9065 3.41815C12.4353 3.50925 12.9411 3.64201 13.2661 3.87436C13.5854 4.1077 13.689 4.36742 13.65 4.87562C13.5398 5.93153 13.2063 7.00982 12.7444 7.9407C11.8216 9.83216 10.3277 11.1691 9.1192 11.8306C8.82603 11.991 8.55171 12.0776 8.32831 12.056C8.10493 12.0402 7.92642 11.9134 7.7903 11.7841C7.52231 11.5158 7.38505 11.3193 7.33971 11.3498C7.30633 11.3717 7.34527 11.5946 7.57562 11.9633C7.6921 12.1387 7.90271 12.376 8.25379 12.4619C8.60054 12.5497 8.98932 12.4651 9.34581 12.3209C10.0433 12.0239 10.8215 11.5756 11.5707 10.9133C11.8272 10.6914 12.076 10.4382 12.3195 10.1714C12.4873 10.2911 12.657 10.4122 12.8337 10.5383C21.4331 16.067 31.0617 19.1798 41.308 18.7024C42.0106 18.6636 42.5766 18.637 43.0304 18.5647C44.8464 18.3213 44.899 18.1439 44.8829 17.9531C44.8668 17.7622 44.7745 17.5942 42.9806 17.5848C42.5328 17.5938 41.9766 17.5633 41.2892 17.5519C30.4177 17.4018 22.0495 14.7592 13.215 9.92808C13.059 9.83391 12.9104 9.7444 12.7611 9.65431C13.0657 9.26873 13.3541 8.85328 13.6106 8.40182C13.9019 7.90136 14.1427 7.35614 14.3456 6.78837C14.5515 6.21429 14.6978 5.63721 14.7942 4.99757C14.8343 4.66939 14.8491 4.27716 14.7099 3.87619C14.5816 3.4798 14.3067 3.13223 14.002 2.90097C13.3838 2.43794 12.7303 2.29161 12.1512 2.16317C9.81188 1.68823 5.77884 0.612803 3.58632 1.97308C3.21518 2.20659 2.87702 2.56688 2.69535 2.98574C2.50922 3.40376 2.47644 3.82902 2.49776 4.1983C2.69399 6.28982 4.71266 8.61125 6.03846 10.2553Z" fill="#202020"/>
</svg>
