<svg width="46" height="46" viewBox="0 0 46 46" fill="none" xmlns="http://www.w3.org/2000/svg">
<path d="M43.9503 13.8432C43.8209 15.0017 43.3949 16.0682 42.802 17.0631C41.9877 18.4296 40.8564 19.6596 39.7354 20.8011C36.5971 23.9904 33.2613 27.0196 29.5029 29.4491C26.8383 31.1697 23.9795 32.5703 21.0628 33.8003C20.9128 33.8686 20.7595 33.9298 20.6096 33.9945C19.4715 34.4682 18.3266 34.9214 17.1749 35.3575C16.7831 35.5074 16.3912 35.6539 15.9959 35.8005C14.7011 36.2809 12.7555 36.6183 11.7912 37.6643C11.3517 38.1448 10.9564 38.6627 10.6123 39.2148L7.83521 33.9366C8.12826 31.715 8.50989 29.507 8.98691 27.316C9.10957 26.7333 9.24247 26.1541 9.37877 25.5748C9.54232 24.8865 9.71951 24.1881 9.97166 23.5304C10.1863 22.9648 10.4521 22.4298 10.8133 21.946C11.1234 21.5303 11.4948 21.1623 11.8866 20.8216C12.1183 20.6171 12.3534 20.4263 12.5885 20.2321C18.9536 15.0255 25.4958 10.0337 32.1948 5.27013C33.2306 4.53407 34.3449 3.77772 35.6124 3.7333C35.9531 3.71966 36.2905 3.76058 36.6176 3.84244H36.621C36.7607 3.87655 36.9004 3.91731 37.0367 3.96506C37.7454 4.21729 38.4167 4.6329 39.03 5.07596C39.6604 5.52901 40.2737 6.04012 40.8394 6.60247C40.8666 6.62959 40.8973 6.65688 40.9246 6.68417C40.9279 6.68417 40.9279 6.68417 40.9279 6.68766C42.8736 8.6401 44.2468 11.1615 43.9503 13.8432Z" fill="#2BB673"/>
<path d="M11.2494 38.0937C10.568 39.1091 9.88649 40.121 9.20159 41.1364C8.97671 41.4703 8.73819 41.8146 8.37018 42.0156C7.93405 42.2507 7.39567 42.237 6.89138 42.2167C6.50634 42.2031 5.1127 42.2643 3.90308 42.2099C2.857 42.1621 1.95064 42.0224 1.96426 41.668C1.9745 41.4091 2.16531 41.191 2.34589 40.99C4.22679 38.9353 6.2099 36.9623 8.29523 35.0781L9.20841 36.0118L11.2494 38.0937Z" fill="#FFF200"/>
<path d="M43.9503 13.8432C43.8208 15.0017 43.3949 16.0682 42.802 17.0631C38.495 15.5775 34.6753 12.7902 32.4844 8.89565C25.5469 11.475 19.2671 15.6797 13.6073 20.4978C13.0587 20.9647 12.425 21.0157 11.8866 20.8216C12.1183 20.6171 12.3534 20.4263 12.5885 20.2321C18.9536 15.0255 25.4958 10.0337 32.1947 5.27013C33.2306 4.53407 34.3448 3.77772 35.6124 3.7333C35.9531 3.71966 36.2904 3.76058 36.6176 3.84244H36.621C36.7164 3.89352 36.8118 3.9446 36.9038 3.99568C36.9481 3.98553 36.9924 3.97521 37.0367 3.96506C37.7454 4.21729 38.4167 4.6329 39.03 5.07596C39.6604 5.52901 40.2737 6.04012 40.8393 6.60247C40.8359 6.6058 40.8325 6.6058 40.8291 6.6093C40.8598 6.63309 40.8939 6.66037 40.9245 6.68417C40.9279 6.68417 40.9279 6.68417 40.9279 6.68766C42.8736 8.6401 44.2468 11.1615 43.9503 13.8432Z" fill="#58E09B"/>
<path d="M20.6096 33.9944C19.4715 34.4681 18.3267 34.9213 17.1749 35.3574C14.1015 33.0983 11.6686 30.0589 8.98694 27.3159C9.1096 26.7332 9.24249 26.154 9.3788 25.5747C9.54235 24.8864 9.71954 24.188 9.97168 23.5303C10.0432 23.578 10.1114 23.6326 10.1761 23.6973C13.7641 27.1012 20.7595 33.9297 20.6096 33.9944Z" fill="#58E09B"/>
<path d="M9.20841 36.0118C7.34455 37.9949 5.56589 40.0563 3.90308 42.2099C2.857 42.1621 1.95064 42.0224 1.96426 41.668C1.9745 41.4091 2.16531 41.191 2.34589 40.99C4.22679 38.9353 6.2099 36.9623 8.29523 35.0781L9.20841 36.0118Z" fill="#F9EF75"/>
<path d="M1.54524 41.0058C1.41794 41.2083 1.34735 41.4196 1.33142 41.6318C1.33232 41.7046 1.32726 41.7808 1.35511 41.8499C1.35929 41.9266 1.38685 41.9976 1.42114 42.0645C1.48272 42.2003 1.59103 42.2978 1.7009 42.3949C2.51287 42.9986 7.6697 42.9679 8.27865 42.7824C8.51759 42.7109 8.76304 42.5853 8.95381 42.4365C9.14652 42.2884 9.29328 42.1266 9.4122 41.976C9.69244 41.612 10.6761 40.0326 11.0866 39.2143C11.1956 38.997 11.2698 38.8263 11.3183 38.6892C11.407 38.595 11.5045 38.4914 11.6228 38.3656C11.7059 38.2807 11.7968 38.1881 11.8962 38.0866C11.9468 38.0372 11.9996 37.9854 12.0547 37.9315C12.1071 37.8863 12.1616 37.839 12.2183 37.7899C13.1433 37.0215 13.8078 37.18 18.9128 35.276C20.647 34.6407 22.7062 33.8282 25.0895 32.6665C29.4583 30.5449 33.0979 28.0566 37.401 24.0467C39.9842 21.6399 43.0996 18.7473 44.2024 15.7291C44.4637 15.0027 44.6442 14.2083 44.6647 13.383C44.8161 8.91859 40.5081 4.6217 37.4019 3.42004C35.2853 2.62714 33.7767 3.40331 31.9866 4.6697C27.6052 7.82473 23.5784 10.871 19.5021 14.0948C16.8868 16.1669 14.4272 18.1792 12.2128 20.039C11.6578 20.506 11.1043 20.9912 10.6544 21.5665C10.2023 22.144 9.89182 22.7832 9.66441 23.4066C9.43657 24.0322 9.28363 24.6471 9.15072 25.2328C9.0199 25.8183 8.9009 26.3788 8.794 26.9165C8.3645 29.0658 8.11086 30.8211 7.9675 32.0369C7.82461 33.253 7.79042 33.9301 7.83573 33.9361C7.8854 33.9426 8.01232 33.2779 8.24386 32.0797C8.47585 30.8818 8.81403 29.15 9.32157 27.0323C9.58869 25.98 9.83278 24.7955 10.2823 23.6429C10.2838 23.639 10.2857 23.6352 10.2872 23.6314C10.5764 24.2355 11.1206 25.182 11.7855 26.2289C13.6041 29.0731 15.9452 32.0131 18.8311 33.7418C18.9557 33.8135 19.0685 33.8776 19.1722 33.9321C18.9387 34.0268 18.7099 34.1185 18.487 34.207C17.9174 34.4406 17.3879 34.6575 16.8898 34.8617C16.8361 34.8099 16.7668 34.7542 16.6726 34.6865C15.8583 34.0701 11.5268 29.81 11.251 29.5355C10.2292 28.5305 9.39791 27.6965 9.24168 27.8133C9.09082 27.9254 9.65126 28.9776 10.5032 30.1709C11.5626 31.6737 14.1016 34.5882 15.6421 35.368C14.611 35.7573 12.9992 36.142 11.9716 36.9702C11.9335 36.9289 11.8866 36.8902 11.8212 36.8566C11.5925 36.7096 11.1571 36.6586 10.3877 36.2115C9.96784 35.9719 9.32184 35.4926 8.85217 34.949C8.36115 34.4281 8.03297 33.8891 7.84243 33.9489C7.68674 33.9929 7.6725 34.5524 7.92391 35.2296C7.50296 35.4918 6.76241 36.0598 5.86988 36.82C5.06789 37.5021 1.97229 40.3171 1.54524 41.0058ZM32.6903 5.66664C34.1248 4.66795 35.3265 3.97238 36.9446 4.61413C39.3834 5.57888 44.8044 10.2388 42.9046 15.2585C42.6967 15.8246 42.4229 16.3545 42.1139 16.8545C41.9938 16.7896 41.8612 16.7176 41.7083 16.6449C41.4312 16.5186 41.1134 16.3406 40.7306 16.1398C36.1807 13.6299 33.9539 10.7134 31.5939 7.18117C31.4732 6.98434 31.3651 6.81497 31.2686 6.67122C31.7427 6.33547 32.2169 5.99889 32.6903 5.66664ZM19.9941 33.244C17.1851 30.8266 16.1875 29.9929 12.5782 25.6507C11.6958 24.5822 10.9179 23.6517 10.4681 23.2149C10.6673 22.7922 10.9103 22.3851 11.2151 22.0174C11.6234 21.5234 12.145 21.0852 12.7051 20.6388C14.9599 18.8412 17.4576 16.8865 20.104 14.8698C24.0929 11.8355 27.4338 9.3918 30.943 6.90132C30.9881 7.05406 31.0434 7.22692 31.1096 7.42042C32.7032 11.5565 35.9679 15.3872 40.1688 17.2883C40.5985 17.4729 40.9594 17.6228 41.2769 17.7117C41.3503 17.7333 41.4195 17.7544 41.4862 17.7746C40.3145 19.3399 37.8696 21.7169 36.4585 23.0379C31.4376 27.7385 27.0918 30.612 20.2377 33.4921C20.1749 33.419 20.0988 33.3392 19.9941 33.244ZM2.82289 41.3973L2.8309 41.3792C2.8356 41.371 2.82397 41.381 2.88422 41.3126C4.29164 39.6934 4.54206 39.429 6.40316 37.3717C7.1314 36.5727 7.72333 35.9209 8.04287 35.5167C8.37265 36.294 9.08637 37.0677 9.67044 37.3994C10.2023 37.7214 10.6771 37.8485 11.0337 37.8948C11.0732 37.8994 11.1064 37.8994 11.1433 37.9021C11.1329 37.9169 11.1191 37.9343 11.1091 37.9488C11.0885 37.9788 11.074 38.0031 11.0549 38.0317C10.9102 38.0447 10.693 38.1866 10.2725 38.6666C9.53927 39.5036 8.59163 40.8988 8.38609 41.1373C8.30652 41.2296 8.22695 41.3057 8.14875 41.3602C8.06979 41.415 7.99737 41.4496 7.88831 41.4802C7.67483 41.5422 7.35391 41.5489 6.9514 41.5289C6.53713 41.5176 8.45736 41.5465 2.88834 41.4522C2.87628 41.4546 2.82441 41.464 2.81817 41.4299C2.81657 41.4196 2.81863 41.4088 2.82289 41.3973Z" fill="#202020"/>
</svg>
