<svg width="46" height="46" viewBox="0 0 46 46" fill="none" xmlns="http://www.w3.org/2000/svg">
<path d="M34.6794 38.2418C34.676 38.2486 34.6726 38.2554 34.6726 38.2622C34.6487 38.3406 34.6215 38.4224 34.5908 38.5007C34.5022 38.7426 34.3897 38.9777 34.2603 39.2026C34.2398 39.2435 34.2194 39.2845 34.1955 39.3219C33.5107 40.4566 32.3828 41.3494 31.0948 41.8059C29.5104 42.3716 27.7181 42.2931 26.1677 41.6934C25.5612 41.4583 24.9717 41.1381 24.5662 40.644C24.5628 40.6406 24.5594 40.6338 24.556 40.6304C24.2186 40.2181 24.0312 39.707 23.8506 39.2129C23.7689 38.9948 23.6905 38.7733 23.6087 38.5552C23.1453 37.2843 22.6785 36.0133 22.2151 34.7389L22.8829 34.5379H22.8864L33.4664 31.3281C33.4868 31.3759 33.5072 31.4201 33.5277 31.4679C34.4647 33.6281 35.3813 36.0133 34.6794 38.2418Z" fill="#A97C50"/>
<path d="M30.7951 33.8633C30.4509 34.1802 30.0932 34.4937 29.6775 34.7185C29.2856 34.9332 28.8597 35.0661 28.4167 35.1376C27.6841 35.2671 26.9073 35.233 26.161 35.1717C21.159 34.7629 16.467 32.1732 13.3969 28.5375C11.6421 26.4624 10.4188 24.05 9.95881 21.5046C9.95881 21.5046 9.9554 21.5012 9.95881 21.4978C9.36591 18.2131 10.0542 14.7034 12.5416 11.4289C13.0834 10.7168 13.7172 10.0796 14.4259 9.51734C14.4293 9.51393 14.4327 9.51393 14.4327 9.51052C16.3273 8.01812 18.7261 7.09813 21.1692 6.90048C23.2375 6.73352 25.3501 7.04697 27.3264 7.74551C29.5173 8.51558 31.5413 9.75925 33.153 11.3369C34.1207 12.2808 34.9419 13.3473 35.5621 14.5057C36.4616 16.1891 36.9455 17.9268 37.0886 19.6748C37.5418 25.1744 34.8704 30.1015 30.7951 33.8633Z" fill="#FFF200"/>
<path d="M28.6578 42.2361C28.5785 42.686 28.8077 43.1461 29.162 43.4448C29.5163 43.7434 29.9793 43.9005 30.4446 43.9893C30.9437 44.0845 31.4863 44.1031 31.9446 43.8812C32.5135 43.6058 32.8512 42.9875 32.8722 42.3813C32.8931 41.7752 32.6346 41.188 32.2617 40.7034" fill="#A7A9AC"/>
<path d="M27.3263 7.74551C27.1389 8.07261 26.8152 8.3418 26.3416 8.47125C22.6275 9.49014 19.37 11.5754 16.8179 14.4581C13.7683 17.8996 13.1004 22.2406 14.2521 26.6396C14.4872 27.5358 14.0374 28.2137 13.3969 28.5375C11.6421 26.4624 10.4188 24.05 9.95879 21.5046C9.95879 21.5046 9.95538 21.5013 9.95879 21.4978C10.0031 17.0409 11.5466 12.7033 14.4259 9.51734C14.4293 9.51393 14.4327 9.51393 14.4327 9.51052C16.3272 8.01812 18.726 7.09813 21.1691 6.90048C23.2374 6.73352 25.35 7.04697 27.3263 7.74551Z" fill="#FFF388"/>
<path d="M30.7951 33.8632C30.451 34.1802 30.0932 34.4936 29.6775 34.7185C29.2857 34.9332 28.8597 35.0661 28.4168 35.1376C28.0488 34.5584 28.0488 33.8122 28.7609 33.2465C31.7083 30.9022 33.4563 27.3415 34.5467 23.808C35.1192 21.9544 35.6234 20.0531 35.3304 18.0972C35.0238 16.0732 34.1515 14.1582 33.3098 12.3114C33.1565 11.9741 33.1122 11.6435 33.1531 11.3369C34.1208 12.2808 34.942 13.3473 35.5621 14.5057C36.4617 16.1891 36.9455 17.9268 37.0886 19.6748C37.5418 25.1743 34.8704 30.1014 30.7951 33.8632Z" fill="#EDDB06"/>
<path d="M24.6037 37.6182C24.5696 37.7136 24.5253 37.8022 24.4742 37.8873C24.28 38.2008 23.9631 38.4394 23.6087 38.5552C23.1453 37.2842 22.6785 36.0133 22.2151 34.7389L22.8829 34.5378H22.8864C23.084 34.5992 23.2816 34.6912 23.4622 34.8173C23.9222 35.1375 24.2732 35.6078 24.4912 36.1257C24.6889 36.5959 24.7775 37.1377 24.6037 37.6182Z" fill="#C19368"/>
<path d="M34.6796 38.2417C34.6762 38.2485 34.6727 38.2553 34.6727 38.2621C34.5535 38.5824 34.4172 38.8959 34.2604 39.2025C34.24 39.2434 34.2196 39.2843 34.1957 39.3218C33.5108 40.4565 32.383 41.3493 31.095 41.8058C29.5105 42.3715 27.7182 42.293 26.1678 41.6933C25.5613 41.4582 24.9719 41.138 24.5664 40.6439C24.563 40.6405 24.5596 40.6337 24.5562 40.6303C26.2633 40.6098 28.001 40.3167 29.4458 39.4922C31.5379 38.2996 32.1547 35.8531 31.7185 33.6007C31.4698 32.323 32.5363 31.4813 33.5279 31.4678C34.4649 33.628 35.3815 36.0132 34.6796 38.2417Z" fill="#9B6635"/>
<path d="M17.7139 32.9632C19.1276 33.8149 20.6451 34.4707 22.1961 34.931C22.2841 35.7327 23.2558 38.767 23.4904 39.5118C23.6171 39.899 23.7639 40.3305 24.0357 40.754C24.3103 41.1851 24.7126 41.5357 25.1333 41.7956C25.5588 42.059 26.0036 42.2451 26.4602 42.4025C27.0993 42.6194 27.7715 42.7493 28.4445 42.7962C28.4461 42.8218 28.446 42.8459 28.4494 42.8732C28.4758 43.0848 28.5642 43.331 28.7294 43.5653C28.8965 43.8032 29.1341 44.0126 29.4061 44.1752C29.6779 44.3383 29.9791 44.4573 30.2792 44.5427C30.579 44.6282 30.9039 44.6906 31.2485 44.692C31.591 44.6944 31.9579 44.6282 32.2806 44.472C32.6075 44.3167 32.8564 44.0894 33.0303 43.8708C33.659 43.0511 33.5917 42.184 33.443 41.7013C33.4009 41.5661 33.3542 41.4493 33.3055 41.346C33.5433 41.1566 33.7656 40.9614 33.9578 40.7626C34.4086 40.2852 34.769 39.7704 35.0224 39.2384C35.2822 38.7061 35.4239 38.173 35.5137 37.6731C35.6681 36.6652 35.5721 35.8041 35.4253 35.107C35.1161 33.7086 34.6938 32.8742 34.4154 32.3166C34.0274 31.591 33.8136 31.3622 33.6633 31.3106C35.0952 29.4357 36.0449 27.4901 36.5899 25.7741C37.1611 23.94 37.2776 22.3765 37.2639 21.316C37.2558 21.0497 37.2584 20.8136 37.2391 20.6097C37.2158 20.4065 37.196 20.2344 37.1801 20.0952C37.1436 19.8178 37.1131 19.6741 37.0892 19.6761C37.0654 19.6781 37.0486 19.8255 37.0384 20.1026C37.0355 20.2409 37.032 20.4118 37.0278 20.6136C37.0241 20.815 36.9986 21.0472 36.9844 21.3077C36.9085 22.3464 36.7075 23.855 36.0782 25.6012C35.44 27.3384 34.3812 29.3069 32.7922 31.1743C30.4585 33.9524 27.2638 37.5739 18.3129 31.9807C15.8139 30.4251 13.6587 28.2671 12.2395 25.7898C8.26083 18.9841 11.3533 11.1828 17.3772 8.55897C18.8947 7.90003 20.4349 7.58009 21.8829 7.55006C23.3343 7.50148 24.6927 7.69406 25.9169 8.01059C31.0057 9.3362 34.885 12.7073 36.4247 17.9028C36.588 18.4594 36.6812 18.8487 36.7585 19.1141C36.9051 19.6472 36.9909 19.685 37.0892 19.6761C37.1817 19.668 37.2787 19.6211 37.2943 19.0461C37.2979 18.7589 37.2803 18.3382 37.1812 17.7307C37.0806 17.1245 36.8977 16.3278 36.5039 15.3305C34.8315 11.0902 30.7796 7.95714 26.2552 6.72924C24.9276 6.37169 23.4452 6.14766 21.842 6.19117C20.2383 6.21629 18.516 6.56352 16.8255 7.29359C12.3119 9.24886 9.62968 13.6628 9.16981 17.8486C8.84078 20.6697 9.54075 23.7826 11.1331 26.4307C12.7038 29.0967 15.0373 31.3565 17.7139 32.9632ZM32.182 42.4712C32.1494 42.6422 32.0739 42.8407 31.9411 43.0111C31.7891 43.1975 31.6002 43.3576 31.188 43.4148C30.7914 43.4668 30.2245 43.4071 29.8262 43.2884C29.4787 43.188 29.2251 43.0086 29.0536 42.8116C29.1415 42.8106 29.23 42.8163 29.3176 42.8121C30.2748 42.7699 31.2038 42.5398 32.0033 42.162C32.0717 42.1301 32.1329 42.0921 32.1992 42.0582C32.2085 42.1889 32.2104 42.3316 32.182 42.4712ZM33.297 31.7812C33.3179 31.9755 33.3802 32.2588 33.5047 32.6819C33.6598 33.2613 33.9644 34.104 34.1673 35.3356C34.2646 35.9495 34.3098 36.6628 34.174 37.4424C34.028 38.2171 33.6776 39.0529 32.9548 39.8036C32.562 40.2088 32.0461 40.6242 31.4116 40.9381C30.1218 41.5851 28.4516 41.7628 26.8016 41.3037C25.9981 41.0808 25.2473 40.7397 24.8423 40.1952C24.6298 39.9165 24.4701 39.5673 24.318 39.2051C23.9526 38.3342 22.9108 35.8227 22.4254 34.995C28.7655 36.7922 30.4074 35.3758 33.297 31.7812Z" fill="#202020"/>
<path d="M7.34334 22.5824C7.05256 22.5644 6.55746 22.6956 5.61886 23.0247C5.10465 23.2057 4.31158 23.5371 3.64091 23.8429C2.97215 24.151 2.42615 24.4417 2.46591 24.6303C2.50501 24.8166 3.1331 24.8635 3.89268 24.7913C4.65167 24.7221 5.53536 24.5253 6.07474 24.3353C7.06 23.9898 7.52008 23.7045 7.72137 23.4879C7.92148 23.2674 7.86207 23.1042 7.78682 22.9281C7.7116 22.7518 7.63251 22.5969 7.34334 22.5824Z" fill="#202020"/>
<path d="M3.3418 12.1396C4.04736 12.7001 4.9381 13.2879 5.53269 13.6097C7.70972 14.7749 7.90792 14.4934 8.07652 14.1585C8.25267 13.8091 8.33197 13.5342 6.19513 12.3903C5.61079 12.0741 4.66142 11.6315 3.838 11.2931C3.01432 10.9562 2.31342 10.7268 2.21253 10.8904C2.11229 11.053 2.63503 11.5802 3.3418 12.1396Z" fill="#202020"/>
<path d="M12.1643 5.54995C12.856 6.44315 13.2265 6.88996 13.4983 7.06731C13.765 7.248 13.9187 7.16631 14.0802 7.06324C14.2417 6.96008 14.3822 6.85793 14.3195 6.53008C14.2517 6.20648 13.9915 5.64321 13.2585 4.69652C12.8582 4.17734 12.1297 3.43788 11.4402 2.90672C10.7523 2.37156 10.1195 2.03972 9.99285 2.18106C9.86362 2.32481 10.2524 2.90472 10.7328 3.58678C11.2171 4.26743 11.7861 5.05964 12.1643 5.54995Z" fill="#202020"/>
<path d="M20.5653 4.84545C20.7557 4.82407 20.9272 4.79579 21.0356 4.6235C21.1481 4.45064 21.1876 4.13835 21.1894 3.53398C21.1902 3.20264 21.1416 2.67955 21.0789 2.21877C21.0127 1.75982 20.9251 1.35968 20.7369 1.31808C20.5512 1.27674 20.2953 1.61864 20.1063 2.08874C19.9142 2.55635 19.8024 3.1469 19.8018 3.52366C19.7999 4.21205 19.9205 4.55712 20.059 4.71909C20.2021 4.88164 20.375 4.86683 20.5653 4.84545Z" fill="#202020"/>
<path d="M28.635 6.41669C28.9765 6.59064 29.2731 6.69279 30.2193 4.83519C30.7378 3.81738 31.5738 1.492 31.2323 1.31806C30.8909 1.14411 29.5014 3.18747 28.9829 4.20537C28.0366 6.06289 28.2936 6.24274 28.635 6.41669Z" fill="#202020"/>
<path d="M34.9711 10.8157C35.2983 10.7161 35.8527 10.3964 36.7846 9.58191C37.2954 9.13602 38.0241 8.3508 38.5568 7.62473C39.0929 6.90024 39.4387 6.2463 39.2964 6.1201C39.1522 5.99191 38.5535 6.4076 37.8565 6.93734C37.1611 7.47042 36.3591 8.11114 35.8686 8.53956C34.9738 9.3217 34.537 9.74712 34.3699 10.0402C34.1999 10.3294 34.2939 10.4759 34.4101 10.6283C34.5262 10.7807 34.6404 10.9118 34.9711 10.8157Z" fill="#202020"/>
<path d="M37.7557 16.4823C37.8081 16.8549 37.901 17.1812 40.1294 16.8135C41.3546 16.62 43.8879 15.771 43.7975 15.3879C43.7115 15.025 41.0937 15.2567 39.8957 15.4456C37.7086 15.8066 37.7011 16.0961 37.7557 16.4823Z" fill="#202020"/>
</svg>
