<svg width="36" height="36" viewBox="0 0 36 36" fill="none" xmlns="http://www.w3.org/2000/svg">
<g clip-path="url(#clip0_38_681)">
<path d="M4.5 7.5C4.5 7.10218 4.65804 6.72064 4.93934 6.43934C5.22064 6.15804 5.60218 6 6 6H30C30.3978 6 30.7794 6.15804 31.0607 6.43934C31.342 6.72064 31.5 7.10218 31.5 7.5V22.5C31.5 22.8978 31.342 23.2794 31.0607 23.5607C30.7794 23.842 30.3978 24 30 24H6C5.60218 24 5.22064 23.842 4.93934 23.5607C4.65804 23.2794 4.5 22.8978 4.5 22.5V7.5Z" stroke="#00A264" stroke-width="2" stroke-linecap="round" stroke-linejoin="round"/>
<path d="M10.5 30H25.5" stroke="#00A264" stroke-width="2" stroke-linecap="round" stroke-linejoin="round"/>
<path d="M13.5 24V30" stroke="#00A264" stroke-width="2" stroke-linecap="round" stroke-linejoin="round"/>
<path d="M22.5 24V30" stroke="#00A264" stroke-width="2" stroke-linecap="round" stroke-linejoin="round"/>
<path d="M13.5 18V12" stroke="#00A264" stroke-width="2" stroke-linecap="round" stroke-linejoin="round"/>
<path d="M18 18V16.5" stroke="#00A264" stroke-width="2" stroke-linecap="round" stroke-linejoin="round"/>
<path d="M22.5 18V15" stroke="#00A264" stroke-width="2" stroke-linecap="round" stroke-linejoin="round"/>
<path d="M18 18V16.5" stroke="#00A264" stroke-width="2" stroke-linecap="round" stroke-linejoin="round"/>
</g>
<defs>
<clipPath id="clip0_38_681">
<rect width="36" height="36" fill="white"/>
</clipPath>
</defs>
</svg>
