<svg width="46" height="46" viewBox="0 0 46 46" fill="none" xmlns="http://www.w3.org/2000/svg">
<g clip-path="url(#clip0_92_2657)">
<path d="M44.3478 17.1943C44.2497 18.8619 44.1314 20.5261 44.0299 22.1903C44.0062 22.5691 43.9183 22.9108 43.7931 23.2355C43.5056 24.0101 43.0185 24.6933 42.7344 25.5593C42.4063 26.5673 41.9936 27.5482 41.449 28.4581C40.7387 29.6386 39.866 31.0694 38.4927 31.6208C37.7181 31.9353 36.8556 31.9353 36.0201 31.871C34.4371 31.7493 32.8541 31.4009 31.4368 30.677C31.2846 30.5993 31.1324 30.518 30.9836 30.4301L30.9802 30.4267C29.7862 29.7265 28.7545 28.7422 28.1084 27.5211C28.0915 27.4907 28.0746 27.4569 28.0577 27.4264C27.6653 26.6654 27.4286 25.8197 26.9313 25.1229C26.4003 24.372 25.6155 23.8579 24.7834 23.496C24.046 23.1746 23.6198 23.1577 23.3628 22.3561C22.8385 20.7054 22.6761 18.8619 22.7336 17.103C22.7607 16.386 23.2918 15.7737 24.0021 15.6688C25.6933 15.4219 27.6247 15.9631 28.9879 14.742C29.6103 14.1839 29.935 13.3586 29.935 12.5197C29.9316 10.1519 27.5943 8.79894 25.5411 9.11688C25.3213 9.15074 25.1251 9.16089 24.9458 9.14735C23.3526 9.02224 23.2647 7.08738 23.3526 5.36573C23.3628 5.12898 23.4034 4.89552 23.4676 4.6723C23.7349 3.71842 24.4384 2.92696 25.3889 2.57517C26.035 2.33841 26.6946 2.1422 27.3643 1.98323C31.0444 1.09367 35.0358 1.26949 38.8682 1.47924C40.1366 1.55026 41.4896 1.64498 42.5078 2.40943C43.0794 2.83563 43.4684 3.41064 43.739 4.06005C44.1449 5.02748 44.2903 6.15719 44.3783 7.21595C44.4358 7.906 44.4764 8.59604 44.5034 9.2827C44.6083 11.921 44.5068 14.5627 44.3478 17.1943Z" fill="#EC008C"/>
<path d="M44.3478 17.1944C44.2497 18.8619 44.1313 20.5261 44.0298 22.1903C44.0061 22.5691 43.9182 22.9108 43.793 23.2355C43.4277 23.1881 43.0793 23.0258 42.8155 22.7721C42.5381 22.5015 42.3115 22.2005 42.1221 21.8758C41.0633 22.373 39.8017 22.6842 38.9797 23.452C38.0597 24.3078 38.4385 26.1377 37.921 27.3114C37.4441 28.3972 36.639 29.3511 35.6108 29.9633C34.1461 30.8394 32.4853 30.9307 30.9835 30.4301L30.9801 30.4267C30.1074 30.1358 29.2855 29.6454 28.5887 28.9891C28.1084 28.5393 27.9933 28.0048 28.1084 27.5212C28.3722 26.4049 29.874 25.5559 30.9801 26.5977C32.6612 28.1773 34.7719 27.0679 35.0357 24.9809C35.2827 23.0122 35.5262 21.6694 37.2919 20.5025C38.885 19.4538 40.9416 19.1427 42.1863 17.5901C43.651 15.7636 43.404 13.5108 42.8628 11.3832C42.5483 10.152 43.5258 9.33342 44.5034 9.28271C44.6082 11.921 44.5067 14.5628 44.3478 17.1944Z" fill="#D6038A"/>
<path d="M43.4481 40.1885C43.4379 40.2461 43.4278 40.3036 43.4176 40.3611C43.235 41.4773 42.9441 42.651 42.0883 43.3749C41.4591 43.9059 40.6271 44.1055 39.8085 44.2374C39.7104 44.2543 39.6123 44.2712 39.5142 44.2848C35.5398 44.8767 31.501 45.0559 27.486 44.8293C26.3461 44.7651 25.2062 44.667 24.0731 44.5351C23.1767 44.4336 22.0808 44.437 21.2352 44.1123C21.0829 44.0547 20.9341 43.9803 20.7853 43.8958C19.5202 43.1753 18.3972 41.5821 17.67 40.4625C15.7724 37.5333 14.9403 33.8904 15.5323 30.4334C15.6912 29.5066 15.9483 28.5865 16.4117 27.7714C17.0544 26.645 18.0522 25.7689 19.094 24.9977C19.9566 24.3584 21.0288 23.6143 22.145 23.1374C22.7573 22.8735 23.3797 22.6909 23.9885 22.6468C24.8544 22.586 25.8286 23.0223 26.7216 23.0764C27.6788 23.134 28.6462 23.0596 29.5832 22.8532C30.0601 22.7483 30.6791 22.6638 30.9328 23.0832C31.0512 23.2828 31.0343 23.5331 31.0174 23.7665C30.9768 24.2468 30.9463 24.7441 30.9497 25.2379C30.9632 26.4894 31.2068 27.7206 32.0592 28.5899C32.8676 29.4153 34.1597 29.7265 35.2556 29.3611C36.3516 28.9958 37.1972 27.9675 37.346 26.8209C37.4712 25.8637 37.1532 24.8354 37.549 23.9559C37.9684 23.0223 39.0339 22.5894 40.0047 22.2613C40.2922 22.1632 40.6 22.0718 40.9078 22.0042C41.7873 21.8115 42.6971 21.8115 43.3026 22.4202C43.8032 22.9242 43.9047 23.6921 43.9724 24.399C44.4594 29.6555 44.2835 34.9761 43.4481 40.1885Z" fill="#8DC63F"/>
<path d="M23.9953 27.6226C23.2477 28.5865 21.817 28.4952 20.3726 28.4377C19.2462 28.3903 18.1097 28.3599 17.2844 28.8673C16.2088 29.5235 15.627 30.8292 15.6574 32.0908C15.6912 33.3491 16.273 34.5499 17.0984 35.5003C18.4311 37.036 20.8292 36.1194 22.2736 37.3912C24.1678 39.0587 22.7302 41.0747 22.0368 43.1381C21.9658 43.3546 21.8846 43.5812 21.7019 43.7199C21.5024 43.872 21.2352 43.8788 20.9882 43.8788C17.2235 43.889 13.4588 43.8991 9.69405 43.9127C7.83706 43.9161 5.94961 43.9194 4.16703 43.3951C3.55143 43.2159 2.93917 42.9622 2.4927 42.5056C2.36755 42.3804 2.26267 42.2417 2.17136 42.0962C1.70119 41.3555 1.60649 40.3949 1.54897 39.5019C1.3528 36.2682 1.41368 33.0683 1.51854 29.8381C1.52529 29.6182 1.53206 29.395 1.53883 29.1751C1.58956 27.6056 1.03484 25.8197 1.66737 24.3178C1.99546 23.5399 2.72946 22.9344 3.5345 22.6875C4.0588 22.5251 4.66088 22.7145 5.22237 22.7179C5.88196 22.7213 6.54494 22.6468 7.18423 22.4912C7.67468 22.3729 8.18206 22.1902 8.47297 21.781C8.84504 21.26 8.74695 20.5395 8.55076 19.9307C8.35795 19.3219 8.0772 18.7096 8.13133 18.0737C8.19899 17.3296 8.72327 16.6903 9.36257 16.3046C9.99848 15.9191 10.7393 15.7499 11.4699 15.6011C12.4373 15.4049 13.4317 15.2392 14.4093 15.3744C15.3868 15.5098 16.361 15.9935 16.8751 16.8357C17.6125 18.0501 17.2269 19.6026 17.369 21.0165C17.3926 21.2567 17.4366 21.507 17.5821 21.6998C17.8966 22.1057 18.2416 21.8351 18.6036 21.7032C19.0264 21.5475 19.4898 21.4799 19.9363 21.4765C20.8698 21.4697 21.8136 21.764 22.5543 22.3424C22.6896 22.4473 22.8283 22.5792 22.9602 22.7314C24.0189 23.9153 24.9897 26.3372 23.9953 27.6226Z" fill="#00AEEF"/>
<path d="M43.739 4.06005C39.9641 5.10866 36.2129 4.02966 32.3907 4.28674C29.8606 4.45586 24.8105 5.9035 24.9458 9.14735C23.3526 9.02224 23.2647 7.08738 23.3526 5.36573C23.3628 5.12898 23.4033 4.89552 23.4676 4.6723C24.523 3.5189 25.9166 2.59879 27.3643 1.98323C31.0444 1.09367 35.0358 1.26949 38.8682 1.47924C40.1366 1.55026 41.4896 1.64498 42.5077 2.40943C43.0794 2.83563 43.4684 3.41064 43.739 4.06005Z" fill="#F422A9"/>
<path d="M31.0173 23.7664C30.9767 24.2467 30.9463 24.744 30.9496 25.2379C29.4156 25.6643 27.7785 25.6342 26.2086 25.4633C25.5547 25.3921 24.587 25.4179 24.1238 24.964C23.5908 24.4418 23.266 23.326 23.0262 22.636C23.0927 22.8272 24.4699 22.728 24.7179 22.738C25.3975 22.7652 26.04 23.0351 26.7215 23.0764C27.6788 23.134 28.6462 23.0595 29.5831 22.8532C30.0601 22.7483 30.6791 22.6637 30.9327 23.0832C31.0511 23.2828 31.0342 23.5331 31.0173 23.7664Z" fill="#A3D850"/>
<path d="M43.4481 40.1885C43.4379 40.2461 43.4278 40.3036 43.4176 40.3611C42.9136 41.4807 42.1796 42.4988 41.1209 43.3512C40.6981 43.6895 40.2617 43.9837 39.8085 44.2374C39.7104 44.2543 39.6123 44.2712 39.5142 44.2848C35.5398 44.8767 31.501 45.0559 27.486 44.8293C26.3461 44.7651 25.2062 44.667 24.0731 44.5351C23.1767 44.4336 22.0808 44.437 21.2352 44.1123C21.0829 44.0547 20.9341 43.9803 20.7853 43.8958C21.2047 43.7132 21.7019 43.6929 22.2161 43.9398C23.4811 44.5486 25.4633 43.7503 26.752 43.5136C28.1253 43.2599 29.5054 43.0637 30.899 42.9182C33.6591 42.6307 36.815 42.5495 39.061 40.6824C41.3374 38.7882 41.1547 35.4869 41.2393 32.7978C41.3442 29.5675 41.3712 26.3304 40.7556 23.1441C40.671 22.7078 40.7387 22.3221 40.9078 22.0042C41.7873 21.8115 42.6972 21.8115 43.3026 22.4202C43.8032 22.9242 43.9047 23.6921 43.9724 24.399C44.4594 29.6555 44.2835 34.9761 43.4481 40.1885Z" fill="#7EB22B"/>
<path d="M17.4256 19.5427C17.1944 20.3017 16.282 20.256 15.7486 19.6493C15.5031 19.3701 15.3806 19.0031 15.1574 18.7058C14.5333 17.8749 13.2749 17.7987 12.3046 18.1708C11.8516 18.3446 11.39 18.6478 11.2796 19.1202C11.2096 19.4195 11.2944 19.7297 11.339 20.0338C11.5276 21.3206 10.894 22.6719 9.83701 23.4122C8.6207 24.264 6.95329 23.8801 5.58761 24.2874C4.11288 24.7272 3.1895 26.1917 3.40935 27.7138C3.59538 28.9958 2.4927 29.8381 1.51854 29.8381C1.52529 29.6182 1.53206 29.395 1.53883 29.1751C1.58956 27.6056 1.03484 25.8197 1.66737 24.3178C1.99546 23.5399 2.72946 22.9344 3.5345 22.6875C4.0588 22.5251 4.66088 22.7145 5.22237 22.7179C5.88196 22.7213 6.54494 22.6468 7.18423 22.4912C7.67468 22.3729 8.18206 22.1902 8.47297 21.781C8.84504 21.26 8.74695 20.5395 8.55076 19.9307C8.35795 19.3219 8.0772 18.7096 8.13133 18.0737C8.19899 17.3296 8.72327 16.6903 9.36257 16.3046C9.99848 15.9191 10.7393 15.7499 11.4699 15.6011C12.4373 15.4049 13.4317 15.2392 14.4093 15.3744C15.3868 15.5098 16.361 15.9935 16.8751 16.8357C17.2981 17.5324 17.6014 18.591 17.4583 19.4047C17.4497 19.4534 17.4388 19.4993 17.4256 19.5427Z" fill="#30CDFC"/>
<path d="M22.0368 43.1383C21.9658 43.3548 21.8846 43.5814 21.702 43.72C21.5024 43.8722 21.2352 43.879 20.9883 43.879C17.2235 43.8892 13.4588 43.8993 9.69407 43.9129C7.83708 43.9163 5.94964 43.9196 4.16705 43.3953C3.55145 43.2161 2.9392 42.9624 2.49273 42.5058C2.36758 42.3806 2.2627 42.2419 2.17139 42.0964C2.61111 42.0897 3.05083 42.0897 3.49055 42.0931C5.89889 42.1201 8.30387 42.2825 10.7088 42.3975C12.9988 42.5024 15.2921 42.5666 17.5821 42.4246C18.5968 42.3604 19.6353 42.3941 20.3084 41.5282C20.6703 41.0648 21.225 39.749 20.995 39.1537C20.6568 38.2776 19.3173 38.3926 18.5427 38.2911C17.6937 38.1795 16.8954 37.9935 16.1073 37.6518C14.6258 37.0092 13.4013 35.876 12.9277 34.2964C11.7946 30.5216 14.7847 27.4333 17.9846 26.0566C19.6522 25.3396 21.1371 27.2912 20.3726 28.4379C19.2463 28.3905 18.1097 28.3601 17.2844 28.8675C16.2088 29.5237 15.627 30.8294 15.6574 32.091C15.6912 33.3493 16.2731 34.5501 17.0984 35.5005C18.4311 37.0362 20.8293 36.1196 22.2736 37.3914C24.1678 39.0589 22.7302 41.0749 22.0368 43.1383Z" fill="#00A5D8"/>
<path d="M0.829829 32.8376C0.78786 34.6368 0.781392 36.4327 0.844761 38.205C0.861025 38.6481 0.881406 39.0895 0.905385 39.5292C1.07583 42.4783 1.88856 43.7337 5.23506 44.33C7.04245 44.6537 7.71493 44.6135 19.8554 44.575C20.1308 44.574 20.4041 44.573 20.6752 44.5721L21.0899 44.5699C21.2466 44.5659 21.4361 44.5605 21.6695 44.4945C21.7674 44.4664 21.859 44.4253 21.9466 44.3779C22.4415 44.5249 23.3003 44.7194 24.7929 44.9321C26.5135 45.1604 29.084 45.4443 32.899 45.36C34.8047 45.311 37.0205 45.1646 39.5724 44.8019C40.2081 44.7088 40.9195 44.6118 41.6646 44.2946C42.0334 44.1352 42.4105 43.9086 42.7317 43.6006C43.0565 43.2982 43.3088 42.9292 43.5029 42.5482C43.8899 41.7796 44.0499 40.9678 44.1805 40.1827C45.0082 34.923 45.2247 29.6972 44.6496 24.041C44.5988 23.6002 44.5386 23.1189 44.3291 22.6179C44.3272 22.6131 44.3245 22.6083 44.3226 22.6035C44.4166 22.1089 44.5254 21.3023 44.6631 19.9708C45.0601 15.8447 45.5204 10.0085 44.8958 5.78038C44.4649 3.1035 43.3707 1.42904 40.6741 0.958848C39.8704 0.822086 39.081 0.798627 38.2943 0.754038C36.5534 0.665691 34.5469 0.57044 32.3605 0.662696C30.1809 0.75803 27.7982 1.04778 25.4661 1.87509C23.1171 2.63545 22.5877 4.44064 22.7598 6.87805C22.8248 7.52659 22.9161 8.23395 23.3958 8.90761C23.6431 9.23778 24.0236 9.50299 24.423 9.61837L24.7218 9.68684C24.819 9.69856 24.9143 9.70073 25.0106 9.70638C25.208 9.7261 25.3778 9.68758 25.5605 9.67452C26.106 9.58218 26.6136 9.61405 27.1242 9.7469C30.1742 10.5622 30.643 15.0607 26.2104 15.197C25.7242 15.2166 25.2342 15.2151 24.7473 15.2451C24.5041 15.2591 24.2608 15.2839 24.0207 15.3201C23.7602 15.3518 23.4782 15.456 23.2572 15.606C22.8029 15.9067 22.5221 16.3933 22.4604 16.8824C22.43 17.1439 22.4496 17.3254 22.4484 17.5312C22.4539 17.7316 22.4608 17.9274 22.4723 18.1185C22.5594 19.6481 22.8229 20.8617 23.0535 21.6795C23.1591 22.0524 23.2564 22.3401 23.336 22.5465C23.3061 22.552 23.2873 22.5589 23.2866 22.5675C23.2859 22.5773 23.3153 22.5903 23.3581 22.6045C23.4423 22.8154 23.5025 22.9216 23.5233 22.9151C23.5453 22.9085 23.5361 22.8131 23.5085 22.6442C23.8242 22.7159 24.4732 22.8195 25.4144 22.9452C26.0978 23.0295 26.9326 23.1272 27.9099 23.1336C28.3981 23.1347 28.9232 23.1096 29.4761 23.0185C30.016 22.9153 30.579 22.8181 30.7031 23.1047C30.7223 23.1414 30.7333 23.1819 30.7384 23.2227C30.7426 23.2579 30.7444 23.3101 30.7406 23.3824C30.7325 23.5145 30.7111 23.6936 30.6963 23.8591C30.6661 24.1963 30.6429 24.5432 30.6338 24.9003C30.5885 28.6322 32.736 30.1285 34.977 29.7714C36.7105 29.4932 38.0306 28.0991 37.9588 25.5127C37.9433 25.087 37.9355 24.6946 38.0058 24.3649C38.0719 24.0353 38.2245 23.7797 38.4654 23.5465C38.9507 23.0839 39.7549 22.804 40.5438 22.5621C41.3081 22.3319 42.133 22.2204 42.6314 22.4823C42.8806 22.6079 43.0542 22.8052 43.1708 23.0991C43.2909 23.3916 43.3452 23.7674 43.3826 24.1681C43.8564 29.6098 43.6222 34.7606 42.8125 39.9604C42.6934 40.7042 42.5434 41.3873 42.271 41.9251C41.9988 42.47 41.6298 42.8152 41.116 43.0374C40.6036 43.2626 39.9952 43.3653 39.3749 43.4569C36.8842 43.8293 34.7201 43.9994 32.8562 44.0821C29.1253 44.2342 26.5984 44.0567 24.8933 43.956C23.7961 43.8805 23.0394 43.8245 22.5116 43.7972C22.5675 43.6923 22.605 43.5969 22.6388 43.5108C24.1215 40.1292 24.6582 36.8996 21.0407 36.0826C20.5623 35.975 20.1172 35.9284 19.7072 35.876C17.3618 35.6078 16.2673 33.6406 16.2978 31.8998C16.3164 30.7728 16.9144 29.7558 17.6911 29.3449C18.0581 29.1396 18.5252 29.0538 18.9943 29.0188C19.4681 28.989 19.9478 29.003 20.4138 29.0146C21.3478 29.0389 22.258 29.0805 23.134 28.8058C24.0227 28.5438 24.7041 27.7318 24.8103 26.9996C24.9596 26.2707 24.8433 25.6676 24.7106 25.175C24.568 24.6816 24.393 24.2816 24.2137 23.9536C23.8584 23.2958 23.5169 22.9083 23.2607 22.6678C23.0031 22.4276 22.8295 22.3353 22.7238 22.3059C22.62 22.2749 22.5827 22.3044 22.553 22.3419C22.5232 22.3794 22.5044 22.425 22.5429 22.5192C22.5827 22.6109 22.6784 22.7516 22.8472 23.0155C23.0142 23.2779 23.2604 23.6712 23.5135 24.2878C23.642 24.5942 23.7631 24.9604 23.8529 25.3835C23.9383 25.8029 23.9832 26.2997 23.857 26.767C23.8377 26.8901 23.7709 26.9872 23.7302 27.102C23.6569 27.1941 23.6114 27.3087 23.51 27.3851C23.353 27.5776 23.1013 27.686 22.8142 27.7838C22.518 27.8719 22.1537 27.8992 21.7627 27.9118C21.3623 27.9116 20.932 27.8928 20.4614 27.8648C19.9894 27.8412 19.4843 27.8118 18.9268 27.8339C18.3722 27.8664 17.7418 27.9419 17.1089 28.2726C15.8771 28.9223 15.0747 30.3201 15.0196 31.8644C14.9687 33.5053 15.821 35.2319 16.9235 36.2586C17.3032 36.583 17.76 36.8079 18.2106 36.9453C18.6624 37.0849 19.11 37.1527 19.5339 37.2087C20.3774 37.3171 21.1784 37.4125 21.6992 37.8093C21.8306 37.894 21.9584 38.0438 22.0861 38.1692L22.2424 38.3781C22.2913 38.4489 22.321 38.5258 22.3648 38.5979C22.7522 39.4175 22.4409 40.476 21.3424 43.0313C21.3117 43.1206 21.2712 43.1847 21.2812 43.1664C21.2564 43.1743 21.1768 43.1852 21.0666 43.1859L20.6712 43.1872C20.4 43.1878 20.1267 43.1885 19.8513 43.1892C8.15361 43.2201 7.30485 43.3228 5.46679 43.0061C2.24018 42.4242 2.3161 41.5542 2.12233 38.153C2.04274 36.4144 2.02947 34.643 2.04983 32.8586C2.19191 25.2306 1.72132 26.2572 2.04923 24.9341C2.14038 24.5517 2.28507 24.2524 2.52108 23.9791C2.75107 23.7094 3.05816 23.4932 3.40165 23.3299C4.06886 23.0052 4.88524 22.9885 5.76215 22.969C6.19814 22.9588 6.66395 22.9339 7.1185 22.8621C7.35053 22.8249 7.59864 22.7727 7.85008 22.6703C8.10143 22.571 8.35175 22.4057 8.54358 22.21C8.93105 21.8149 9.1445 21.3085 9.20695 20.8018C9.27026 20.2966 9.19353 19.8105 9.05777 19.3691C8.91123 18.9164 8.74365 18.5854 8.74284 18.3095C8.69621 16.9883 10.7515 15.7381 12.6941 15.5538C15.505 15.2674 17.2905 16.6659 17.097 19.8136C17.0788 20.0922 17.061 20.3643 17.0437 20.6294C17.0297 20.8979 17.0193 21.2001 17.1324 21.4966C17.1925 21.6434 17.2886 21.7873 17.4212 21.8973C17.5615 21.9938 17.7191 22.0551 17.8627 22.0668C18.1526 22.0993 18.3965 22.0438 18.6216 21.9897C19.0671 21.8762 19.4534 21.7123 19.7892 21.6598C20.1313 21.6237 20.4829 21.6512 20.7762 21.695C21.3745 21.7882 21.8155 21.9783 22.1035 22.1212C22.3915 22.2675 22.5365 22.3632 22.553 22.3419C22.5661 22.3258 22.4503 22.192 22.1759 21.9992C21.9015 21.8103 21.4581 21.5658 20.8292 21.4204C20.5114 21.3514 20.1673 21.2966 19.7526 21.3149C19.3336 21.3585 18.9469 21.5054 18.5295 21.5875C18.3247 21.6284 18.1087 21.6576 17.9284 21.6266C17.7427 21.5971 17.6445 21.5092 17.5801 21.3316C17.519 21.1524 17.5254 20.9237 17.5512 20.6671C17.5785 20.404 17.6066 20.1341 17.6353 19.8576C17.9971 16.1209 15.6998 14.5703 12.6324 14.7804C10.519 14.9279 7.81511 16.2968 7.83492 18.3288C7.84625 18.8803 8.07589 19.301 8.1641 19.6372C8.3772 20.3325 8.30127 21.0842 7.85131 21.5145C7.6445 21.7206 7.36278 21.8144 6.96905 21.8687C6.57292 21.9236 6.17372 21.939 5.74212 21.942C5.31397 21.9476 4.86259 21.9425 4.38916 21.9912C3.91856 22.0363 3.41752 22.1459 2.95181 22.3582C2.49699 22.5653 2.05599 22.8575 1.70136 23.258C1.34306 23.6473 1.09052 24.1721 0.97256 24.656C0.715341 25.6507 0.801628 26.6258 0.874522 27.5166C0.985048 28.836 0.970393 28.3098 0.829829 32.8376ZM43.1745 21.3743C42.6421 21.118 42.0856 21.0886 41.5931 21.1285C41.0961 21.1724 40.6353 21.2868 40.1972 21.4246C39.7582 21.5651 39.3481 21.7128 38.9126 21.909C38.4857 22.1105 38.0471 22.3543 37.6687 22.7318C37.2897 23.0982 36.9997 23.6283 36.9145 24.1476C36.8197 24.6641 36.853 25.1365 36.875 25.5611C36.9852 27.5595 36.0565 28.5904 34.8102 28.8236C33.1088 29.1483 31.4554 28.0561 31.382 24.903C31.3782 24.5682 31.3875 24.2366 31.4037 23.9099C31.4117 23.7434 31.4253 23.595 31.4299 23.4015C31.431 23.3111 31.4274 23.2003 31.4038 23.077C31.3809 22.9593 31.3391 22.847 31.2785 22.7466C31.1657 22.5598 30.9848 22.4248 30.7862 22.3531C30.5733 22.2803 30.3914 22.2777 30.229 22.2833C29.9035 22.2968 29.6067 22.3867 29.3661 22.435C28.8613 22.5434 28.3657 22.5936 27.8971 22.6184C26.9583 22.6647 26.1278 22.6233 25.4448 22.5951C24.4733 22.5456 23.8028 22.5215 23.4899 22.5338C23.4516 22.316 23.3931 22.0102 23.3262 21.6178C23.1864 20.7925 23.0149 19.5905 23.0122 18.1026C23.0113 17.9169 23.0148 17.7267 23.0195 17.5324C23.0287 17.3444 23.0268 17.1202 23.055 16.974C23.1119 16.6501 23.3166 16.3396 23.6134 16.1633C23.7656 16.0741 23.9181 16.0207 24.1139 16.0046C24.3281 15.9816 24.549 15.9679 24.7777 15.964C25.2346 15.9541 25.7172 15.974 26.2277 15.9727C29.2438 15.9643 30.5468 14.2302 30.4014 12.3145C30.3289 10.5258 29.0771 9.20434 27.4132 8.71586C26.7761 8.52619 26.0581 8.47577 25.4104 8.57269C25.2924 8.57469 25.1621 8.60563 25.0575 8.58542C25.0033 8.58001 24.9466 8.57976 24.8942 8.57336C24.8468 8.5588 24.7995 8.54624 24.7516 8.5355C24.5726 8.47345 24.4365 8.3767 24.3184 8.21989C23.8583 7.54894 23.3301 4.47513 25.1859 3.37548C25.3941 3.25103 25.5922 3.17533 25.886 3.08282C28.056 2.3481 30.3108 2.09429 32.4132 2.02117C34.5205 1.94996 36.491 2.05161 38.2218 2.13979C39.0181 2.18347 39.7705 2.21025 40.4385 2.32456C42.1104 2.61547 43.1344 3.41009 43.5528 5.99135C44.2172 10.2709 43.7304 17.6094 43.684 19.9065C43.6637 20.6538 43.6578 21.2329 43.6621 21.6925C43.5139 21.5652 43.351 21.4548 43.1745 21.3743Z" fill="#202020"/>
</g>
<defs>
<clipPath id="clip0_92_2657">
<rect width="46" height="46" fill="white"/>
</clipPath>
</defs>
</svg>
