<svg width="46" height="46" viewBox="0 0 46 46" fill="none" xmlns="http://www.w3.org/2000/svg">
<path d="M34.6261 32.9228C33.4437 35.792 31.3107 41.0768 30.9938 41.7241C29.6036 44.566 25.6749 45.0464 22.5605 44.9988C21.804 44.9851 21.0169 44.9101 20.2911 44.6955C19.6335 44.4978 19.027 44.1912 18.5431 43.721C18.5057 43.6834 18.4716 43.6495 18.4375 43.6119C17.7799 42.9099 17.4562 41.9764 17.1529 41.0734C16.4101 38.8586 15.6639 36.6471 14.9211 34.4323C14.5905 33.4475 12.8017 30.7524 14.7303 30.5309C17.3437 30.231 19.9163 30.1117 22.4753 30.1253C26.0905 30.139 29.6751 30.4218 33.3143 30.8341C34.3637 30.9534 35.0111 31.9824 34.6261 32.9228Z" fill="#8B5E3C"/>
<path d="M34.6261 32.9227C33.4437 35.7919 31.3107 41.0767 30.9938 41.7241C30.2077 43.3309 28.5557 44.1811 26.8865 44.592C25.99 44.8126 25.0679 44.9219 24.1471 44.9713C23.5801 45.0017 21.697 45.3545 21.3378 44.7171C21.0893 44.2761 21.8916 43.9269 22.2151 43.8119C22.8438 43.5886 23.5272 43.5563 24.1851 43.488C25.6411 43.3366 27.1334 42.9469 28.2375 41.9858C28.8381 41.4629 29.2942 40.7967 29.7245 40.1266C30.9487 38.2198 32.0427 36.2378 31.5359 33.8979C31.4179 33.353 31.2613 32.8495 30.6911 32.7217C30.0562 32.5793 29.3518 32.616 28.7045 32.5593C27.0971 32.4185 25.4844 32.5382 23.8791 32.6469C22.3696 32.749 21.9062 31.1714 22.4753 30.1252C26.0905 30.1389 29.6751 30.4217 33.3142 30.834C34.3637 30.9533 35.0111 31.9823 34.6261 32.9227Z" fill="#7C4F31"/>
<path d="M25.1977 23.4434L24.4992 22.8744C23.6678 21.7022 22.206 20.9151 20.6727 20.8163C18.986 20.7073 17.3232 21.3751 15.6331 21.2695C13.6603 21.1502 11.9633 19.9985 10.5016 18.7923C9.63951 18.0802 8.79446 17.2862 8.10277 16.4172C7.86084 16.1141 7.63935 15.804 7.44173 15.487C6.76705 14.3968 7.87107 13.0746 9.22039 13.3642C10.1404 13.5619 11.1013 13.6471 12.0451 13.6845C13.9976 13.763 15.9807 13.6709 17.8752 14.1071C19.906 14.5705 21.6949 15.695 22.9965 17.1771C24.5503 18.9354 25.4192 21.1979 25.1977 23.4434Z" fill="#2BB673"/>
<path d="M37.6008 19.6136C37.519 19.7464 37.4305 19.876 37.3351 20.0054C36.8648 20.646 36.2515 21.2287 35.6279 21.7466C34.6841 22.5236 33.5903 23.2663 32.3159 23.3481C31.2256 23.4129 30.1522 22.9834 29.0619 23.0517C28.0737 23.1164 27.1299 23.6242 26.5949 24.3805L26.1417 24.7485C26.0157 23.4571 26.4484 22.1555 27.2525 21.0856C28.1078 19.9441 29.389 19.0581 30.8678 18.7208C32.091 18.4413 33.3722 18.5027 34.633 18.4517C35.2395 18.4244 35.863 18.3698 36.4559 18.2438C37.3248 18.0563 38.0404 18.9082 37.6008 19.6136Z" fill="#2BB673"/>
<path d="M22.9965 17.1771C22.8739 17.2044 22.741 17.2147 22.5979 17.2112C19.5551 17.1363 16.5872 16.482 13.5614 16.2401C12.5835 16.1617 10.0279 15.9981 8.10277 16.4172C7.86084 16.1141 7.63935 15.804 7.44173 15.487C6.76705 14.3968 7.87107 13.0746 9.22039 13.3642C10.1404 13.5619 11.1013 13.6471 12.0451 13.6845C13.9976 13.763 15.9807 13.6709 17.8752 14.1071C19.906 14.5705 21.6949 15.695 22.9965 17.1771Z" fill="#40CC86"/>
<path d="M37.6007 19.6136C37.5189 19.7464 37.4304 19.876 37.3349 20.0054C34.6704 19.215 31.2561 20.0396 29.0175 21.1912C28.3598 21.532 27.7261 21.4195 27.2524 21.0856C28.1077 19.9441 29.3889 19.0581 30.8677 18.7208C32.0909 18.4413 33.3721 18.5027 34.6329 18.4517C35.2394 18.4244 35.8629 18.3698 36.4558 18.2438C37.3247 18.0563 38.0403 18.9082 37.6007 19.6136Z" fill="#40CC86"/>
<path d="M38.0881 31.9857C37.3521 32.473 36.3367 32.2788 35.4508 32.0845C29.331 30.742 22.9251 30.4796 16.6964 31.3178C15.2312 31.5155 13.7387 31.7711 12.2804 31.6654C11.9158 31.6416 11.5512 31.5939 11.1934 31.5155C10.6448 31.3964 10.0622 31.1679 9.83726 30.7046C9.5817 30.1833 9.87475 29.5734 10.2768 29.1371C11.2173 28.1149 12.7915 27.6038 14.2328 27.8594L15.1358 27.4812C18.4478 27.2597 21.77 27.2018 25.0888 27.3108C28.302 27.4165 31.5084 27.6753 34.6909 28.0876C35.863 28.241 37.1033 28.4455 37.9654 29.1781C38.8275 29.9106 39.0422 31.3554 38.0881 31.9857Z" fill="#A97C50"/>
<path d="M25.0888 27.3108C24.8162 27.6005 24.4278 27.7946 23.9201 27.8083C20.1242 27.9071 15.0847 28.7112 12.2804 31.6654C11.9158 31.6416 11.5512 31.5939 11.1934 31.5155C10.6448 31.3964 10.0622 31.1679 9.83726 30.7046C9.5817 30.1833 9.87475 29.5734 10.2768 29.1371C11.2173 28.1149 12.7915 27.6038 14.2328 27.8594L15.1358 27.4812C18.4478 27.2597 21.77 27.2018 25.0888 27.3108Z" fill="#C19167"/>
<path d="M32.0161 7.55115C32.0161 10.9586 29.0006 13.7186 25.2831 13.7186C22.7855 13.7186 20.6081 12.4749 19.4496 10.6213C18.8772 9.71838 18.5535 8.66888 18.5535 7.55115C18.5535 4.14724 21.5656 1.38721 25.2831 1.38721C26.9357 1.38721 28.4486 1.93243 29.6207 2.83885C31.0859 3.97005 32.0161 5.66011 32.0161 7.55115Z" fill="#FFF200"/>
<path d="M29.6207 2.83885C25.1366 3.35678 20.8364 5.27162 19.896 9.77961C19.8176 10.1443 19.6609 10.4237 19.4496 10.6213C18.8772 9.71838 18.5535 8.66888 18.5535 7.55115C18.5535 4.14724 21.5656 1.38721 25.2831 1.38721C26.9357 1.38721 28.4486 1.93243 29.6207 2.83885Z" fill="#FFF685"/>
<path d="M39.1836 31.4389C39.0712 31.8138 38.8156 32.1954 38.4613 32.4477C38.1137 32.7032 37.6844 32.8395 37.2721 32.8837C36.594 32.9553 35.9466 32.8326 35.3196 32.7032C35.3162 32.7167 35.3162 32.7338 35.3128 32.7475C35.2958 32.836 35.2754 32.9247 35.2413 33.0098L35.197 33.1393L35.1595 33.2346C33.098 38.0452 35.978 31.345 31.5204 41.7258C30.3912 44.9192 25.6365 45.4454 22.2522 45.2594C20.9336 45.1709 19.8773 44.8301 19.2537 44.4143C18.9368 44.2134 18.7222 44.0157 18.5995 43.8658C18.4666 43.7227 18.4223 43.6272 18.4393 43.6136C18.4802 43.5693 18.7596 43.8658 19.3866 44.1691C20.0136 44.4791 21.0119 44.7176 22.2727 44.7176C23.5368 44.7073 25.0702 44.6461 26.6682 44.244C28.3328 43.8244 30.1166 42.861 30.6379 41.2966C34.1332 32.4924 31.9127 38.0759 34.0282 32.7679L34.0623 32.6827L34.0794 32.6282C34.0964 32.5907 34.0998 32.5531 34.1066 32.5157C34.11 32.5021 34.11 32.4884 34.1134 32.4748C31.0979 31.9194 27.1521 31.4015 22.0478 31.5685C20.5281 31.6196 18.7903 31.7422 16.9265 31.974C16.2177 32.0625 15.4749 32.175 14.698 32.2533C15.2396 33.8211 15.2286 32.6336 17.5977 40.8537C17.9623 42.2098 18.2417 42.7993 18.3916 43.1366C18.5416 43.4672 18.5143 43.5455 18.4393 43.6136C18.3712 43.6716 18.2758 43.7329 17.9589 43.4603C17.8056 43.3206 17.6011 43.0923 17.3762 42.7175C17.1514 42.3461 16.9196 41.8247 16.6675 41.1637C16.6537 41.1283 13.4503 32.7048 13.4373 32.6691C13.3998 32.5635 13.3623 32.4543 13.3316 32.3385C13.0011 32.3453 12.6706 32.3453 12.3333 32.3215C12.0573 32.3044 11.7779 32.2703 11.4985 32.226C11.3588 32.2056 11.219 32.175 11.0793 32.1477C10.926 32.1136 10.7659 32.066 10.6125 32.0114C10.3059 31.8921 10.006 31.7354 9.72319 31.4765C9.44719 31.2346 9.18822 30.8018 9.18483 30.3282C9.18822 29.8512 9.39268 29.49 9.60053 29.2071C9.83564 28.9038 10.1253 28.6995 10.3876 28.5461C11.3996 27.9771 12.4287 27.5681 13.5122 27.2615C14.0506 27.1081 14.6299 26.9991 15.1853 26.9446C15.7407 26.8867 16.2859 26.8662 16.814 26.8492C17.8771 26.8118 18.9266 26.7878 19.9488 26.7845C21.7514 26.7777 23.4755 26.8288 25.0702 26.9106C25.0565 26.8457 25.0463 26.7777 25.0361 26.6993C24.9509 26.0315 24.9407 24.8116 24.9816 22.6001C24.9747 22.5627 24.9679 22.5286 24.9577 22.4843C24.9304 22.3412 24.9032 22.1742 24.8725 21.98C24.8282 21.7925 24.7771 21.5746 24.7192 21.3326C24.6544 21.0907 24.5556 20.8249 24.4602 20.5284C24.3307 20.2422 24.2217 19.9118 24.0309 19.5777C23.6799 18.8997 23.1756 18.1194 22.4056 17.3426C19.9524 14.8676 17.3767 14.4937 14.1733 14.4292C12.5876 14.3855 10.9507 14.4054 9.2189 14.0237C8.98379 13.9658 8.76571 13.9896 8.55786 14.0748C8.35342 14.1566 8.17964 14.3235 8.08764 14.5042C7.99904 14.6882 7.98542 14.8755 8.0706 15.0629C8.09446 15.1311 8.21712 15.3254 8.30913 15.465C9.47274 17.2304 12.4655 19.9403 14.7048 20.5966C15.3625 20.7976 16.0235 20.8555 16.6879 20.818C17.3558 20.7806 18.0134 20.6716 18.6608 20.5864C19.3048 20.5013 19.942 20.4432 20.5485 20.474C21.1516 20.5046 21.7104 20.634 22.1875 20.8147C23.1518 21.1724 23.7992 21.7176 24.1706 22.1333C24.542 22.5592 24.6613 22.8523 24.6272 22.8728C24.5829 22.9034 24.3887 22.6717 23.9764 22.3344C23.5641 22.0073 22.9167 21.5746 22.0205 21.3258C21.5742 21.1997 21.0733 21.1282 20.5349 21.135C19.9897 21.1451 19.4071 21.2303 18.7835 21.3531C18.1599 21.4689 17.4887 21.6188 16.7595 21.6972C16.0303 21.7755 15.2193 21.7449 14.4459 21.5439C11.9064 20.9075 8.58497 18.1165 7.26646 16.1773C7.14378 15.9966 7.04497 15.874 6.90528 15.5945C6.65313 15.0902 6.67016 14.436 6.90869 13.9453C7.14719 13.4479 7.54926 13.0697 8.02289 12.8617C9.09027 12.379 8.68827 12.9067 14.2039 13.0389C15.2364 13.0629 16.2313 13.1106 17.1684 13.2502C19.4685 13.6172 21.54 14.5454 23.3324 16.46C24.1808 17.3732 24.7158 18.2864 25.0668 19.0837C25.0702 19.0837 25.0702 19.0871 25.0702 19.0871C25.1076 17.8128 25.1485 16.4021 25.169 15.1346C25.1758 14.8176 25.1826 14.511 25.186 14.218C24.6544 14.2214 24.1127 14.1668 23.5743 14.0611C22.8417 13.9215 22.1193 13.6557 21.4481 13.2843C19.9783 12.4744 18.9618 11.3028 18.3882 9.9383C17.7749 8.52076 17.7681 6.92953 18.1838 5.60068C18.6097 4.26483 19.4207 3.20185 20.2794 2.49308C21.8536 1.17105 23.6868 0.717835 25.2235 0.70752C28.666 0.730374 31.3726 2.85977 32.1235 5.42681C32.27 5.92777 32.3211 6.32292 32.3245 6.6229C32.345 6.91922 32.3007 7.12369 32.27 7.25996C32.2019 7.53598 32.1099 7.55311 32.0145 7.55311C31.919 7.55311 31.827 7.52916 31.7316 7.28724C31.6771 7.16462 31.6465 6.98743 31.5579 6.7387C31.4863 6.48996 31.3773 6.16619 31.2035 5.76423C30.1593 3.42003 27.8091 2.05359 25.2337 2.06716C23.9525 2.09444 22.4499 2.48277 21.1755 3.55274C20.4804 4.12524 19.833 4.97027 19.4786 6.01629C18.4586 9.12721 20.5904 12.2633 23.806 13.0151C24.4296 13.165 25.0702 13.2434 25.6937 13.2093C28.113 13.1299 30.1422 11.7923 31.0808 10.1461C31.5102 9.42719 31.718 8.75918 31.8202 8.29249C31.919 7.82564 31.9599 7.55311 32.0145 7.55311C32.0554 7.55311 32.1099 7.82564 32.0962 8.32993C32.0792 8.83422 31.9497 9.57027 31.5545 10.4017C30.7387 12.1935 28.7269 13.8389 26.0481 14.1566C26.0822 14.4564 26.1196 14.7699 26.1503 15.0937C26.3582 17.179 26.4229 19.6527 26.3956 21.2917C26.6103 20.9032 26.8897 20.4944 27.2645 20.0855C29.9367 17.1865 33.1276 17.9889 35.6876 17.6833C35.8921 17.6594 36.0999 17.6288 36.3078 17.5878C36.6485 17.513 37.0574 17.5436 37.405 17.7071C37.7559 17.8605 38.0592 18.1432 38.2364 18.5215C38.417 18.8929 38.4306 19.3939 38.2364 19.7789C38.1274 19.9935 38.066 20.0617 37.9842 20.1876C37.0993 21.4577 34.9236 23.2788 33.2104 23.6905C32.6891 23.82 32.1405 23.837 31.6601 23.7791C31.1762 23.7212 30.7435 23.6155 30.3448 23.5338C29.5441 23.3566 28.8728 23.3157 28.3072 23.4724C27.7381 23.6155 27.319 23.8746 27.0465 24.0687C26.7773 24.2699 26.6376 24.4095 26.5933 24.3789C26.5592 24.3551 26.6205 24.1574 26.8556 23.8677C27.3626 23.2489 28.2337 22.7829 29.2238 22.7161C29.6259 22.6888 30.045 22.7194 30.4675 22.7672C30.8866 22.8182 31.3125 22.8796 31.7282 22.8966C32.1473 22.9136 32.546 22.8728 32.9515 22.7432C34.2446 22.3429 35.9296 20.8347 36.7473 19.7516C36.8155 19.6596 36.8802 19.5676 36.9382 19.4722C36.9961 19.3904 37.0745 19.2609 37.0745 19.2473C37.0983 19.1791 37.0881 19.1451 37.0608 19.0769C37.0233 19.0155 36.9552 18.9475 36.87 18.9167C36.7814 18.8861 36.6962 18.8759 36.5872 18.9032C33.5013 19.5875 30.7884 18.3896 28.1913 20.968C27.7075 21.4451 27.3906 21.9255 27.1623 22.3412C27.0396 22.549 26.9681 22.75 26.8795 22.9272C26.8182 23.1079 26.75 23.2714 26.7057 23.4214C26.6614 23.5713 26.6239 23.7042 26.5899 23.8235C26.566 23.9393 26.5422 24.0449 26.5183 24.1369C26.4638 24.3175 26.4467 24.4436 26.4059 24.5321C26.3582 24.6412 26.3071 24.6923 26.2525 24.7196C26.181 25.6839 26.0992 26.321 26.0174 26.7402C26.0004 26.8219 25.9833 26.8935 25.9663 26.9617C27.6359 27.0673 29.1454 27.2069 30.413 27.3568C33.0673 27.6703 34.6893 27.9941 34.6893 28.0896C34.6791 28.1884 33.0299 28.0418 30.3653 27.8952C27.7041 27.7453 24.0241 27.626 19.9693 27.7658C18.9539 27.7999 17.918 27.851 16.8651 27.9192C15.8054 27.9804 14.8002 28.0555 13.8325 28.3654C12.8546 28.6619 11.8733 29.0878 11.018 29.5888C10.8238 29.7081 10.6739 29.834 10.5819 29.9568C10.4796 30.0999 10.4285 30.243 10.4353 30.3077C10.4456 30.3691 10.4626 30.444 10.5853 30.5496C10.6977 30.6484 10.8681 30.7439 11.0555 30.812C12.2651 30.5556 36.7084 30.8022 37.1528 31.6707C37.2712 31.9019 37.6196 31.5822 37.7798 31.4765C37.9297 31.3742 38.0285 31.2447 38.0865 31.0847C38.2091 30.7609 38.1342 30.3451 37.9842 30.0385C37.8309 29.7217 37.6026 29.5138 37.3402 29.3264C36.8189 28.972 36.3044 28.8118 35.9228 28.6824C35.5377 28.5631 35.2583 28.4814 35.0743 28.4132C34.6961 28.2769 34.6791 28.1849 34.6893 28.0896C34.7029 27.9941 34.7438 27.9056 35.1493 27.8783C35.3537 27.868 35.6536 27.868 36.0931 27.9258C36.5259 27.9941 37.1256 28.0861 37.8616 28.495C38.0422 28.6073 38.2262 28.7198 38.417 28.897C38.6078 29.0709 38.785 29.2787 38.9247 29.5274C39.1973 30.018 39.4051 30.6757 39.1836 31.4389Z" fill="#202020"/>
<path d="M26.5992 6.69033C26.4088 6.55806 26.1721 6.46156 25.9466 6.41597C25.7726 6.3792 25.6037 6.36872 25.44 6.3654C25.3859 6.08572 25.3244 5.80836 25.2545 5.54815C25.2225 5.42586 25.1891 5.30823 25.1551 5.19476C25.1637 5.19343 25.1727 5.19144 25.1811 5.19027C25.6246 5.13404 25.9335 5.12306 25.9391 5.04569C25.944 4.98064 25.6773 4.85519 25.1789 4.78514C25.1286 4.77932 25.073 4.77549 25.0166 4.7725C24.8406 4.27786 24.6675 3.95392 24.5736 3.97672C24.4803 3.99918 24.4703 4.33243 24.4872 4.81309C24.4113 4.82957 24.3341 4.84953 24.255 4.87815C23.916 5.00177 23.5092 5.26997 23.361 5.78707C23.2949 6.03114 23.297 6.29968 23.3981 6.56521C23.4888 6.82876 23.7478 7.0903 24.0211 7.1863C24.2338 7.26783 24.4294 7.28846 24.6002 7.29777C24.6137 7.67595 24.6249 8.02784 24.6344 8.31035C24.6387 8.4348 24.6425 8.54876 24.6461 8.66124C24.3233 8.68237 24.088 8.64127 23.9202 8.61182C23.7111 8.5684 23.5898 8.53978 23.5023 8.55176C23.4146 8.56291 23.3644 8.61049 23.3181 8.6654C23.2718 8.7203 23.2298 8.77437 23.2524 8.87054C23.2756 8.96487 23.3623 9.11428 23.6235 9.28532C23.8375 9.41925 24.1865 9.56649 24.6783 9.58979C24.6963 10.0282 24.7179 10.319 24.764 10.5064C24.837 10.8353 24.9659 10.8594 25.1091 10.8699C25.2525 10.8802 25.383 10.878 25.4986 10.5498C25.5662 10.3436 25.6359 10.0057 25.6672 9.46201C25.8161 9.41709 25.9687 9.36268 26.1266 9.28598C26.3311 9.18898 26.5523 9.05339 26.7615 8.85257C26.9645 8.65408 27.1931 8.35444 27.2359 7.92369C27.2577 7.69675 27.2068 7.42988 27.085 7.21558C26.9663 6.99613 26.7934 6.82293 26.5992 6.69033ZM24.3115 6.37371C24.2234 6.34909 24.1877 6.32696 24.1352 6.24627C24.0896 6.16924 24.0661 6.05311 24.0792 5.94762C24.0932 5.74847 24.275 5.53135 24.4941 5.40873C24.5005 5.4049 24.5074 5.40257 24.5139 5.39874C24.5184 5.48543 24.523 5.57261 24.5276 5.66295C24.5412 5.89904 24.5533 6.14578 24.5643 6.39385C24.4606 6.39518 24.3721 6.39102 24.3115 6.37371ZM26.0359 8.11385C25.934 8.21501 25.8104 8.3007 25.6765 8.37024C25.6755 8.33564 25.6756 8.30552 25.6744 8.26992C25.6657 8.01037 25.6393 7.69641 25.5978 7.35917C25.6394 7.36699 25.683 7.37348 25.7204 7.38396C25.8425 7.4174 25.9301 7.46282 26.0132 7.52455C26.0924 7.58394 26.148 7.65182 26.1722 7.7044C26.1996 7.75864 26.2007 7.79108 26.1991 7.83334C26.1949 7.90206 26.1407 8.01053 26.0359 8.11385Z" fill="#202020"/>
</svg>
