<svg width="46" height="46" viewBox="0 0 46 46" fill="none" xmlns="http://www.w3.org/2000/svg">
<path d="M24.4099 43.3056C21.4455 43.5476 18.3993 43.0773 15.4825 41.7314C8.74948 38.6272 4.16312 31.6761 3.18178 24.3297C2.90237 22.2342 3.13749 19.9716 3.77126 17.7364C5.26712 12.4583 8.98459 7.34718 13.387 4.99611C15.8846 3.66384 18.464 2.98918 21.0127 2.86989C21.115 2.86648 21.2206 2.85966 21.3228 2.85966C25.4901 2.73362 29.5619 4.08636 33.0238 6.44084C34.6628 7.55507 36.1655 8.89083 37.4705 10.4037C37.5659 10.5094 37.6579 10.6183 37.7499 10.7274C39.5729 12.9047 41.0074 15.4262 41.9002 18.1419C41.9035 18.1453 41.9002 18.1453 41.9002 18.1453C42.1046 18.7756 42.2818 19.4129 42.4249 20.0602C42.493 20.3465 42.551 20.6327 42.6021 20.9223C44.6601 32.361 35.1092 42.4538 24.4099 43.3056Z" fill="#EE2A7B"/>
<path d="M37.75 11.0068C37.5864 11.1123 37.4195 11.218 37.2559 11.3236C34.2369 13.259 31.1601 15.0922 28.0797 16.9254C26.9894 17.5728 25.899 18.2236 24.8086 18.871C24.4986 19.0584 24.1851 19.2424 23.875 19.4264C23.6672 19.5491 23.3571 19.866 23.1186 19.8966C23.3264 18.8063 23.2378 17.6852 23.1152 16.5812C22.8562 14.2471 22.4405 11.9336 22.1202 9.60628C21.9566 8.44438 21.8203 7.27899 21.7386 6.11028C21.7079 5.6673 21.6364 5.23455 21.5614 4.80188C21.466 4.24984 21.3638 3.70122 21.3229 3.13903C25.4901 3.013 29.7426 4.19194 33.2045 6.54643C34.9593 7.73903 36.3768 9.36096 37.75 11.0068Z" fill="#8DC63F"/>
<path d="M22.6245 19.4195C22.1952 20.1044 21.3365 20.4315 20.5153 20.4554C19.6941 20.4792 18.8934 20.2441 18.0995 20.0328C13.6153 18.8437 8.37472 18.1042 3.75769 17.6136L3.77131 17.4364C3.78835 17.3717 3.80879 17.3035 3.82923 17.2388C5.35916 12.0322 9.03917 7.01659 13.387 4.69613C15.8846 3.36378 18.4641 2.68912 21.0128 2.56982C21.0707 3.03668 21.3126 3.44214 21.391 3.909C21.4285 4.1168 21.4558 4.32469 21.483 4.53591C21.5273 4.85968 21.5648 5.18677 21.6193 5.51046C21.8408 6.82576 22.0521 8.13756 22.2395 9.45626C22.6211 12.1242 22.9073 14.8093 22.9686 17.5011C22.9857 18.1622 22.9755 18.8573 22.6245 19.4195Z" fill="#F9ED32"/>
<path d="M24.4099 43.3056C27.6606 41.9154 30.4581 39.6528 32.7546 36.9031C33.4838 36.0273 34.1551 35.1039 34.7855 34.1499C38.4961 27.7234 40.6564 19.1607 36.1961 12.857C35.6268 12.0523 35.9278 11.0852 36.7717 10.6285C37.7586 10.0945 38.3497 11.0713 38.9596 11.7686C40.4056 13.4217 41.6528 15.5773 41.8476 17.7789C41.9638 19.0916 42.4058 20.4104 42.6088 21.7165C42.8119 23.0232 42.9314 24.354 42.8081 25.6749C42.5784 28.1353 41.8171 30.53 40.6325 32.696C38.2767 37.0035 34.2996 40.3853 29.7115 42.1103C28.0103 42.7499 26.2223 43.1613 24.4099 43.3056Z" fill="#E20E6F"/>
<path d="M37.7499 11.0068C37.5864 11.1124 37.4194 11.218 37.2559 11.3237C37.1673 11.2828 37.0787 11.2351 36.9901 11.1772C32.3185 8.12069 27.4085 4.91435 21.6363 4.8087C21.6125 4.8087 21.5852 4.8087 21.5614 4.80196C21.466 4.24992 21.2734 3.11241 21.2325 2.55022C25.3998 2.42419 29.9716 4.07191 33.4335 6.4264C35.1883 7.61899 36.3768 9.36103 37.7499 11.0068Z" fill="#A6E04B"/>
<path d="M21.483 4.53591C21.2922 4.84603 20.9583 5.07771 20.4574 5.15608C16.1402 5.8205 12.5658 8.25003 9.31175 11.0407C7.10035 12.9386 5.17856 14.8877 3.82922 17.2388C5.35915 12.0322 9.03916 7.01659 13.387 4.69613C15.8846 3.36378 18.464 2.68912 21.0128 2.56982C21.0707 3.03668 21.3126 3.44214 21.391 3.909C21.4285 4.1168 21.4558 4.32469 21.483 4.53591Z" fill="#FFF385"/>
<path d="M7.22765 35.4676C9.83715 39.0074 13.4793 41.6215 17.2953 42.855C19.2016 43.476 21.137 43.7536 22.9697 43.7531C30.0758 43.7586 36.935 39.6075 40.4221 34.0515C44.7999 27.5139 44.8511 17.7207 37.9808 9.9461C36.0389 7.77992 33.2865 5.76212 33.0252 6.14188C32.8002 6.46911 34.6142 7.45107 37.0753 10.3931C37.0083 10.4248 36.9394 10.4581 36.8596 10.5006C35.9721 10.9585 23.4385 19.2328 23.4038 19.2564C23.4051 19.2532 23.4071 19.2498 23.4084 19.2466C23.6849 18.5453 23.6624 17.9102 23.6605 17.3853C23.5451 12.8286 22.7081 7.45969 21.9202 4.21473C21.8164 3.79205 21.7292 3.47984 21.6487 3.23186C21.6069 3.09959 21.5579 2.98321 21.5057 2.88571C24.9136 2.77615 28.457 3.74216 30.9425 5.05136C31.2777 5.22423 31.5755 5.37779 31.8337 5.5109C32.0866 5.6544 32.3007 5.77577 32.4738 5.87401C32.8218 6.06851 33.0117 6.16168 33.0252 6.14188C33.0387 6.12208 32.8753 5.98965 32.5503 5.75447C32.387 5.63834 32.1869 5.49035 31.9417 5.32929C31.6904 5.17731 31.4005 5.00195 31.0741 4.80462C28.4264 3.20287 24.4922 2.03745 20.528 2.27843C16.9473 2.49177 13.2569 3.85106 10.4763 6.16285C7.26202 8.80478 4.79427 12.6461 3.50321 16.5144C1.27856 23.2261 3.02637 29.8523 7.22765 35.4676ZM11.0417 6.84075C13.6751 4.57001 17.1938 3.22377 20.5763 2.93812C20.676 2.92955 20.7742 2.92448 20.8731 2.91774C20.8759 3.02031 20.8797 3.16323 20.8852 3.37029C20.8901 3.61395 20.9116 3.94945 20.9528 4.37862C21.2181 7.21912 21.953 11.0429 22.2218 15.9818C22.2469 16.4297 22.2627 16.9102 22.2803 17.4156C22.2949 17.9102 22.2862 18.3873 22.1471 18.7394C22.0776 18.9158 21.9857 19.0574 21.8417 19.1894C21.702 19.3213 21.5151 19.433 21.303 19.5165C20.8724 19.6879 20.373 19.7224 19.8189 19.6515C19.2382 19.5815 10.7613 17.4014 4.34841 17.4267C4.40433 17.2319 4.46065 17.0373 4.52175 16.8449C5.72303 13.08 8.0583 9.38159 11.0417 6.84075ZM4.27809 17.6732C4.31351 17.6811 19.6083 20.9126 19.6426 20.9179C20.3145 21.0259 21.0778 21.0152 21.7687 20.7572C22.1143 20.6305 22.4506 20.4473 22.7409 20.1881C22.7695 20.1635 22.7949 20.1342 22.8224 20.1078C26.1775 18.9215 34.4559 14.1279 37.4358 11.2948C37.5127 11.22 37.5783 11.1525 37.6357 11.0902C43.6402 18.8384 43.1662 27.5757 39.2828 33.3097C36.0164 38.4779 29.6085 42.3603 22.9678 42.3726C21.269 42.3774 19.4796 42.1274 17.7115 41.5608C14.1762 40.4365 10.7414 38.0239 8.24729 34.6961C4.48528 29.7526 2.62086 23.7226 4.27809 17.6732Z" fill="#202020"/>
</svg>
