<svg width="46" height="46" viewBox="0 0 46 46" fill="none" xmlns="http://www.w3.org/2000/svg">
<path d="M43.7274 37.2952C43.1856 38.3004 42.3372 39.0637 41.0628 39.5952C40.5721 39.7996 40.0167 39.97 39.3932 40.1064C36.1221 40.815 32.6704 41.241 29.1505 41.4352C28.9733 41.4454 28.7927 41.4557 28.6121 41.4625C20.9353 41.8373 12.9585 41.132 5.83362 39.9019C4.06518 39.5987 2.96798 39.0193 2.324 38.0551C1.7788 37.2476 1.55733 36.1742 1.51642 34.7601C1.49939 34.1468 1.48236 33.5335 1.47214 32.9235C1.40399 29.8568 1.38355 26.7902 1.39717 23.7235C1.39717 23.5497 1.39717 23.3794 1.40058 23.209C1.42103 19.822 1.53348 16.5987 1.94235 13.2969C1.97302 13.0345 2.00709 12.7721 2.04459 12.5098C2.17066 11.5727 2.324 10.6323 2.50458 9.67478C2.89985 7.57585 3.58813 5.95392 5.19303 5.2281C5.57125 5.05772 5.99717 4.93852 6.48443 4.87371C6.48784 4.87038 6.48784 4.87038 6.48784 4.87038C6.57985 4.86007 6.67524 4.84992 6.77407 4.83969C10.3246 4.52615 14.0455 4.8431 17.613 4.8431C21.5861 4.83969 25.6136 4.69319 29.6309 4.64885C32.7556 4.60801 35.8699 4.6318 38.9536 4.83287C44.2317 5.17702 43.8569 10.5607 43.8603 14.7927C43.8671 19.3109 44.184 23.8189 44.3952 28.3337C44.46 29.7445 44.5111 31.1585 44.5418 32.5691C44.5827 34.5045 44.3816 36.0788 43.7274 37.2952Z" fill="#9ADDEF"/>
<path d="M26.6763 5.34278C26.7248 5.57537 26.6746 5.88432 26.4892 6.29247C26.3459 6.60768 26.1075 6.86834 25.8696 7.11992C24.0814 9.01124 22.0456 10.7543 19.6117 11.6769C16.557 12.8349 13.1073 12.6173 10.0721 13.8255C7.12023 15.0005 4.83375 17.4212 3.01 20.0228C2.34387 20.973 1.75636 21.9578 1.39893 23.0668C1.44774 20.6856 1.48162 18.3092 1.67389 15.9336C1.75728 14.9034 1.65613 13.9781 1.85045 12.95C2.05587 11.8633 2.30628 10.7273 2.50447 9.6749C2.84893 7.84578 3.38515 6.31731 5.10608 5.44337C5.31939 5.33505 5.53583 5.2256 5.77005 5.17671C9.60968 4.37538 13.6488 4.84667 17.6129 4.84326C19.5798 4.84158 21.5464 4.80491 23.5128 4.76345C24.4915 4.74281 26.4705 4.35737 26.6763 5.34278Z" fill="#B3F1FF"/>
<path d="M7.4448 10.0651C8.44417 10.9081 9.98649 10.4504 9.92251 9.01007C9.85955 7.59285 8.18438 6.92248 7.30193 8.13822C6.71985 8.94015 6.94082 9.63993 7.4448 10.0651Z" fill="white"/>
<path d="M12.4707 10.0651C13.4701 10.9081 15.0124 10.4504 14.9484 9.01007C14.8854 7.59285 13.2103 6.92248 12.3278 8.13822C11.7457 8.94015 11.9667 9.63993 12.4707 10.0651Z" fill="white"/>
<path d="M17.4967 10.0651C18.4961 10.9081 20.0384 10.4504 19.9744 9.01007C19.9114 7.59285 18.2363 6.92248 17.3538 8.13822C16.7717 8.94015 16.9927 9.63993 17.4967 10.0651Z" fill="white"/>
<path d="M16.7203 19.1236C16.693 19.4064 16.6283 19.6688 16.5328 19.9209C16.1717 20.8921 15.388 21.6587 14.6724 22.3913C14.1238 22.9501 13.5889 23.526 13.0743 24.1155C12.6484 24.6027 11.8749 25.1309 12.2463 25.8192C13.1016 27.4002 14.0182 28.9506 14.9007 30.5145C15.4016 31.4005 15.9025 32.2864 16.2739 33.2336C16.325 33.3597 16.3727 33.4927 16.4102 33.6289C16.4818 33.9015 16.5124 34.181 16.4204 34.4432C16.2637 34.9033 15.7628 35.1759 15.2823 35.1929C14.4135 35.2304 13.6877 34.5796 13.1527 33.9731C12.4746 33.1996 11.7659 32.4431 11.0776 31.6799C9.71803 30.1704 8.38575 28.6336 7.0807 27.0799C7.05005 27.0458 7.02278 27.0083 6.99211 26.9742C6.45034 26.3268 6.03122 25.5124 6.40263 24.6572C6.76041 23.8292 7.95982 23.0557 8.61745 22.4662C10.3518 20.9227 12.1782 19.4814 14.0829 18.1626C14.5736 17.8254 15.238 17.2734 15.8582 17.5323C16.4613 17.7845 16.7816 18.5001 16.7203 19.1236Z" fill="#F1F2F2"/>
<path d="M39.3966 27.373C39.3625 27.4105 39.3284 27.4515 39.2977 27.4889C37.9654 29.0801 36.6025 30.651 35.2122 32.1945C34.5206 32.9612 33.8152 33.7142 33.1337 34.4877C32.6022 35.0942 31.873 35.745 31.0075 35.7076C30.5271 35.6905 30.0262 35.4179 29.8694 34.9579C29.7774 34.6955 29.8047 34.4162 29.8797 34.1436C29.9171 34.0072 29.9648 33.8744 30.0159 33.7483C30.3874 32.801 30.8882 31.9151 31.3891 31.0292C32.2716 29.4652 33.1882 27.9148 34.0401 26.3337C34.4115 25.6454 33.6414 25.1174 33.2155 24.63C32.6976 24.0406 32.166 23.4647 31.6174 22.9059C30.8746 22.1461 30.0568 21.3453 29.7195 20.3265C29.6446 20.1084 29.5934 19.8801 29.5696 19.6382C29.5082 19.0146 29.8285 18.2991 30.4317 18.047C31.0518 17.788 31.7162 18.34 32.2069 18.6774C34.1117 19.996 35.938 21.4373 37.669 22.9809C38.33 23.5704 39.5294 24.3439 39.8872 25.1718C40.2348 25.976 39.8872 26.7461 39.3966 27.373Z" fill="#F1F2F2"/>
<path d="M16.7203 19.1236C16.693 19.4064 16.6283 19.6688 16.5328 19.9209C13.1289 21.3384 9.91226 23.3079 7.6702 26.2655C7.61908 26.3643 7.56116 26.4597 7.48278 26.5585C7.37035 26.7085 7.2579 26.855 7.14203 27.0049C7.12159 27.0321 7.10115 27.056 7.0807 27.0799C7.05005 27.0458 7.02278 27.0083 6.99211 26.9742C6.45034 26.3268 6.03122 25.5124 6.40263 24.6572C6.76041 23.8292 7.95982 23.0557 8.61745 22.4662C10.3518 20.9227 12.1782 19.4814 14.0829 18.1626C14.5736 17.8254 15.238 17.2734 15.8582 17.5323C16.4613 17.7845 16.7816 18.5001 16.7203 19.1236Z" fill="white"/>
<path d="M39.3966 27.373C36.4491 24.6573 33.2223 22.3097 29.7195 20.3265C29.6446 20.1084 29.5934 19.8801 29.5696 19.6382C29.5082 19.0146 29.8285 18.2991 30.4317 18.047C31.0518 17.788 31.7162 18.34 32.2069 18.6774C34.1117 19.996 35.938 21.4373 37.669 22.9809C38.33 23.5704 39.5294 24.3439 39.8872 25.1718C40.2348 25.976 39.8872 26.7461 39.3966 27.373Z" fill="white"/>
<path d="M43.7274 37.2952C42.9369 38.1505 42.0134 38.9103 41.0628 39.5952C40.5721 39.7996 40.0167 39.97 39.3932 40.1063C36.122 40.815 32.6703 41.241 29.1505 41.4352C29.1539 41.4113 29.1641 41.3841 29.1709 41.3603C28.9835 41.3944 28.7995 41.4284 28.6121 41.4625C20.9352 41.8373 12.9585 41.132 5.8336 39.9019C4.06515 39.5986 2.96796 39.0193 2.32397 38.0551C2.69196 37.7348 3.19966 37.5644 3.80619 37.7007C8.16084 38.6684 12.8222 38.6616 17.2689 38.7502C21.6201 38.8388 26.0157 38.6786 30.2613 37.6462C35.812 36.3002 41.3388 33.2234 44.3952 28.3337C44.46 29.7445 44.5111 31.1585 44.5417 32.5691C44.5826 34.5045 44.3816 36.0788 43.7274 37.2952Z" fill="#88D3E5"/>
<path d="M45.0003 28.2437C44.6941 21.5974 44.358 9.74618 44.356 9.73125C44.2726 9.12472 44.1496 8.51744 43.9549 7.92098C43.1731 5.51085 41.5046 4.35881 39.0403 4.15187C34.5857 3.88308 8.28677 4.0576 6.78015 4.17133C6.47872 4.20694 6.16258 4.23847 5.85786 4.31808C5.2464 4.45967 4.64565 4.71689 4.1386 5.09514C3.62917 5.47082 3.22797 5.95249 2.93032 6.4502C2.3338 7.45637 2.09043 8.49107 1.89643 9.45257C0.21319 18.4717 0.982674 32.9316 1.47053 32.9222C2.22256 32.9079 1.41826 21.2793 2.66736 12.5633C3.16213 12.6328 3.94448 12.7109 4.94074 12.7935C6.71784 12.9387 9.17461 13.0979 11.8893 13.2391C17.3186 13.5266 23.7798 13.7358 27.8885 13.793C35.3868 13.8986 39.2153 13.8189 41.1683 13.7028C43.1213 13.5808 43.1995 13.4074 43.1997 13.2159C43.1999 13.0243 43.1214 12.8507 41.1707 12.7215C39.22 12.5865 35.3973 12.5109 27.9087 12.4055C23.8053 12.3484 17.3498 12.2947 11.918 12.2583C9.20204 12.2427 6.74209 12.2329 4.95996 12.2537C3.97692 12.2639 3.20168 12.2836 2.70212 12.3153C2.82642 11.4742 2.97375 10.6026 3.15115 9.69864C3.33518 8.80852 3.57828 7.88912 4.04551 7.12503C4.50373 6.35528 5.2136 5.8124 6.15823 5.60883C6.39133 5.54802 6.63469 5.52722 6.89401 5.49669C7.69318 5.44155 34.1964 5.25015 38.9438 5.52273C41.5859 5.74248 42.6333 7.20837 43.0248 9.91576C43.1795 11.0129 43.1994 12.1742 43.2026 13.3634C43.1704 18.2938 43.4675 22.4652 43.7814 28.3C43.8462 29.568 43.9002 30.8381 43.9376 32.108C43.9623 32.75 43.9627 33.3562 43.9377 33.9733C43.8967 34.5816 43.8357 35.1863 43.6942 35.7577C43.4152 36.8981 42.8323 37.9069 41.8718 38.5307C41.4045 38.8519 40.8766 39.1072 40.3115 39.2878C39.7558 39.4847 39.1643 39.6045 38.5495 39.7281C36.1216 40.2327 33.6905 40.5785 31.3024 40.7927C23.2054 41.5067 14.7245 40.9941 6.75357 39.778C5.9679 39.6611 5.236 39.5585 4.58 39.3487C3.92376 39.1445 3.34606 38.8452 2.91217 38.4432C2.48098 38.0379 2.20796 37.5398 2.03266 37.0529C1.85334 36.5649 1.77194 36.0852 1.71502 35.6537C1.61164 34.7883 1.60153 34.0943 1.55904 33.6309C1.52419 33.1658 1.49447 32.9217 1.47053 32.9222C1.44659 32.9227 1.42898 33.1679 1.41718 33.6343C1.41342 34.1015 1.37628 34.7853 1.43686 35.6828C1.473 36.1293 1.53357 36.6311 1.704 37.1636C1.86981 37.6928 2.15149 38.263 2.62456 38.7391C3.09924 39.2117 3.73428 39.5625 4.42959 39.8015C6.25152 40.4434 19.0687 42.6951 31.3847 41.7705C33.8073 41.5849 36.2809 41.2641 38.7622 40.7775C39.9866 40.5536 41.3435 40.2378 42.4994 39.4486C43.079 39.0644 43.6063 38.5563 43.988 37.9557C44.3767 37.36 44.6369 36.7002 44.8105 36.037C45.141 34.7062 45.1562 33.3618 45.124 32.0786C45.098 30.7971 45.0547 29.5176 45.0003 28.2437Z" fill="#202020"/>
<path d="M9.49462 7.11043C9.13537 6.88956 8.72729 6.80055 8.37353 6.81744C7.71131 6.83707 7.20525 7.2011 6.91838 7.53935C6.76753 7.71729 6.6623 7.87402 6.57853 8.04464C6.49097 8.21035 6.43099 8.38704 6.38998 8.55458C6.31278 8.8974 6.3419 9.22009 6.42236 9.46067C6.50256 9.70392 6.62204 9.86805 6.72702 9.9801C6.94668 10.1986 7.10869 10.2346 7.21509 10.2211C7.32234 10.2064 7.38259 10.1378 7.44475 10.065C7.50694 9.99217 7.56063 9.91754 7.57952 9.82238C7.59836 9.72937 7.58339 9.61058 7.55885 9.45959C7.53957 9.30137 7.52203 9.14372 7.62115 8.89973C7.65154 8.83634 7.68325 8.7658 7.73814 8.68635C7.78603 8.60574 7.86238 8.51623 7.92835 8.44935C8.06946 8.30926 8.23088 8.20627 8.4316 8.20394C8.64271 8.18464 8.98907 8.3026 9.18379 8.63785C9.28077 8.79841 9.3384 9.01661 9.33821 9.23789C9.33725 9.45069 9.27892 9.6298 9.16249 9.77829C9.04719 9.92703 8.86551 10.0383 8.67004 10.0919C8.47417 10.1476 8.27325 10.1478 8.09895 10.1331C7.74991 10.0935 7.51035 9.98559 7.44475 10.065C7.38752 10.1265 7.50723 10.3973 7.91909 10.6424C8.12511 10.7557 8.40469 10.8583 8.74277 10.8644C9.07675 10.8718 9.47607 10.7749 9.81848 10.508C10.1638 10.2473 10.4083 9.81281 10.4801 9.37965C10.5551 8.95613 10.5152 8.50201 10.3381 8.08789C10.1635 7.67536 9.85469 7.32755 9.49462 7.11043Z" fill="#202020"/>
<path d="M14.5205 7.11035C13.7198 6.61809 12.6311 6.72952 11.9442 7.53927C11.7934 7.71721 11.6882 7.87394 11.6044 8.04456C11.5169 8.21027 11.4569 8.38697 11.4159 8.55451C11.3387 8.89733 11.3678 9.22002 11.4482 9.4606C11.5284 9.70384 11.6479 9.86797 11.7529 9.98003C11.9726 10.1985 12.1345 10.2345 12.2409 10.221C12.3482 10.2063 12.4085 10.1378 12.4706 10.0649C12.5328 9.99209 12.5865 9.91747 12.6054 9.8223C12.6242 9.7293 12.6093 9.61051 12.5847 9.45952C12.5654 9.30129 12.5479 9.14365 12.647 8.89966C12.6774 8.83627 12.7091 8.76572 12.764 8.68628C12.8119 8.60567 12.8883 8.51616 12.9542 8.44927C13.0953 8.30919 13.2568 8.2062 13.4575 8.20387C13.6686 8.18457 14.0149 8.30253 14.2096 8.63778C14.3066 8.79833 14.3643 9.01654 14.3641 9.23782C14.3631 9.45062 14.3048 9.62972 14.1884 9.77821C14.0731 9.92695 13.8914 10.0382 13.6959 10.0918C13.5 10.1475 13.2991 10.1477 13.1248 10.133C12.7758 10.0934 12.5362 9.98552 12.4706 10.0649C12.4134 10.1264 12.5331 10.3972 12.945 10.6423C13.151 10.7556 13.4305 10.8583 13.7686 10.8643C14.1026 10.8717 14.502 10.7748 14.8443 10.5079C15.1897 10.2472 15.4342 9.81274 15.506 9.37957C15.581 8.95606 15.5411 8.50193 15.364 8.08782C15.1894 7.67529 14.8806 7.32748 14.5205 7.11035Z" fill="#202020"/>
<path d="M19.5465 7.11043C19.1873 6.88956 18.7792 6.80055 18.4254 6.81744C17.7632 6.83707 17.2571 7.2011 16.9703 7.53935C16.8194 7.71729 16.7142 7.87402 16.6304 8.04464C16.5429 8.21035 16.4829 8.38704 16.4419 8.55458C16.3647 8.8974 16.3938 9.22009 16.4742 9.46067C16.5544 9.70392 16.6739 9.86805 16.7789 9.9801C16.9986 10.1986 17.1606 10.2346 17.267 10.2211C17.3742 10.2064 17.4345 10.1378 17.4966 10.065C17.5588 9.99217 17.6125 9.91754 17.6314 9.82238C17.6502 9.72937 17.6353 9.61058 17.6107 9.45959C17.5915 9.30137 17.5739 9.14372 17.673 8.89973C17.7034 8.83634 17.7351 8.7658 17.79 8.68635C17.8379 8.60574 17.9143 8.51623 17.9802 8.44935C18.1213 8.30926 18.2828 8.20627 18.4835 8.20394C18.6946 8.18464 19.0409 8.3026 19.2357 8.63785C19.3326 8.79841 19.3903 9.01661 19.3901 9.23789C19.3891 9.45069 19.3308 9.6298 19.2144 9.77829C19.0991 9.92703 18.9174 10.0383 18.7219 10.0919C18.526 10.1476 18.3251 10.1478 18.1508 10.1331C17.8018 10.0935 17.5622 9.98559 17.4966 10.065C17.4394 10.1265 17.5591 10.3973 17.971 10.6424C18.177 10.7557 18.4566 10.8583 18.7947 10.8644C19.1286 10.8718 19.528 10.7749 19.8704 10.508C20.2157 10.2473 20.4602 9.81281 20.532 9.37965C20.607 8.95613 20.5671 8.50201 20.39 8.08789C20.2154 7.67536 19.9066 7.32755 19.5465 7.11043Z" fill="#202020"/>
<path d="M14.1186 35.1558C14.6247 35.4227 15.195 35.4977 15.6485 35.3449C16.0977 35.2048 16.4131 34.8838 16.5218 34.5662C16.6314 34.246 16.5719 33.9942 16.5283 33.8447C16.4793 33.6921 16.4307 33.6226 16.4088 33.6285C16.3846 33.6349 16.3873 33.7183 16.3881 33.8667C16.3867 34.0124 16.3847 34.235 16.2654 34.4544C16.1501 34.6707 15.8922 34.8761 15.5415 34.9464C15.1984 35.022 14.7751 34.9332 14.3844 34.6855C13.4796 34.1244 7.16356 26.3832 6.96776 25.9362C6.83447 25.6338 6.79781 25.3469 6.86569 25.0849C6.90057 24.9478 6.9551 24.8276 7.04292 24.701C7.13071 24.572 7.2453 24.4391 7.37281 24.3088C7.64699 24.0346 11.3281 20.9282 13.8704 19.1432C14.1716 18.9338 14.4672 18.7283 14.7564 18.5272C15.0253 18.3373 15.2774 18.1964 15.4321 18.1673C15.5089 18.1517 15.5442 18.1578 15.5734 18.1667C15.6026 18.1739 15.689 18.2199 15.7385 18.2668C15.8537 18.366 15.9512 18.5307 15.9976 18.7052C16.0184 18.7847 16.03 18.8657 16.0325 18.9427C16.0346 18.9819 16.0312 19.0179 16.0295 19.0551L16.0077 19.2082C15.9725 19.4105 15.9162 19.607 15.8364 19.7977C15.2814 21.0977 12.2043 23.8223 11.6931 24.7122C11.56 24.9462 11.4543 25.2914 11.5059 25.6339C11.5301 25.8011 11.5835 25.954 11.6497 26.0838C11.6677 26.123 11.6801 26.1451 11.6895 26.1602C12.8523 28.1581 13.7673 29.7298 15.0062 31.713C15.59 32.6624 15.8715 33.1653 16.0489 33.4099C16.2192 33.6521 16.317 33.6548 16.4088 33.6285C16.5007 33.6022 16.5837 33.5618 16.5559 33.2237C16.5241 32.8933 16.364 32.2952 15.8692 31.2462C15.1661 29.7832 13.7775 27.2479 12.9318 25.7052L12.8708 25.5944L12.8401 25.5387C12.8276 25.5171 12.8199 25.5015 12.8218 25.5008C12.8112 25.477 12.8095 25.4643 12.8089 25.4584C12.8116 25.4523 12.8068 25.4369 12.8513 25.3563C13.0988 24.8994 16.4269 21.9294 17.1122 20.3388C17.2313 20.0575 17.322 19.752 17.3764 19.4339L17.41 19.1931C17.4177 19.0976 17.4232 19.0001 17.4195 18.9051C17.4139 18.7141 17.3859 18.526 17.337 18.3422C17.227 17.9425 17.014 17.5413 16.6466 17.2199C16.4552 17.0591 16.2592 16.9324 15.9745 16.8425C15.6894 16.754 15.3805 16.7611 15.1289 16.8204C14.6208 16.9443 14.2792 17.1915 13.97 17.4033C13.6801 17.6098 13.3838 17.8208 13.0818 18.0358C10.4462 19.936 6.63877 23.358 6.51686 23.4868C6.35724 23.6595 6.20087 23.8467 6.06038 24.0675C5.91746 24.2886 5.80075 24.5567 5.74431 24.8268C5.61755 25.382 5.73948 25.9595 5.9585 26.403C6.32018 27.157 12.9128 34.5397 14.1186 35.1558Z" fill="#202020"/>
<path d="M28.9124 19.9486C29.3109 22.2797 32.9568 24.9829 33.4375 25.871C33.5602 26.0932 29.9037 31.9676 29.7329 33.7383C29.705 34.0765 29.7881 34.1168 29.8799 34.1431C29.9718 34.1695 30.0696 34.1667 30.2399 33.9246C30.2646 33.8905 34.6628 26.9759 34.783 26.1485C34.8345 25.806 34.7289 25.4609 34.5958 25.2269C33.8252 23.8857 30.1675 21.1272 30.2564 19.4574C30.2588 19.3803 30.2705 19.2994 30.2912 19.2198C30.3376 19.0454 30.4351 18.8806 30.5503 18.7814C30.5999 18.7345 30.6862 18.6886 30.7154 18.6813C30.7447 18.6724 30.7799 18.6663 30.8567 18.6818C31.0114 18.711 31.2635 18.852 31.5325 19.0419C34.7601 21.286 38.7495 24.6569 38.916 24.8235C39.0435 24.9538 39.1581 25.0866 39.2459 25.2156C39.3337 25.3423 39.3883 25.4624 39.4231 25.5996C39.6708 26.5557 38.9093 27.2194 33.046 34.0932C32.6632 34.5622 32.3057 34.9514 31.9045 35.2002C31.5138 35.4479 31.0904 35.5367 30.7474 35.4611C30.3966 35.3908 30.1387 35.1854 30.0234 34.9691C29.904 34.7496 29.9021 34.527 29.9007 34.3814C29.9015 34.2329 29.9042 34.1494 29.8799 34.1431C29.858 34.1373 29.8095 34.2067 29.7605 34.3593C29.7168 34.5088 29.6574 34.7605 29.767 35.0809C29.8757 35.3984 30.1911 35.7195 30.6403 35.8596C31.0938 36.0124 31.6642 35.9374 32.1702 35.6705C32.6784 35.4108 33.127 34.9767 33.5423 34.5305C39.8064 28.0068 40.9066 26.9271 40.5445 25.3414C40.4881 25.0713 40.3714 24.8033 40.2285 24.5821C40.088 24.3613 39.9316 24.1741 39.772 24.0014C39.5195 23.7347 35.6568 20.295 32.3188 17.9179C32.0096 17.7062 31.668 17.459 31.1599 17.335C30.9083 17.2758 30.5995 17.2686 30.3143 17.3571C30.0296 17.447 29.8336 17.5737 29.6422 17.7345C29.2748 18.0559 29.0618 18.4572 28.9519 18.8568C28.9029 19.0407 28.8749 19.2287 28.8693 19.4196C28.8657 19.5147 28.8711 19.6122 28.8788 19.7076L28.9124 19.9486Z" fill="#202020"/>
<path d="M16.7321 38.9327C16.9056 39.014 17.0841 39.0422 17.7256 37.9737C18.8886 36.0576 28.9075 15.7884 28.5375 15.5864C28.043 15.3162 19.0547 31.3673 16.8381 37.5549C16.4226 38.733 16.5586 38.8513 16.7321 38.9327Z" fill="#202020"/>
</svg>
