<svg width="18" height="20" viewBox="0 0 18 20" fill="none" xmlns="http://www.w3.org/2000/svg">
<path fill-rule="evenodd" clip-rule="evenodd" d="M4.48568 2.58404C5.69313 1.45709 7.31801 0.833984 9.00028 0.833984C10.6825 0.833984 12.3073 1.45709 13.5148 2.58404C14.7244 3.71298 15.4169 5.25822 15.4169 6.88399C15.4169 9.18399 15.9934 10.7568 16.6323 11.802L16.6423 11.8184C16.9873 12.383 17.2583 12.8266 17.4407 13.1472C17.532 13.3077 17.6136 13.4594 17.6737 13.5919C17.7036 13.6578 17.7368 13.7379 17.7629 13.8242C17.7834 13.8925 17.8276 14.0517 17.8106 14.2455C17.8003 14.3644 17.7753 14.5811 17.6504 14.804C17.5254 15.0268 17.3535 15.161 17.2574 15.232C17.1164 15.336 16.9758 15.3828 16.9007 15.4046C16.8147 15.4294 16.7315 15.4442 16.663 15.4539C16.5262 15.4732 16.3691 15.4829 16.208 15.4888C15.8876 15.5007 15.4415 15.5007 14.8832 15.5007H3.11727C2.55893 15.5007 2.11295 15.5007 1.79241 15.4888C1.63136 15.4829 1.47424 15.4732 1.33752 15.4539C1.26892 15.4442 1.18583 15.4294 1.09985 15.4046C1.02463 15.3828 0.884008 15.336 0.74308 15.232C0.647004 15.161 0.475111 15.0268 0.350105 14.804C0.225099 14.5811 0.20023 14.3644 0.189826 14.2455C0.172886 14.0517 0.217014 13.8925 0.23763 13.8242C0.263636 13.7379 0.296883 13.6578 0.326757 13.5919C0.386799 13.4594 0.468538 13.3077 0.559765 13.1472C0.742062 12.8266 1.01311 12.3831 1.35806 11.8187L1.36824 11.802C2.00702 10.7568 2.58356 9.18399 2.58356 6.88399C2.58356 5.25822 3.27611 3.71298 4.48568 2.58404ZM9.00028 2.66732C7.76507 2.66732 6.59206 3.12587 5.7366 3.92431C4.88329 4.72073 4.4169 5.78686 4.4169 6.88399C4.4169 9.50868 3.75375 11.4143 2.93257 12.7581C2.7103 13.1217 2.52734 13.4212 2.38081 13.6659C2.5933 13.6673 2.84419 13.6673 3.13911 13.6673H14.8614C15.1562 13.6673 15.4071 13.6673 15.6196 13.6659C15.4731 13.4212 15.2902 13.1217 15.0679 12.7581C14.2467 11.4143 13.5836 9.50868 13.5836 6.88399C13.5836 5.78686 13.1172 4.72073 12.2639 3.92431C11.4084 3.12587 10.2354 2.66732 9.00028 2.66732ZM5.33356 18.2507C5.33356 17.7444 5.74397 17.334 6.25023 17.334H11.7503C12.2565 17.334 12.6669 17.7444 12.6669 18.2507C12.6669 18.7569 12.2565 19.1673 11.7503 19.1673H6.25023C5.74397 19.1673 5.33356 18.7569 5.33356 18.2507Z" fill="#79788E"/>
</svg>
