<svg width="22" height="22" viewBox="0 0 22 22" fill="none" xmlns="http://www.w3.org/2000/svg">
<path fill-rule="evenodd" clip-rule="evenodd" d="M6.03424 2.84303C7.36243 1.60338 9.1498 0.917969 11.0003 0.917969C12.8507 0.917969 14.6381 1.60338 15.9662 2.84303C17.2968 4.08486 18.0586 5.78463 18.0586 7.57297C18.0586 10.103 18.6928 11.8331 19.3955 12.9828L19.4065 13.0008C19.786 13.6219 20.0842 14.1098 20.2847 14.4625C20.3852 14.6391 20.475 14.8059 20.541 14.9517C20.5739 15.0242 20.6105 15.1123 20.6392 15.2072C20.6617 15.2824 20.7103 15.4574 20.6917 15.6706C20.6803 15.8015 20.6529 16.0397 20.5154 16.285C20.3779 16.5301 20.1888 16.6777 20.0832 16.7558C19.9281 16.8702 19.7734 16.9216 19.6907 16.9456C19.5961 16.973 19.5047 16.9892 19.4293 16.9999C19.2788 17.0211 19.106 17.0317 18.9288 17.0383C18.5763 17.0513 18.0856 17.0513 17.4715 17.0513H4.52899C3.91481 17.0513 3.42423 17.0513 3.07164 17.0383C2.89448 17.0317 2.72165 17.0211 2.57126 16.9999C2.4958 16.9892 2.4044 16.973 2.30982 16.9456C2.22709 16.9216 2.0724 16.8702 1.91738 16.7558C1.81169 16.6777 1.62261 16.5301 1.4851 16.285C1.3476 16.0397 1.32024 15.8015 1.3088 15.6706C1.29016 15.4574 1.3387 15.2824 1.36138 15.2072C1.38999 15.1123 1.42656 15.0242 1.45942 14.9517C1.52547 14.8059 1.61538 14.6391 1.71573 14.4625C1.91626 14.1098 2.21441 13.622 2.59386 13.0011L2.60505 12.9828C3.30771 11.8331 3.94191 10.103 3.94191 7.57297C3.94191 5.78463 4.7037 4.08486 6.03424 2.84303ZM11.0003 2.93464C9.64156 2.93464 8.35126 3.43904 7.41025 4.31732C6.4716 5.19339 5.95857 6.36614 5.95857 7.57297C5.95857 10.4601 5.22912 12.5564 4.32581 14.0345C4.08132 14.4345 3.88007 14.7639 3.71888 15.0331C3.95262 15.0346 4.2286 15.0346 4.55301 15.0346H17.4475C17.7719 15.0346 18.0478 15.0346 18.2816 15.0331C18.1204 14.7639 17.9192 14.4345 17.6747 14.0345C16.7714 12.5564 16.042 10.4601 16.042 7.57297C16.042 6.36614 15.5289 5.19339 14.5903 4.31732C13.6492 3.43904 12.3589 2.93464 11.0003 2.93464ZM6.96691 20.0763C6.96691 19.5194 7.41836 19.068 7.97524 19.068H14.0253C14.5821 19.068 15.0336 19.5194 15.0336 20.0763C15.0336 20.6332 14.5821 21.0846 14.0253 21.0846H7.97524C7.41836 21.0846 6.96691 20.6332 6.96691 20.0763Z" fill="#111111"/>
</svg>
