<svg width="20" height="20" viewBox="0 0 20 20" fill="none" xmlns="http://www.w3.org/2000/svg">
<g clip-path="url(#clip0_42_842)">
<path d="M3.33333 5.83329C3.33333 5.39127 3.50893 4.96734 3.82149 4.65478C4.13405 4.34222 4.55797 4.16663 5 4.16663H15C15.442 4.16663 15.8659 4.34222 16.1785 4.65478C16.4911 4.96734 16.6667 5.39127 16.6667 5.83329V15.8333C16.6667 16.2753 16.4911 16.6992 16.1785 17.0118C15.8659 17.3244 15.442 17.5 15 17.5H5C4.55797 17.5 4.13405 17.3244 3.82149 17.0118C3.50893 16.6992 3.33333 16.2753 3.33333 15.8333V5.83329Z" stroke="#1C2E3D" stroke-width="1.5" stroke-linecap="round" stroke-linejoin="round"/>
<path d="M13.3333 2.5V5.83333" stroke="#1C2E3D" stroke-width="1.5" stroke-linecap="round" stroke-linejoin="round"/>
<path d="M6.66667 2.5V5.83333" stroke="#1C2E3D" stroke-width="1.5" stroke-linecap="round" stroke-linejoin="round"/>
<path d="M3.33333 9.16663H16.6667" stroke="#1C2E3D" stroke-width="1.5" stroke-linecap="round" stroke-linejoin="round"/>
<path d="M5.83333 11.6666H5.84417" stroke="#1C2E3D" stroke-width="1.5" stroke-linecap="round" stroke-linejoin="round"/>
<path d="M8.34167 11.6666H8.34542" stroke="#1C2E3D" stroke-width="1.5" stroke-linecap="round" stroke-linejoin="round"/>
<path d="M10.8417 11.6666H10.8454" stroke="#1C2E3D" stroke-width="1.5" stroke-linecap="round" stroke-linejoin="round"/>
<path d="M13.3458 11.6666H13.3496" stroke="#1C2E3D" stroke-width="1.5" stroke-linecap="round" stroke-linejoin="round"/>
<path d="M10.8458 14.1666H10.8496" stroke="#1C2E3D" stroke-width="1.5" stroke-linecap="round" stroke-linejoin="round"/>
<path d="M5.84167 14.1666H5.84542" stroke="#1C2E3D" stroke-width="1.5" stroke-linecap="round" stroke-linejoin="round"/>
<path d="M8.34167 14.1666H8.34542" stroke="#1C2E3D" stroke-width="1.5" stroke-linecap="round" stroke-linejoin="round"/>
</g>
<defs>
<clipPath id="clip0_42_842">
<rect width="20" height="20" fill="white"/>
</clipPath>
</defs>
</svg>
