<svg width="4" height="20" viewBox="0 0 4 20" fill="none" xmlns="http://www.w3.org/2000/svg">
<path d="M3.83317 10.0007C3.83317 8.98813 3.01236 8.16732 1.99984 8.16732C0.987315 8.16732 0.166504 8.98813 0.166504 10.0007C0.166504 11.0132 0.987315 11.834 1.99984 11.834C3.01236 11.834 3.83317 11.0132 3.83317 10.0007Z" fill="#00A264"/>
<path d="M3.83317 17.3327C3.83317 16.3202 3.01236 15.4993 1.99984 15.4993C0.987315 15.4993 0.166504 16.3202 0.166504 17.3327C0.166504 18.3452 0.987315 19.166 1.99984 19.166C3.01236 19.166 3.83317 18.3452 3.83317 17.3327Z" fill="#00A264"/>
<path d="M3.83317 2.66667C3.83317 1.65414 3.01236 0.833333 1.99984 0.833333C0.987315 0.833333 0.166504 1.65414 0.166504 2.66667C0.166504 3.67919 0.987315 4.5 1.99984 4.5C3.01236 4.5 3.83317 3.67919 3.83317 2.66667Z" fill="#00A264"/>
</svg>
