<svg width="16" height="16" viewBox="0 0 16 16" fill="none" xmlns="http://www.w3.org/2000/svg">
<path d="M1.33337 14.6663H4.66671L13.4167 5.91627C13.6356 5.6974 13.8092 5.43756 13.9276 5.15159C14.0461 4.86563 14.1071 4.55913 14.1071 4.2496C14.1071 3.94007 14.0461 3.63357 13.9276 3.34761C13.8092 3.06164 13.6356 2.8018 13.4167 2.58293C13.1978 2.36406 12.938 2.19045 12.652 2.072C12.3661 1.95354 12.0596 1.89258 11.75 1.89258C11.4405 1.89258 11.134 1.95354 10.848 2.072C10.5621 2.19045 10.3022 2.36406 10.0834 2.58293L1.33337 11.3329V14.6663Z" stroke="#00A264" stroke-width="2" stroke-linecap="round" stroke-linejoin="round"/>
<path d="M9.25 3.41602L12.5833 6.74935" stroke="#00A264" stroke-width="2" stroke-linecap="round" stroke-linejoin="round"/>
</svg>
