<svg width="18" height="18" viewBox="0 0 18 18" fill="none" xmlns="http://www.w3.org/2000/svg">
<path d="M7.82097 7.82227C7.50845 8.13489 7.33293 8.55885 7.33301 9.00089C7.33309 9.44293 7.50876 9.86684 7.82138 10.1793C8.13401 10.4919 8.55797 10.6674 9.00001 10.6673C9.44205 10.6672 9.86595 10.4916 10.1785 10.1789" stroke="#18251B" stroke-width="2" stroke-linecap="round" stroke-linejoin="round"/>
<path d="M12.9008 12.8942C11.7319 13.6256 10.3789 14.0091 9 14C6 14 3.5 12.3334 1.5 9.00003C2.56 7.23336 3.76 5.93503 5.1 5.10503M7.48333 4.15002C7.98253 4.04897 8.49068 3.99871 9 4.00003C12 4.00003 14.5 5.66669 16.5 9.00003C15.945 9.92503 15.3508 10.7225 14.7183 11.3917" stroke="#18251B" stroke-width="1.5" stroke-linecap="round" stroke-linejoin="round"/>
<path d="M1.5 1.5L16.5 16.5" stroke="#18251B" stroke-width="1.5" stroke-linecap="round" stroke-linejoin="round"/>
</svg>
