<svg width="14" height="18" viewBox="0 0 14 18" fill="none" xmlns="http://www.w3.org/2000/svg">
<path d="M8.6665 1.5V4.83333C8.6665 5.05435 8.7543 5.26631 8.91058 5.42259C9.06686 5.57887 9.27882 5.66667 9.49984 5.66667H12.8332" stroke="white" stroke-width="1.5" stroke-linecap="round" stroke-linejoin="round"/>
<path d="M11.1665 16.5H2.83317C2.39114 16.5 1.96722 16.3244 1.65466 16.0118C1.3421 15.6993 1.1665 15.2754 1.1665 14.8333V3.16667C1.1665 2.72464 1.3421 2.30072 1.65466 1.98816C1.96722 1.67559 2.39114 1.5 2.83317 1.5H8.6665L12.8332 5.66667V14.8333C12.8332 15.2754 12.6576 15.6993 12.345 16.0118C12.0325 16.3244 11.6085 16.5 11.1665 16.5Z" stroke="white" stroke-width="1.5" stroke-linecap="round" stroke-linejoin="round"/>
<path d="M6.1665 9.41699C6.1665 9.08547 6.03481 8.76753 5.80039 8.53311C5.56597 8.29869 5.24802 8.16699 4.9165 8.16699C4.58498 8.16699 4.26704 8.29869 4.03262 8.53311C3.7982 8.76753 3.6665 9.08547 3.6665 9.41699V11.917C3.6665 12.2485 3.7982 12.5665 4.03262 12.8009C4.26704 13.0353 4.58498 13.167 4.9165 13.167C5.24802 13.167 5.56597 13.0353 5.80039 12.8009C6.03481 12.5665 6.1665 12.2485 6.1665 11.917" stroke="white" stroke-width="1.5" stroke-linecap="round" stroke-linejoin="round"/>
<path d="M7.8335 8.16699L9.0835 13.167L10.3335 8.16699" stroke="white" stroke-width="1.5" stroke-linecap="round" stroke-linejoin="round"/>
</svg>
