<svg width="22" height="22" viewBox="0 0 22 22" fill="none" xmlns="http://www.w3.org/2000/svg">
<path d="M5.5 6.1875H12.375C12.5573 6.1875 12.7322 6.11507 12.8611 5.98614C12.9901 5.8572 13.0625 5.68234 13.0625 5.5C13.0625 5.31766 12.9901 5.1428 12.8611 5.01386C12.7322 4.88493 12.5573 4.8125 12.375 4.8125H5.5C5.31766 4.8125 5.1428 4.88493 5.01386 5.01386C4.88493 5.1428 4.8125 5.31766 4.8125 5.5C4.8125 5.68234 4.88493 5.8572 5.01386 5.98614C5.1428 6.11507 5.31766 6.1875 5.5 6.1875Z" fill="white"/>
<path d="M5.5 8.9375H12.375C12.5573 8.9375 12.7322 8.86507 12.8611 8.73614C12.9901 8.6072 13.0625 8.43234 13.0625 8.25C13.0625 8.06766 12.9901 7.8928 12.8611 7.76386C12.7322 7.63493 12.5573 7.5625 12.375 7.5625H5.5C5.31766 7.5625 5.1428 7.63493 5.01386 7.76386C4.88493 7.8928 4.8125 8.06766 4.8125 8.25C4.8125 8.43234 4.88493 8.6072 5.01386 8.73614C5.1428 8.86507 5.31766 8.9375 5.5 8.9375Z" fill="white"/>
<path d="M8.25 10.3125H5.5C5.31766 10.3125 5.1428 10.3849 5.01386 10.5139C4.88493 10.6428 4.8125 10.8177 4.8125 11C4.8125 11.1823 4.88493 11.3572 5.01386 11.4861C5.1428 11.6151 5.31766 11.6875 5.5 11.6875H8.25C8.43234 11.6875 8.6072 11.6151 8.73614 11.4861C8.86507 11.3572 8.9375 11.1823 8.9375 11C8.9375 10.8177 8.86507 10.6428 8.73614 10.5139C8.6072 10.3849 8.43234 10.3125 8.25 10.3125Z" fill="white"/>
<path d="M19.9375 9.22212C19.9382 8.95124 19.8853 8.68289 19.7817 8.4326C19.6781 8.18231 19.5259 7.95504 19.3339 7.76394C18.9409 7.38892 18.4186 7.17969 17.8753 7.17969C17.3321 7.17969 16.8098 7.38892 16.4168 7.76394L15.8125 8.36825V3.4375C15.8125 2.89049 15.5952 2.36589 15.2084 1.97909C14.8216 1.5923 14.297 1.375 13.75 1.375H4.125C3.57799 1.375 3.05339 1.5923 2.66659 1.97909C2.2798 2.36589 2.0625 2.89049 2.0625 3.4375V18.5625C2.0625 19.1095 2.2798 19.6341 2.66659 20.0209C3.05339 20.4077 3.57799 20.625 4.125 20.625H13.75C14.297 20.625 14.8216 20.4077 15.2084 20.0209C15.5952 19.6341 15.8125 19.1095 15.8125 18.5625V14.201L19.3332 10.681C19.5255 10.4899 19.6779 10.2626 19.7817 10.0122C19.8854 9.76173 19.9384 9.49319 19.9375 9.22212ZM14.4375 18.5625C14.4375 18.7448 14.3651 18.9197 14.2361 19.0486C14.1072 19.1776 13.9323 19.25 13.75 19.25H4.125C3.94266 19.25 3.7678 19.1776 3.63886 19.0486C3.50993 18.9197 3.4375 18.7448 3.4375 18.5625V3.4375C3.4375 3.25516 3.50993 3.0803 3.63886 2.95136C3.7678 2.82243 3.94266 2.75 4.125 2.75H13.75C13.9323 2.75 14.1072 2.82243 14.2361 2.95136C14.3651 3.0803 14.4375 3.25516 14.4375 3.4375V9.74325L9.94056 14.2395C9.8465 14.3336 9.78178 14.453 9.75425 14.5833L9.23725 17.0452C9.21607 17.1453 9.2175 17.2489 9.24145 17.3484C9.26541 17.4479 9.31127 17.5408 9.3757 17.6203C9.44013 17.6998 9.5215 17.764 9.61387 17.808C9.70624 17.8521 9.80728 17.875 9.90963 17.875C9.9572 17.8749 10.0046 17.8701 10.0513 17.8606L12.5132 17.3429C12.6436 17.3154 12.7631 17.2504 12.8569 17.1559L14.4382 15.5746L14.4375 18.5625ZM18.3611 9.70819L12.0313 16.0394L10.7999 16.2979L11.0584 15.0673L17.3896 8.73606C17.5203 8.6106 17.6945 8.54054 17.8757 8.54054C18.0569 8.54054 18.231 8.6106 18.3618 8.73606C18.4906 8.86499 18.563 9.03982 18.563 9.22212C18.563 9.40442 18.49 9.57926 18.3611 9.70819Z" fill="white"/>
</svg>
