<svg width="22" height="22" viewBox="0 0 22 22" fill="none" xmlns="http://www.w3.org/2000/svg">
<path fill-rule="evenodd" clip-rule="evenodd" d="M8.12353 4.25398C7.57812 4.48682 7.06662 4.78473 6.5982 5.13582L4.66679 4.9259C4.35604 4.89199 4.04895 5.0194 3.85279 5.26232C3.27162 5.98557 2.79862 6.79774 2.45579 7.6759C2.34212 7.96832 2.3852 8.2974 2.57037 8.5504L3.71896 10.1197C3.68504 10.4085 3.6667 10.7027 3.6667 11.0007C3.6667 11.2986 3.68504 11.5928 3.71896 11.8825L2.57037 13.4509C2.3852 13.7039 2.34212 14.033 2.45579 14.3254C2.79862 15.2036 3.27162 16.0157 3.85279 16.739C4.04895 16.9819 4.35604 17.1093 4.66679 17.0754L6.59912 16.8655C7.06662 17.2166 7.57812 17.5145 8.12353 17.7473L8.90728 19.5257C9.03286 19.8126 9.29778 20.0142 9.6067 20.0619C10.0604 20.1316 10.5261 20.1673 11 20.1673C11.474 20.1673 11.9396 20.1316 12.3934 20.0619C12.7023 20.0142 12.9672 19.8126 13.0928 19.5257L13.8775 17.7473C14.422 17.5145 14.9335 17.2166 15.4019 16.8655L17.3333 17.0754C17.644 17.1093 17.9511 16.9819 18.1473 16.739C18.7285 16.0157 19.2015 15.2036 19.5443 14.3254C19.658 14.033 19.6149 13.7039 19.4297 13.4509L18.2811 11.8816C18.315 11.5928 18.3334 11.2986 18.3334 11.0007C18.3334 10.7027 18.315 10.4085 18.2811 10.1188L19.4297 8.5504C19.6149 8.2974 19.658 7.96832 19.5443 7.6759C19.2015 6.79774 18.7285 5.98557 18.1473 5.26232C17.9511 5.0194 17.644 4.89199 17.3333 4.9259L15.4009 5.13582C14.9334 4.78473 14.422 4.48682 13.8765 4.25398L13.0928 2.47565C12.9672 2.18873 12.7023 1.98707 12.3934 1.9394C11.9396 1.86973 11.474 1.83398 11 1.83398C10.5261 1.83398 10.0604 1.86973 9.6067 1.9394C9.29778 1.98707 9.03286 2.18873 8.90728 2.47565L8.12353 4.25398ZM9.1227 5.82974C9.35828 5.74449 9.54804 5.56665 9.64887 5.3384L10.373 3.6939C10.5802 3.67648 10.7892 3.66732 11 3.66732C11.2109 3.66732 11.4199 3.67648 11.6261 3.6939L12.3512 5.3384C12.452 5.56665 12.6418 5.74449 12.8774 5.82974C13.4879 6.05157 14.048 6.37882 14.5365 6.78948C14.7272 6.95082 14.9765 7.02599 15.2249 6.9994L17.0134 6.80506C17.2526 7.14606 17.4625 7.50907 17.6413 7.88949L16.5798 9.34057C16.4322 9.54132 16.3735 9.79432 16.4166 10.0409C16.4716 10.3526 16.5 10.6734 16.5 11.0007C16.5 11.3279 16.4716 11.6487 16.4166 11.9604C16.3735 12.207 16.4322 12.46 16.5798 12.6607L17.6413 14.1118C17.4625 14.4922 17.2526 14.8552 17.0134 15.1962L15.2249 15.0019C14.9765 14.9753 14.7272 15.0505 14.5356 15.2118C14.0479 15.6225 13.4879 15.9497 12.8774 16.1716C12.6418 16.2568 12.452 16.4347 12.3512 16.6629L11.627 18.3074C11.4199 18.3248 11.2109 18.334 11 18.334C10.7892 18.334 10.5802 18.3248 10.374 18.3074L9.64887 16.6629C9.54804 16.4347 9.35828 16.2568 9.1227 16.1716C8.5122 15.9497 7.95212 15.6225 7.46353 15.2118C7.27287 15.0505 7.02354 14.9753 6.77512 15.0019L4.9867 15.1962C4.74745 14.8552 4.53754 14.4922 4.35879 14.1118L5.42028 12.6607C5.56786 12.46 5.62654 12.207 5.58346 11.9604C5.52846 11.6487 5.50004 11.3279 5.50004 11.0007C5.50004 10.6734 5.52846 10.3526 5.58346 10.0409C5.62654 9.79432 5.56786 9.54132 5.42028 9.34057L4.35879 7.88949C4.53754 7.50907 4.74745 7.14606 4.9867 6.80506L6.77512 6.9994C7.02354 7.02599 7.27287 6.95082 7.46446 6.78948C7.95212 6.37882 8.5122 6.05157 9.1227 5.82974ZM11 7.33398C8.97604 7.33398 7.33337 8.97665 7.33337 11.0007C7.33337 13.0247 8.97604 14.6673 11 14.6673C13.024 14.6673 14.6667 13.0247 14.6667 11.0007C14.6667 8.97665 13.024 7.33398 11 7.33398ZM11 9.16732C12.012 9.16732 12.8334 9.98865 12.8334 11.0007C12.8334 12.0127 12.012 12.834 11 12.834C9.98804 12.834 9.1667 12.0127 9.1667 11.0007C9.1667 9.98865 9.98804 9.16732 11 9.16732Z" fill="#111111"/>
</svg>
