<svg width="24" height="24" viewBox="0 0 24 24" fill="none" xmlns="http://www.w3.org/2000/svg">
<g clip-path="url(#clip0_89_142)">
<g clip-path="url(#clip1_89_142)">
<path d="M12.3825 10.7337L15.4438 7.67249L5.74876 2.32125C5.36946 2.11047 4.94249 2.00038 4.50857 2.00147C4.07465 2.00257 3.64824 2.11481 3.27001 2.3275L12.3825 10.7337ZM2.35876 3.1875C2.13626 3.55125 2.00876 3.9675 2.00876 4.40875V19.5912C2.00876 20.0187 2.12501 20.4262 2.33501 20.7825L11.4988 11.6187L2.35876 3.1875ZM19.5025 9.91249L16.5825 8.30124L13.3013 11.5812L17.3225 15.29L19.5038 14.0862C20.2888 13.6512 20.7588 12.8712 20.7588 11.9987C20.758 11.5698 20.6407 11.1492 20.4194 10.7817C20.1982 10.4143 19.8812 10.1138 19.5025 9.91249ZM12.4175 12.4662L3.22876 21.655C3.61666 21.88 4.05659 21.9998 4.50501 22.0025C4.93001 22.0025 5.35751 21.895 5.74876 21.6787L16.17 15.9275L12.4175 12.4662Z" fill="#1C2E3D"/>
</g>
</g>
<defs>
<clipPath id="clip0_89_142">
<rect width="24" height="24" fill="white"/>
</clipPath>
<clipPath id="clip1_89_142">
<rect width="20" height="20" fill="white" transform="translate(2 2)"/>
</clipPath>
</defs>
</svg>
