<svg width="16" height="18" viewBox="0 0 16 18" fill="none" xmlns="http://www.w3.org/2000/svg">
<path d="M5.5 8.16699C5.5 8.83003 5.76339 9.46592 6.23223 9.93476C6.70107 10.4036 7.33696 10.667 8 10.667C8.66304 10.667 9.29893 10.4036 9.76777 9.93476C10.2366 9.46592 10.5 8.83003 10.5 8.16699C10.5 7.50395 10.2366 6.86807 9.76777 6.39922C9.29893 5.93038 8.66304 5.66699 8 5.66699C7.33696 5.66699 6.70107 5.93038 6.23223 6.39922C5.76339 6.86807 5.5 7.50395 5.5 8.16699Z" stroke="#5C64FE" stroke-width="1.5" stroke-linecap="round" stroke-linejoin="round"/>
<path d="M12.7138 12.8806L9.17801 16.4164C8.8655 16.7286 8.44183 16.904 8.00009 16.904C7.55836 16.904 7.13469 16.7286 6.82218 16.4164L3.28551 12.8806C2.3532 11.9482 1.71829 10.7603 1.46108 9.46714C1.20388 8.17394 1.33592 6.83352 1.84051 5.61536C2.34511 4.39721 3.19959 3.35604 4.29591 2.62351C5.39223 1.89098 6.68115 1.5 7.99968 1.5C9.31821 1.5 10.6071 1.89098 11.7034 2.62351C12.7998 3.35604 13.6542 4.39721 14.1588 5.61536C14.6634 6.83352 14.7955 8.17394 14.5383 9.46714C14.2811 10.7603 13.6462 11.9482 12.7138 12.8806Z" stroke="#5C64FE" stroke-width="1.5" stroke-linecap="round" stroke-linejoin="round"/>
</svg>
