<svg width="22" height="22" viewBox="0 0 22 22" fill="none" xmlns="http://www.w3.org/2000/svg">
<path d="M2.93268 12.6739C2.66813 9.82628 3.88432 7.24691 5.90152 5.60817C6.68782 4.96884 7.8636 5.51631 7.8636 6.52675C7.8636 6.89785 7.68723 7.23956 7.40064 7.47105C5.97133 8.6358 5.11154 10.473 5.32098 12.5012C5.59288 15.143 7.70928 17.2815 10.3474 17.5754C13.7903 17.9612 16.715 15.2643 16.715 11.8986C16.715 10.1129 15.8883 8.51455 14.5986 7.46737C14.312 7.23589 14.1393 6.89418 14.1393 6.52675C14.1393 5.52734 15.2967 4.96149 16.0757 5.58613C17.9202 7.07422 19.1033 9.34862 19.1033 11.8986C19.1033 16.5613 15.1424 20.3201 10.4062 19.9784C6.48941 19.7028 3.29643 16.5833 2.93268 12.6739ZM10.9978 2C10.3364 2 9.80363 2.53645 9.80363 3.19415V8.69459C9.80363 9.35597 10.3401 9.88874 10.9978 9.88874C11.6555 9.88874 12.1919 9.35229 12.1919 8.69459V3.19415C12.1919 2.53645 11.6592 2 10.9978 2Z" fill="white"/>
</svg>
