<svg width="29" height="24" viewBox="0 0 29 24" fill="none" xmlns="http://www.w3.org/2000/svg">
<path d="M7.11 0H13.32C11.64 2.04 10.29 4.29 9.27 6.75C8.31 9.21 7.89 11.28 8.01 12.96L6.48 10.98C8.34 10.98 9.9 11.58 11.16 12.78C12.42 13.98 13.05 15.45 13.05 17.19C13.05 18.99 12.45 20.52 11.25 21.78C10.05 22.98 8.55 23.58 6.75 23.58C4.83 23.58 3.21 22.89 1.89 21.51C0.63 20.07 0 18.27 0 16.11C0 14.49 0.33 12.72 0.99 10.8C1.65 8.82 2.52 6.9 3.6 5.04C4.68 3.12 5.85 1.44 7.11 0ZM22.59 0H28.8C27.12 2.04 25.77 4.29 24.75 6.75C23.79 9.21 23.37 11.28 23.49 12.96L21.96 10.98C23.82 10.98 25.38 11.58 26.64 12.78C27.9 13.98 28.53 15.45 28.53 17.19C28.53 18.99 27.93 20.52 26.73 21.78C25.53 22.98 24.03 23.58 22.23 23.58C20.31 23.58 18.69 22.89 17.37 21.51C16.11 20.07 15.48 18.27 15.48 16.11C15.48 14.49 15.81 12.72 16.47 10.8C17.13 8.82 18 6.9 19.08 5.04C20.16 3.12 21.33 1.44 22.59 0Z" fill="#5C64FE" fill-opacity="0.4"/>
</svg>
