<svg width="16" height="16" viewBox="0 0 16 16" fill="none" xmlns="http://www.w3.org/2000/svg">
<path d="M7.20462 0.449219C3.48558 0.449219 0.456085 3.47871 0.456085 7.19776C0.456085 10.9168 3.48558 13.9522 7.20462 13.9522C8.79314 13.9522 10.2541 13.3955 11.4087 12.4712L14.2198 15.2808C14.3616 15.4167 14.5511 15.4918 14.7476 15.4898C14.9441 15.4878 15.132 15.4089 15.271 15.27C15.4101 15.1312 15.4892 14.9434 15.4915 14.7469C15.4938 14.5504 15.419 14.3609 15.2832 14.2188L12.4722 11.4078C13.3973 10.2514 13.9546 8.78811 13.9546 7.19776C13.9546 3.47871 10.9237 0.449219 7.20462 0.449219ZM7.20462 1.94924C10.113 1.94924 12.4532 4.28939 12.4532 7.19776C12.4532 10.1061 10.113 12.4522 7.20462 12.4522C4.29624 12.4522 1.95609 10.1061 1.95609 7.19776C1.95609 4.28939 4.29624 1.94924 7.20462 1.94924Z" fill="white"/>
</svg>
