<svg width="24" height="24" viewBox="0 0 24 24" fill="none" xmlns="http://www.w3.org/2000/svg">
<g clip-path="url(#clip0_157_171)">
<path d="M12 3C14.3358 5.06658 17.3844 6.14257 20.5 6C20.9535 7.54302 21.0923 9.16147 20.9081 10.7592C20.7238 12.3569 20.2203 13.9013 19.4274 15.3005C18.6344 16.6998 17.5683 17.9254 16.2924 18.9045C15.0165 19.8836 13.5567 20.5962 12 21C10.4432 20.5962 8.98344 19.8836 7.7075 18.9045C6.43157 17.9254 5.36547 16.6998 4.57255 15.3005C3.77964 13.9013 3.27609 12.3569 3.09183 10.7592C2.90757 9.16147 3.04636 7.54302 3.49996 6C6.61548 6.14257 9.66413 5.06658 12 3Z" stroke="#00A264" stroke-width="2" stroke-linecap="round" stroke-linejoin="round"/>
<path d="M11 11C11 11.2652 11.1054 11.5196 11.2929 11.7071C11.4804 11.8946 11.7348 12 12 12C12.2652 12 12.5196 11.8946 12.7071 11.7071C12.8946 11.5196 13 11.2652 13 11C13 10.7348 12.8946 10.4804 12.7071 10.2929C12.5196 10.1054 12.2652 10 12 10C11.7348 10 11.4804 10.1054 11.2929 10.2929C11.1054 10.4804 11 10.7348 11 11Z" stroke="#00A264" stroke-width="2" stroke-linecap="round" stroke-linejoin="round"/>
<path d="M12 12V14.5" stroke="#00A264" stroke-width="2" stroke-linecap="round" stroke-linejoin="round"/>
</g>
<defs>
<clipPath id="clip0_157_171">
<rect width="24" height="24" fill="white"/>
</clipPath>
</defs>
</svg>
