<svg width="20" height="20" viewBox="0 0 20 20" fill="none" xmlns="http://www.w3.org/2000/svg">
<path d="M10 1C12.3358 3.06658 15.3845 4.14257 18.5 4C18.9536 5.54302 19.0924 7.16147 18.9081 8.75918C18.7239 10.3569 18.2203 11.9013 17.4274 13.3005C16.6345 14.6998 15.5684 15.9254 14.2925 16.9045C13.0165 17.8836 11.5568 18.5962 10 19C8.44321 18.5962 6.98348 17.8836 5.70755 16.9045C4.43161 15.9254 3.36551 14.6998 2.5726 13.3005C1.77968 11.9013 1.27614 10.3569 1.09188 8.75918C0.907619 7.16147 1.04641 5.54302 1.5 4C4.61553 4.14257 7.66417 3.06658 10 1Z" stroke="#00A264" stroke-width="2" stroke-linecap="round" stroke-linejoin="round"/>
<path d="M9 9C9 9.26522 9.10536 9.51957 9.29289 9.70711C9.48043 9.89464 9.73478 10 10 10C10.2652 10 10.5196 9.89464 10.7071 9.70711C10.8946 9.51957 11 9.26522 11 9C11 8.73478 10.8946 8.48043 10.7071 8.29289C10.5196 8.10536 10.2652 8 10 8C9.73478 8 9.48043 8.10536 9.29289 8.29289C9.10536 8.48043 9 8.73478 9 9Z" stroke="#00A264" stroke-width="2" stroke-linecap="round" stroke-linejoin="round"/>
<path d="M10 10V12.5" stroke="#00A264" stroke-width="2" stroke-linecap="round" stroke-linejoin="round"/>
</svg>
