<svg width="20" height="16" viewBox="0 0 20 16" fill="none" xmlns="http://www.w3.org/2000/svg">
<path d="M0.833313 1.58268C0.833313 1.07577 1.24398 0.666016 1.74998 0.666016H13.6666C14.1726 0.666016 14.5833 1.07577 14.5833 1.58268C14.5833 2.0896 14.1726 2.49935 13.6666 2.49935H1.74998C1.24398 2.49935 0.833313 2.0896 0.833313 1.58268ZM18.25 7.08268H1.74998C1.24398 7.08268 0.833313 7.49243 0.833313 7.99935C0.833313 8.50627 1.24398 8.91602 1.74998 8.91602H18.25C18.756 8.91602 19.1666 8.50627 19.1666 7.99935C19.1666 7.49243 18.756 7.08268 18.25 7.08268ZM9.99998 13.4993H1.74998C1.24398 13.4993 0.833313 13.9091 0.833313 14.416C0.833313 14.9229 1.24398 15.3327 1.74998 15.3327H9.99998C10.506 15.3327 10.9166 14.9229 10.9166 14.416C10.9166 13.9091 10.506 13.4993 9.99998 13.4993Z" fill="#2B2A3F"/>
</svg>
