<svg width="20" height="16" viewBox="0 0 20 16" fill="none" xmlns="http://www.w3.org/2000/svg">
<path d="M19.167 14.4154C19.167 14.9223 18.7563 15.332 18.2503 15.332L6.33366 15.332C5.82766 15.332 5.41699 14.9223 5.41699 14.4154C5.41699 13.9084 5.82766 13.4987 6.33366 13.4987L18.2503 13.4987C18.7563 13.4987 19.167 13.9084 19.167 14.4154ZM1.75032 8.91536L18.2503 8.91536C18.7563 8.91536 19.167 8.50561 19.167 7.9987C19.167 7.49178 18.7563 7.08203 18.2503 7.08203L1.75032 7.08203C1.24433 7.08203 0.833658 7.49178 0.833658 7.9987C0.833658 8.50561 1.24433 8.91536 1.75032 8.91536ZM10.0003 2.4987L18.2503 2.4987C18.7563 2.4987 19.167 2.08895 19.167 1.58203C19.167 1.07511 18.7563 0.665364 18.2503 0.665364L10.0003 0.665364C9.49433 0.665364 9.08366 1.07511 9.08366 1.58203C9.08366 2.08895 9.49433 2.4987 10.0003 2.4987Z" fill="#2B2A3F"/>
</svg>
