<svg width="16" height="15" viewBox="0 0 16 15" fill="none" xmlns="http://www.w3.org/2000/svg">
<path d="M5.49533 4.87192L1.242 5.48842L1.16666 5.50375C1.05262 5.53402 0.94866 5.594 0.865391 5.67757C0.782123 5.76115 0.722532 5.86532 0.692705 5.97945C0.662877 6.09357 0.663881 6.21357 0.695615 6.32719C0.727348 6.4408 0.788674 6.54396 0.87333 6.62613L3.95466 9.62468L3.228 13.8602L3.21933 13.9336C3.21235 14.0515 3.23684 14.1691 3.2903 14.2745C3.34375 14.3798 3.42425 14.4691 3.52355 14.5331C3.62285 14.5971 3.73739 14.6336 3.85543 14.6388C3.97347 14.644 4.09077 14.6177 4.19533 14.5627L7.99933 12.5632L11.7947 14.5627L11.8613 14.5934C11.9714 14.6367 12.091 14.65 12.2078 14.6319C12.3247 14.6138 12.4346 14.5649 12.5264 14.4903C12.6181 14.4156 12.6884 14.318 12.7299 14.2072C12.7714 14.0965 12.7827 13.9768 12.7627 13.8602L12.0353 9.62468L15.118 6.62546L15.17 6.56881C15.2443 6.47734 15.293 6.36783 15.3111 6.25142C15.3293 6.13501 15.3163 6.01587 15.2734 5.90613C15.2305 5.7964 15.1593 5.69999 15.067 5.62673C14.9747 5.55347 14.8646 5.50598 14.748 5.48909L10.4947 4.87192L8.59333 1.01959C8.53831 0.907973 8.45314 0.813985 8.34746 0.748261C8.24177 0.682538 8.11979 0.647705 7.99533 0.647705C7.87087 0.647705 7.74889 0.682538 7.6432 0.748261C7.53752 0.813985 7.45235 0.907973 7.39733 1.01959L5.49533 4.87192Z" fill="#FFC271"/>
</svg>
