<svg width="18" height="18" viewBox="0 0 18 18" fill="none" xmlns="http://www.w3.org/2000/svg">
<g clip-path="url(#clip0_310_1738)">
<mask id="mask0_310_1738" style="mask-type:luminance" maskUnits="userSpaceOnUse" x="0" y="0" width="18" height="18">
<path d="M0 0H18V18H0V0Z" fill="white"/>
</mask>
<g mask="url(#mask0_310_1738)">
<path fill-rule="evenodd" clip-rule="evenodd" d="M6.75 0C7.28256 0 7.71429 0.431725 7.71429 0.964286V2.57143H10.6018H10.6134H12.5357C13.0683 2.57143 13.5 3.00316 13.5 3.53571C13.5 4.06827 13.0683 4.5 12.5357 4.5H11.0506L8.01845 8.03758L8.69094 8.82271C9.03738 9.22719 8.99033 9.83592 8.58586 10.1824C8.18139 10.5288 7.57265 10.4818 7.2262 10.0773L6.74834 9.51937L3.62499 13.1633C3.27842 13.5676 2.66966 13.6144 2.26531 13.2678C1.86096 12.9213 1.81413 12.3125 2.16072 11.9082L5.47876 8.03712L2.44914 4.5H0.964286C0.431725 4.5 0 4.06827 0 3.53571C0 3.00316 0.431725 2.57143 0.964286 2.57143H2.88656H2.89827H5.78571V0.964286C5.78571 0.431725 6.21744 0 6.75 0ZM8.51057 4.5L6.74887 6.55532L4.98844 4.5H6.75H8.51057ZM12.7187 8.48745C12.7455 8.4095 12.8188 8.35714 12.9011 8.35714C12.9835 8.35714 13.0568 8.4095 13.0836 8.48745L14.5818 12.8571H11.2205L12.7187 8.48745ZM14.9079 7.86196L16.8367 13.4874C16.8418 13.5014 16.8467 13.5156 16.8512 13.5298L17.946 16.723C18.1187 17.2268 17.8503 17.7751 17.3466 17.9479C16.8427 18.1206 16.2944 17.8523 16.1217 17.3484L15.243 14.7857H10.5593L9.68067 17.3484C9.50795 17.8523 8.95954 18.1206 8.45576 17.9479C7.95199 17.7751 7.68362 17.2268 7.85634 16.723L8.95113 13.5298C8.95566 13.5156 8.9605 13.5014 8.96567 13.4874L10.8944 7.86196C11.1884 7.00451 11.9947 6.42857 12.9011 6.42857C13.8077 6.42857 14.6139 7.00451 14.9079 7.86196Z" fill="#00A264"/>
</g>
</g>
<defs>
<clipPath id="clip0_310_1738">
<rect width="18" height="18" fill="white"/>
</clipPath>
</defs>
</svg>
