<svg width="32" height="32" viewBox="0 0 32 32" fill="none" xmlns="http://www.w3.org/2000/svg">
<g clip-path="url(#clip0_324_922)">
<path d="M6.66669 9.33333C6.66669 10.7478 7.22859 12.1044 8.22878 13.1046C9.22898 14.1048 10.5855 14.6667 12 14.6667C13.4145 14.6667 14.7711 14.1048 15.7713 13.1046C16.7715 12.1044 17.3334 10.7478 17.3334 9.33333C17.3334 7.91885 16.7715 6.56229 15.7713 5.5621C14.7711 4.5619 13.4145 4 12 4C10.5855 4 9.22898 4.5619 8.22878 5.5621C7.22859 6.56229 6.66669 7.91885 6.66669 9.33333Z" stroke="#00A264" stroke-width="3" stroke-linecap="round" stroke-linejoin="round"/>
<path d="M4 28V25.3333C4 23.9188 4.5619 22.5623 5.5621 21.5621C6.56229 20.5619 7.91885 20 9.33333 20H14.6667C16.0812 20 17.4377 20.5619 18.4379 21.5621C19.4381 22.5623 20 23.9188 20 25.3333V28" stroke="#00A264" stroke-width="3" stroke-linecap="round" stroke-linejoin="round"/>
<path d="M21.3333 4.17383C22.4805 4.46756 23.4974 5.13476 24.2235 6.07024C24.9496 7.00572 25.3438 8.15627 25.3438 9.34049C25.3438 10.5247 24.9496 11.6753 24.2235 12.6107C23.4974 13.5462 22.4805 14.2134 21.3333 14.5072" stroke="#00A264" stroke-width="3" stroke-linecap="round" stroke-linejoin="round"/>
<path d="M28 27.9992V25.3326C27.9932 24.1554 27.5972 23.0136 26.8737 22.0851C26.1502 21.1566 25.1398 20.4935 24 20.1992" stroke="#00A264" stroke-width="3" stroke-linecap="round" stroke-linejoin="round"/>
</g>
<defs>
<clipPath id="clip0_324_922">
<rect width="32" height="32" fill="white"/>
</clipPath>
</defs>
</svg>
