<svg width="22" height="22" viewBox="0 0 22 22" fill="none" xmlns="http://www.w3.org/2000/svg">
<path fill-rule="evenodd" clip-rule="evenodd" d="M17.4166 15.5833C17.4166 14.0644 16.1856 12.8333 14.6666 12.8333C12.6316 12.8333 9.36831 12.8333 7.33331 12.8333C5.8144 12.8333 4.58331 14.0644 4.58331 15.5833V18.3333C4.58331 18.8393 4.99398 19.25 5.49998 19.25H16.5C17.006 19.25 17.4166 18.8393 17.4166 18.3333V15.5833ZM15.5833 17.4167V15.5833C15.5833 15.0773 15.1726 14.6667 14.6666 14.6667C12.6316 14.6667 9.36831 14.6667 7.33331 14.6667C6.82731 14.6667 6.41665 15.0773 6.41665 15.5833V17.4167H15.5833ZM14.6666 5.5C14.6666 3.98108 13.4356 2.75 11.9166 2.75C11.3263 2.75 10.6736 2.75 10.0833 2.75C8.5644 2.75 7.33331 3.98108 7.33331 5.5V8.25C7.33331 9.76892 8.5644 11 10.0833 11H11.9166C13.4356 11 14.6666 9.76892 14.6666 8.25V5.5ZM12.8333 5.5C12.8333 4.994 12.4226 4.58333 11.9166 4.58333C11.3263 4.58333 10.6736 4.58333 10.0833 4.58333C9.57731 4.58333 9.16665 4.994 9.16665 5.5V8.25C9.16665 8.756 9.57731 9.16667 10.0833 9.16667H11.9166C12.4226 9.16667 12.8333 8.756 12.8333 8.25V5.5Z" fill="white"/>
</svg>
