<svg width="124" height="30" viewBox="0 0 124 30" fill="none" xmlns="http://www.w3.org/2000/svg">
<path d="M55.416 22.36H42.928V18.356H55.416V22.36ZM59.672 26H54.492L48.5 9.508H49.732L43.712 26H38.7L46.512 5.98H51.86L59.672 26ZM64.0912 26H62.0472V5.84H64.1192V16.396H63.5872C63.7552 15.4813 64.1192 14.6787 64.6792 13.988C65.2579 13.2973 65.9672 12.756 66.8072 12.364C67.6659 11.972 68.5899 11.776 69.5792 11.776C70.9232 11.776 72.1179 12.1027 73.1632 12.756C74.2085 13.3907 75.0205 14.2587 75.5992 15.36C76.1965 16.4613 76.4952 17.712 76.4952 19.112C76.4952 20.5307 76.1872 21.7907 75.5712 22.892C74.9739 23.9933 74.1339 24.8613 73.0512 25.496C71.9872 26.1307 70.7645 26.448 69.3832 26.448C68.1325 26.448 67.0312 26.196 66.0792 25.692C65.1459 25.1693 64.4365 24.4693 63.9512 23.592C63.4845 22.696 63.3165 21.6973 63.4472 20.596L63.8392 20.036C63.9139 20.9133 64.1939 21.7067 64.6792 22.416C65.1645 23.1067 65.7992 23.648 66.5832 24.04C67.3672 24.432 68.2259 24.628 69.1592 24.628C70.1859 24.628 71.0819 24.3947 71.8472 23.928C72.6125 23.4427 73.2099 22.7893 73.6392 21.968C74.0872 21.128 74.3112 20.176 74.3112 19.112C74.3112 18.048 74.0965 17.1053 73.6672 16.284C73.2565 15.444 72.6779 14.7907 71.9312 14.324C71.1845 13.8387 70.3165 13.596 69.3272 13.596C68.3192 13.596 67.4232 13.848 66.6392 14.352C65.8552 14.856 65.2392 15.556 64.7912 16.452C64.3432 17.3293 64.1192 18.356 64.1192 19.532V22.22L64.0912 22.248V26ZM91.1339 22.08L92.5899 23.452C91.8619 24.3853 90.9846 25.1227 89.9579 25.664C88.9313 26.1867 87.7553 26.448 86.4299 26.448C84.9739 26.448 83.6673 26.1307 82.5099 25.496C81.3713 24.8613 80.4753 23.9933 79.8219 22.892C79.1686 21.7907 78.8419 20.5307 78.8419 19.112C78.8419 17.6933 79.1499 16.4333 79.7659 15.332C80.4006 14.2307 81.2686 13.3627 82.3699 12.728C83.4713 12.0933 84.7219 11.776 86.1219 11.776C87.4659 11.776 88.6513 12.0933 89.6779 12.728C90.7233 13.344 91.5446 14.1933 92.1419 15.276C92.7393 16.3587 93.0379 17.6093 93.0379 19.028V19.196H90.9099V19.028C90.9099 17.9453 90.6953 17.0027 90.2659 16.2C89.8553 15.3787 89.2859 14.744 88.5579 14.296C87.8486 13.8293 87.0366 13.596 86.1219 13.596C85.1139 13.596 84.2273 13.8293 83.4619 14.296C82.6966 14.7627 82.0993 15.4067 81.6699 16.228C81.2406 17.0493 81.0259 18.0013 81.0259 19.084C81.0259 20.1667 81.2593 21.128 81.7259 21.968C82.1926 22.808 82.8273 23.4613 83.6299 23.928C84.4513 24.3947 85.3939 24.628 86.4579 24.628C88.3993 24.628 89.9579 23.7787 91.1339 22.08ZM93.0379 19.84H80.5779V18.132H92.5899L93.0379 19.028V19.84ZM106.115 26H94.6355V24.264L103.343 13.96H94.9155V12.224H105.835V13.96L97.1275 24.264H106.115V26ZM114.956 26.448C113.556 26.448 112.306 26.1307 111.204 25.496C110.103 24.8613 109.235 23.9933 108.6 22.892C107.984 21.7907 107.676 20.5307 107.676 19.112C107.676 17.6933 107.984 16.4333 108.6 15.332C109.235 14.2307 110.103 13.3627 111.204 12.728C112.306 12.0933 113.556 11.776 114.956 11.776C116.375 11.776 117.626 12.0933 118.708 12.728C119.81 13.3627 120.668 14.2307 121.284 15.332C121.919 16.4333 122.236 17.6933 122.236 19.112C122.236 20.5307 121.919 21.7907 121.284 22.892C120.668 23.9933 119.81 24.8613 118.708 25.496C117.626 26.1307 116.375 26.448 114.956 26.448ZM114.956 24.628C115.964 24.628 116.851 24.3947 117.616 23.928C118.382 23.4613 118.979 22.8173 119.408 21.996C119.838 21.156 120.052 20.1947 120.052 19.112C120.052 18.0293 119.838 17.0773 119.408 16.256C118.979 15.416 118.382 14.7627 117.616 14.296C116.851 13.8293 115.964 13.596 114.956 13.596C113.948 13.596 113.062 13.8293 112.296 14.296C111.531 14.7627 110.934 15.416 110.504 16.256C110.075 17.0773 109.86 18.0293 109.86 19.112C109.86 20.1947 110.075 21.156 110.504 21.996C110.934 22.8173 111.531 23.4613 112.296 23.928C113.062 24.3947 113.948 24.628 114.956 24.628Z" fill="#1C2E3D"/>
<g clip-path="url(#clip0_73_722)">
<path d="M24.9364 10.0002C24.9746 10.4127 25.0001 10.8279 25.0001 11.2501C25.0001 18.8319 18.8317 25.0002 11.25 25.0002C10.8278 25.0002 10.4126 24.9748 10.0001 24.9365V30.0001H30V10.0002H24.9364Z" fill="#00A264"/>
<path d="M11.25 0C5.03665 0 0 5.03665 0 11.25C0 16.1464 3.13352 20.3002 7.5 21.8457V7.5H21.8457C20.3002 3.13352 16.1464 0 11.25 0Z" fill="#00A264"/>
<path d="M22.4269 10.0002H10.0001V22.4259C10.4104 22.4708 10.8278 22.4989 11.25 22.4989C17.4634 22.4989 22.5 17.4635 22.5 11.25C22.5 10.8279 22.4719 10.4116 22.4269 10.0002Z" fill="#00A264"/>
</g>
<defs>
<clipPath id="clip0_73_722">
<rect width="30" height="30" fill="white"/>
</clipPath>
</defs>
</svg>
