<svg width="150" height="30" viewBox="0 0 150 30" fill="none" xmlns="http://www.w3.org/2000/svg">
<path d="M114.529 0.125488L109.07 24.8299L103.82 0.125488H93.9033L104.154 29.9336H114.028L124.445 0.125488H114.529Z" fill="#8D998C"/>
<path d="M140.084 30H150L139.75 0.191895H129.875L119.458 30H129.374L131.252 21.1041H138.278L140.084 30ZM131.386 20.4599L134.831 4.13665L138.144 20.4599H131.386Z" fill="#8D998C"/>
<path d="M22.2776 13.4246L9.83287 20.5639V0.125488H0V29.9336H9.83287V21.308L22.2776 14.1687V29.9336H32.111V0.125488H22.2776V13.4246Z" fill="#8D998C"/>
<path d="M46.3624 14.981H58.7374V14.4134H46.3624V6.95542H60.9871V0H36.5289V29.8082H61.5701V22.8527H46.3624V14.981Z" fill="#8D998C"/>
<path d="M93.147 10.0605C93.147 3.93311 88.9788 0 80.3538 0H65.8957V29.8082H75.7285V18.9392H78.4736L79.7795 20.121C80.8896 21.1253 81.7765 22.3488 82.3834 23.7133C82.9902 25.0777 83.3037 26.553 83.3037 28.0448V29.761H92.8589C92.859 27.113 91.8723 24.5588 90.0892 22.5909C88.3061 20.623 85.8529 19.3807 83.2025 19.1035L81.4753 18.9196C89.5353 18.7719 93.147 16.2761 93.147 10.0605ZM79.8128 18.3919H75.7285V6.95542H78.5211C80.6036 6.95542 83.7713 7.59899 83.7713 12.3877C83.7706 16.8191 82.1051 18.3919 79.8128 18.3919Z" fill="#8D998C"/>
</svg>
