<svg width="98" height="30" viewBox="0 0 98 30" fill="none" xmlns="http://www.w3.org/2000/svg">
<g clip-path="url(#clip0_73_534)">
<path d="M18.4854 29.9999L16.2001 22.7285H5.77421L3.48865 29.9999H0L2.32537 22.7285H0.561379V19.31H3.36827L9.42305 0.198608H12.5508L21.9353 29.9999H18.4854ZM10.9873 6.1987L6.85692 19.311H15.1172L10.9873 6.1987Z" fill="#8D998C"/>
<path d="M40.6802 19.1125C38.6883 21.2849 36.249 22.53 33.3622 22.8478L30.1537 26.6624H38.5343V29.9205H23.0167L29.3132 22.5695C26.8 21.9338 24.715 20.5894 23.0579 18.5364C21.4009 16.4833 20.5726 14.1326 20.5731 11.4842C20.5731 8.33197 21.7025 5.63652 23.9614 3.39783C26.2202 1.15914 28.9396 0.0397949 32.1193 0.0397949C35.3004 0.0397949 38.0204 1.15898 40.2792 3.39735C42.5381 5.63572 43.6676 8.33117 43.6678 11.4837C43.6678 14.3978 42.6719 16.9407 40.6802 19.1125ZM37.9336 5.70139C36.3296 4.09986 34.3916 3.2991 32.1193 3.2991C29.6062 3.2991 27.608 4.1468 26.1246 5.84219C24.6413 7.53758 23.8994 9.43107 23.8989 11.5227V12.039C23.9793 12.9666 24.2132 13.8805 24.6007 14.7808C24.9881 15.6811 25.5562 16.5023 26.3048 17.2445C26.9995 17.9338 27.7613 18.4701 28.5904 18.8536C29.4195 19.237 30.2616 19.4821 31.1167 19.5887C31.2769 19.5887 31.4303 19.5956 31.578 19.6085C31.7256 19.6214 31.8788 19.6284 32.039 19.6284C34.1506 19.6022 36.0619 18.8606 37.7732 17.4035C39.4844 15.9463 40.3398 13.9728 40.3393 11.483C40.3393 9.23234 39.5374 7.30538 37.9336 5.7021V5.70139Z" fill="#8D998C"/>
<path d="M59.8465 29.9204H58.9843C54.8942 29.8676 51.399 28.3775 48.4986 25.45C45.5982 22.5225 44.1479 19.0325 44.1477 14.98V0H47.4356V14.98C47.4356 17.8148 48.378 20.3313 50.2628 22.5297C52.1476 24.7281 54.5066 26.0526 57.34 26.5033V0H60.6692V29.9603C60.4009 29.9343 60.1273 29.9204 59.8465 29.9204Z" fill="#8D998C"/>
<path d="M76.9885 30V22.9669H67.0846V30H63.7554V22.9669H61.8313V19.7086H63.7559V15.0197C63.7559 10.967 65.2062 7.48358 68.1068 4.56932C71.0073 1.65505 74.5028 0.158394 78.593 0.0793457H80.2769V30H76.9885ZM76.9885 3.49667C74.1548 3.94753 71.7957 5.27199 69.9113 7.47004C68.0268 9.66809 67.0846 12.1846 67.0846 15.0197V19.7086H76.9885V3.49667Z" fill="#8D998C"/>
<path d="M86.4518 22.9272V26.6623H97.7995V29.9204H83.1236V22.9272H81.1987V19.6283H83.1236V0.0396729H98V3.29898H86.4518V19.629H98V22.928L86.4518 22.9272Z" fill="#8D998C"/>
</g>
<defs>
<clipPath id="clip0_73_534">
<rect width="98" height="30" fill="white"/>
</clipPath>
</defs>
</svg>
