<svg width="220" height="30" viewBox="0 0 220 30" fill="none" xmlns="http://www.w3.org/2000/svg">
<g clip-path="url(#clip0_73_517)">
<path d="M21.9282 0H17.0652C16.8961 0 16.8044 0.0520016 16.7199 0.198592C15.0662 3.06854 1.65499 26.5742 0 29.4437H4.81065L11.9526 16.8759L19.3482 3.87546H21.9282V29.4437H25.7964V0H21.9282Z" fill="#8D998C"/>
<path d="M75.638 12.6727H67.0213V16.5321H75.638V12.6727Z" fill="#8D998C"/>
<path d="M75.8171 25.6111H58.0147V29.4704H80.035V25.6111H75.8171Z" fill="#8D998C"/>
<path d="M58.011 0.0865479V21.3458H62.2437V3.94498H79.8752V0.0896859L58.011 0.0865479Z" fill="#8D998C"/>
<path d="M42.0613 20.9755V17.1036C42.2702 17.1036 42.4702 17.1036 42.6697 17.1036C44.2441 17.1139 45.6996 16.706 46.9834 15.7879C49.0087 14.339 50.0062 12.3576 49.7646 9.86195C49.5119 7.24931 48.039 5.49829 45.6634 4.48247C44.7739 4.10429 43.817 3.91135 42.8508 3.91538C38.8046 3.91 34.7585 3.90836 30.7126 3.91045H30.4035V0.039917H30.6625C34.7561 0.039917 38.8487 0.0400664 42.9403 0.0403653C45.2908 0.0403653 47.4955 0.584141 49.4752 1.88687C51.9219 3.49668 53.4038 5.76368 53.8847 8.65605C54.6102 13.0188 52.7074 17.1834 48.9483 19.5047C47.3251 20.5066 45.5489 20.9925 43.6367 20.9786C43.1192 20.9724 42.6008 20.9755 42.0613 20.9755Z" fill="#8D998C"/>
<path d="M33.3337 8.53455H33.0653V29.445H37.3218V8.53499L33.3337 8.53455Z" fill="#8D998C"/>
<path d="M84.529 8.50134H84.3054V29.4329H88.5547V8.50134H84.529Z" fill="#8D998C"/>
<path d="M105.874 25.4569C105.862 25.4448 105.85 25.4314 105.838 25.417C105.203 24.6478 104.567 23.8793 103.93 23.1115L102.063 20.857L101.38 20.0335C101.335 19.9802 101.294 19.925 101.241 19.8587C101.587 19.6951 101.912 19.5534 102.225 19.3916C105.888 17.4967 108.672 13.5055 107.769 8.53714C107.219 5.51118 105.618 3.20249 102.991 1.61913C101.091 0.476885 99.0062 0.0102156 96.8078 0.00887071C92.7132 0.00647983 88.6177 0.0063304 84.521 0.00842242C84.4472 0.00842242 84.373 0.0160433 84.3036 0.0196297V3.87492H96.4566C97.9828 3.87492 99.4244 4.21428 100.702 5.06782C102.983 6.59201 103.998 8.73752 103.609 11.4649C103.302 13.6167 102.048 15.1409 100.17 16.1648C98.9619 16.8247 97.6518 17.0685 96.2844 17.0367C96.1753 17.0367 96.0657 17.0367 95.94 17.0367V17.3057C95.94 18.0642 95.9333 18.8227 95.9463 19.5812C95.9504 19.7253 95.9971 19.865 96.0805 19.9824C98.4234 23.0846 100.77 26.1842 103.119 29.2813C103.153 29.3329 103.2 29.3745 103.256 29.4018C103.311 29.429 103.373 29.441 103.434 29.4364C104.877 29.4315 106.32 29.4337 107.764 29.4328C107.831 29.4328 107.898 29.4265 107.968 29.4234V27.9848L105.874 25.4569Z" fill="#8D998C"/>
<path d="M166.374 8.50134H166.15V29.4329H170.4V8.50134H166.374Z" fill="#8D998C"/>
<path d="M187.72 25.4572C187.708 25.4451 187.696 25.4316 187.684 25.4173C187.049 24.648 186.413 23.8795 185.776 23.1117L183.908 20.8573L183.225 20.0338C183.181 19.9804 183.14 19.9253 183.087 19.8589C183.433 19.6953 183.758 19.5537 184.071 19.3918C187.733 17.4969 190.518 13.5058 189.615 8.53738C189.064 5.51143 187.464 3.20273 184.836 1.61937C182.937 0.477132 180.853 0.0104622 178.655 0.00911738C174.559 0.0067265 170.464 0.0067265 166.368 0.00911738C166.294 0.00911738 166.22 0.0167383 166.15 0.0203246V3.87562H178.303C179.83 3.87562 181.271 4.21497 182.549 5.06852C184.83 6.5927 185.845 8.73822 185.456 11.4656C185.148 13.6174 183.895 15.1416 182.016 16.1655C180.809 16.8254 179.498 17.0692 178.131 17.0374C178.022 17.0374 177.913 17.0374 177.787 17.0374V17.3064C177.787 18.0649 177.78 18.8234 177.793 19.5819C177.797 19.726 177.844 19.8657 177.927 19.9831C180.27 23.0853 182.617 26.1849 184.966 29.282C185 29.3336 185.047 29.3751 185.103 29.4024C185.158 29.4297 185.22 29.4416 185.282 29.4371C186.725 29.4322 188.168 29.4344 189.611 29.4335C189.679 29.4335 189.745 29.4272 189.815 29.4241V27.9851L187.72 25.4572Z" fill="#8D998C"/>
<path d="M130.466 3.92921H134.886V0.0582275H127.844V3.92921H130.466Z" fill="#8D998C"/>
<path d="M120.088 25.605V29.4495H124.327V0.0546875H111.123V3.92746H120.088V25.605Z" fill="#8D998C"/>
<path d="M161.596 8.31794V0.0483398H157.367V0.403385C157.367 6.72487 157.367 13.0458 157.367 19.366C157.367 21.4838 156.574 23.2415 154.907 24.5456C152.942 26.0805 150.714 26.4459 148.332 25.8174C145.472 25.0634 143.418 22.6345 143.443 19.3979C143.468 16.2204 143.453 8.06376 143.45 3.91663H146.054V0.0550642H139.201V3.91663C139.201 4.58907 139.201 5.36281 139.201 6.20291V6.20829C139.201 10.5975 139.198 16.7691 139.208 19.453C139.204 20.07 139.251 20.6862 139.351 21.295C139.939 24.6603 141.788 27.1291 144.815 28.647C148.197 30.3433 151.694 30.4191 155.195 29.0204C157.476 28.1099 159.244 26.5656 160.419 24.382C161.25 22.8385 161.599 21.178 161.598 19.4315C161.595 15.7271 161.594 12.0226 161.596 8.31794Z" fill="#8D998C"/>
<path d="M198.073 0H202.938C203.107 0 203.199 0.0520016 203.283 0.198592C204.938 3.06765 218.348 26.5742 220.003 29.4437H215.191L208.049 16.8759L200.653 3.87546H198.073V29.4437H194.205V0H198.073Z" fill="#8D998C"/>
</g>
<defs>
<clipPath id="clip0_73_517">
<rect width="220" height="30" fill="white"/>
</clipPath>
</defs>
</svg>
