<svg width="61" height="30" viewBox="0 0 61 30" fill="none" xmlns="http://www.w3.org/2000/svg">
<g clip-path="url(#clip0_73_452)">
<path d="M7.29246 2.19159e-08H1.11388C0.967599 -2.92034e-05 0.822741 0.0291714 0.687585 0.0859338C0.55243 0.142696 0.429625 0.225908 0.326185 0.330816C0.222746 0.435724 0.140699 0.560273 0.0847308 0.697348C0.028763 0.834422 -2.87946e-05 0.981337 2.16091e-08 1.1297V24.4327C0.000116354 24.7322 0.11753 25.0194 0.326418 25.2312C0.535305 25.4429 0.81856 25.5618 1.11388 25.5617H7.29246C8.97041 25.5618 10.5797 24.8858 11.7662 23.6826C12.9528 22.4793 13.6194 20.8473 13.6195 19.1455V6.41691C13.6196 5.57422 13.4559 4.73978 13.138 3.96123C12.82 3.18268 12.354 2.47527 11.7664 1.8794C11.1789 1.28353 10.4814 0.810868 9.71376 0.488399C8.94611 0.165929 8.12335 -2.9195e-05 7.29246 2.19159e-08ZM11.392 19.1455C11.392 21.4369 9.55291 23.3032 7.29246 23.3032H2.22755V2.25918H7.29246C9.55291 2.25918 11.392 4.12436 11.392 6.41691V19.1455Z" fill="#8D998C"/>
<path d="M37.0271 2.19072e-08C36.7317 2.19072e-08 36.4484 0.119022 36.2395 0.330881C36.0306 0.542741 35.9132 0.830085 35.9132 1.1297V20.5722L25.6079 4.24138C25.4781 4.03579 25.2861 3.87839 25.0606 3.79276C24.8352 3.70714 24.5884 3.69789 24.3574 3.76641C24.1263 3.83493 23.9234 3.97753 23.7789 4.17284C23.6345 4.36816 23.5563 4.60568 23.5561 4.84983V24.4323C23.5561 24.7319 23.6734 25.0192 23.8823 25.2311C24.0912 25.4429 24.3746 25.562 24.67 25.562C24.9654 25.562 25.2487 25.4429 25.4576 25.2311C25.6665 25.0192 25.7839 24.7319 25.7839 24.4323V8.71079L36.0892 25.0416C36.219 25.2473 36.4111 25.4048 36.6366 25.4905C36.8621 25.5762 37.109 25.5854 37.3401 25.5169C37.5713 25.4483 37.7743 25.3056 37.9187 25.1101C38.0631 24.9146 38.1412 24.677 38.1412 24.4327V1.1297C38.1412 0.981327 38.1124 0.834407 38.0564 0.697331C38.0004 0.560255 37.9184 0.435708 37.8149 0.330803C37.7114 0.225898 37.5886 0.142689 37.4535 0.0859294C37.3183 0.0291698 37.1734 -2.91969e-05 37.0271 2.19072e-08Z" fill="#8D998C"/>
<path d="M41.48 0C41.3338 -2.87756e-09 41.1889 0.0292222 41.0538 0.0859976C40.9187 0.142773 40.7959 0.22599 40.6925 0.330895C40.5891 0.4358 40.507 0.560339 40.4511 0.697399C40.3951 0.834459 40.3664 0.981356 40.3664 1.1297V24.4327C40.3643 24.5824 40.3916 24.731 40.4466 24.8699C40.5017 25.0088 40.5834 25.1352 40.687 25.2417C40.7906 25.3483 40.9141 25.433 41.0503 25.4907C41.1864 25.5485 41.3326 25.5783 41.4802 25.5783C41.6278 25.5783 41.7739 25.5485 41.91 25.4907C42.0462 25.433 42.1697 25.3483 42.2733 25.2417C42.3769 25.1352 42.4586 25.0088 42.5137 24.8699C42.5687 24.731 42.596 24.5824 42.5939 24.4327V1.1297C42.5939 0.830085 42.4766 0.542741 42.2677 0.330881C42.0588 0.119022 41.7755 0 41.48 0Z" fill="#8D998C"/>
<path d="M59.8863 0H45.716C45.5697 -2.87756e-09 45.4249 0.0292222 45.2898 0.0859976C45.1546 0.142773 45.0319 0.22599 44.9284 0.330895C44.825 0.4358 44.743 0.560339 44.6871 0.697399C44.6311 0.834459 44.6023 0.981356 44.6023 1.1297V24.4327C44.6003 24.5824 44.6276 24.731 44.6826 24.8699C44.7376 25.0088 44.8193 25.1352 44.923 25.2417C45.0266 25.3483 45.1501 25.433 45.2862 25.4907C45.4224 25.5485 45.5685 25.5783 45.7161 25.5783C45.8637 25.5783 46.0098 25.5485 46.146 25.4907C46.2822 25.433 46.4056 25.3483 46.5093 25.2417C46.6129 25.1352 46.6946 25.0088 46.7496 24.8699C46.8047 24.731 46.832 24.5824 46.8299 24.4327V2.25918H51.6875V12.782C51.6916 13.0788 51.8108 13.3621 52.0192 13.5705C52.2276 13.779 52.5086 13.8958 52.8013 13.8958C53.094 13.8958 53.375 13.779 53.5834 13.5705C53.7918 13.3621 53.911 13.0788 53.9151 12.782V2.25918H58.7725V24.4327C58.7704 24.5824 58.7977 24.731 58.8527 24.8699C58.9078 25.0088 58.9895 25.1352 59.0931 25.2417C59.1967 25.3483 59.3202 25.433 59.4564 25.4907C59.5925 25.5485 59.7386 25.5783 59.8862 25.5783C60.0338 25.5783 60.1799 25.5485 60.3161 25.4907C60.4523 25.433 60.5757 25.3483 60.6794 25.2417C60.783 25.1352 60.8647 25.0088 60.9198 24.8699C60.9748 24.731 61.0021 24.5824 61 24.4327V1.1297C61 0.981356 60.9713 0.834459 60.9153 0.697399C60.8593 0.560339 60.7773 0.4358 60.6739 0.330895C60.5705 0.22599 60.4477 0.142773 60.3126 0.0859976C60.1774 0.0292222 60.0326 -2.87757e-09 59.8863 0Z" fill="#8D998C"/>
<path d="M21.3871 13.9108C21.5347 13.9129 21.6812 13.8852 21.8182 13.8294C21.9551 13.7736 22.0797 13.6907 22.1848 13.5856C22.2899 13.4805 22.3734 13.3553 22.4303 13.2172C22.4873 13.0791 22.5166 12.9309 22.5166 12.7812C22.5166 12.6315 22.4873 12.4833 22.4303 12.3452C22.3734 12.2071 22.2899 12.0819 22.1848 11.9768C22.0797 11.8717 21.9551 11.7888 21.8182 11.733C21.6812 11.6772 21.5347 11.6495 21.3871 11.6516H17.4813V2.25917H24.67C24.8176 2.26127 24.9641 2.2336 25.101 2.17778C25.238 2.12195 25.3626 2.03908 25.4677 1.93398C25.5728 1.82888 25.6562 1.70365 25.7132 1.56555C25.7702 1.42746 25.7995 1.27927 25.7995 1.12958C25.7995 0.979889 25.7702 0.831693 25.7132 0.693601C25.6562 0.555509 25.5728 0.430274 25.4677 0.325174C25.3626 0.220074 25.238 0.137204 25.101 0.081379C24.9641 0.0255544 24.8176 -0.00211137 24.67 -1.0827e-05H16.3674C16.072 -1.0827e-05 15.7887 0.119011 15.5798 0.330871C15.3709 0.54273 15.2535 0.830074 15.2535 1.12969V24.4327C15.2537 24.7322 15.3711 25.0194 15.58 25.2311C15.7889 25.4428 16.0721 25.5617 16.3674 25.5617H21.3871C21.5347 25.5638 21.6812 25.5362 21.8182 25.4803C21.9551 25.4245 22.0797 25.3416 22.1848 25.2365C22.2899 25.1314 22.3734 25.0062 22.4303 24.8681C22.4873 24.73 22.5166 24.5818 22.5166 24.4321C22.5166 24.2824 22.4873 24.1343 22.4303 23.9962C22.3734 23.8581 22.2899 23.7328 22.1848 23.6277C22.0797 23.5226 21.9551 23.4398 21.8182 23.3839C21.6812 23.3281 21.5347 23.3004 21.3871 23.3025H17.4813V13.9108H21.3871Z" fill="#8D998C"/>
<path d="M33.7429 0H31.3186V10.1973H33.7429V0Z" fill="#8D998C"/>
<path d="M32.2968 1.03917C32.2613 1.11022 32.2422 1.18848 32.2408 1.2681C32.2408 1.36264 32.2794 1.4127 32.3382 1.4127C32.397 1.4127 32.426 1.36932 32.4648 1.25986C32.5168 1.10858 32.5995 1.00981 32.73 1.00981C32.8835 1.00981 33.0007 1.13951 33.0007 1.35441C33.0021 1.43438 32.9866 1.51372 32.9553 1.58712L32.7914 1.54106C32.8197 1.48163 32.8343 1.41642 32.834 1.35041C32.834 1.26142 32.794 1.21693 32.7473 1.21693C32.6901 1.21693 32.6646 1.26832 32.6207 1.38578C32.562 1.54663 32.4795 1.62249 32.3527 1.62249C32.2022 1.62249 32.0741 1.5048 32.0741 1.25475C32.0731 1.16557 32.0918 1.0773 32.1289 0.99646L32.2968 1.03917Z" fill="#8D998C"/>
<path d="M32.8155 1.93795V1.69324H32.9862V2.39357H32.8155V2.14485H32.0877V1.93795H32.8155Z" fill="#8D998C"/>
<path d="M32.9739 2.50293C32.987 2.59375 32.9932 2.68545 32.9925 2.77723C32.9925 2.9125 32.9726 3.00705 32.9219 3.07201C32.8992 3.09992 32.8704 3.12204 32.8377 3.13661C32.8051 3.15118 32.7695 3.15777 32.7339 3.15588C32.6853 3.15517 32.638 3.13938 32.5985 3.11062C32.559 3.08187 32.5291 3.04153 32.5128 2.99503H32.5084C32.4832 3.05844 32.4233 3.09359 32.3406 3.11672C32.2393 3.14498 32.1212 3.17345 32.0872 3.19103V2.98102C32.1127 2.96611 32.186 2.94453 32.2965 2.91739C32.4071 2.89025 32.4391 2.85399 32.4406 2.77012V2.70782H32.0872V2.50382L32.9739 2.50293ZM32.5874 2.70693V2.78814C32.5874 2.89092 32.638 2.95165 32.7166 2.95165C32.7993 2.95165 32.8405 2.89492 32.842 2.80037C32.8426 2.76908 32.8403 2.73781 32.8352 2.70693H32.5874Z" fill="#8D998C"/>
<path d="M32.4674 3.84672V3.51146H32.2542V3.88588H32.0875V3.30457H32.9868V3.86697H32.8201V3.51102H32.6337V3.84628L32.4674 3.84672Z" fill="#8D998C"/>
<path d="M32.4674 4.56845V4.23318H32.2542V4.6076H32.0875V4.02673H32.9868V4.58891H32.8201V4.23296H32.6337V4.56822L32.4674 4.56845Z" fill="#8D998C"/>
<path d="M32.8155 4.93051V4.68579H32.9862V5.3859H32.8155V5.1374H32.0877V4.93051H32.8155Z" fill="#8D998C"/>
<path d="M32.2967 5.7755C32.2613 5.84641 32.2422 5.92452 32.2408 6.00398C32.2408 6.09853 32.2794 6.14858 32.3382 6.14858C32.397 6.14858 32.4259 6.10542 32.4648 5.99575C32.5167 5.84447 32.5994 5.74569 32.73 5.74569C32.8835 5.74569 33.0006 5.87561 33.0006 6.09052C33.0021 6.17041 32.9866 6.24969 32.9552 6.323L32.7914 6.27695C32.8197 6.21759 32.8342 6.15245 32.8339 6.08651C32.8339 5.99753 32.794 5.95303 32.7473 5.95303C32.69 5.95303 32.6646 6.00442 32.6207 6.12211C32.5619 6.28295 32.4794 6.35859 32.3527 6.35859C32.2022 6.35859 32.0741 6.24091 32.0741 5.99085C32.073 5.90175 32.0918 5.81354 32.1289 5.73279L32.2967 5.7755Z" fill="#8D998C"/>
<path d="M32.8155 6.67404V6.42932H32.9862V7.12943H32.8155V6.88116H32.0877V6.67404H32.8155Z" fill="#8D998C"/>
<path d="M32.0875 7.45985H32.4553L32.9859 7.17175V7.40824L32.7699 7.50145C32.7041 7.52993 32.6567 7.54884 32.5981 7.57175V7.57442C32.6541 7.59467 32.706 7.61625 32.7699 7.64339L32.9859 7.73527V7.96441L32.4621 7.6643H32.0875V7.45985Z" fill="#8D998C"/>
<path d="M32.9859 8.03955V8.24645H32.2581V8.60952H32.0875V8.03955H32.9859Z" fill="#8D998C"/>
<path d="M32.4674 9.2725V8.93724H32.2542V9.31166H32.0875V8.73035H32.9868V9.29275H32.8201V8.9368H32.6337V9.2725H32.4674Z" fill="#8D998C"/>
<path d="M10.0548 10.541V8.08228H0.288027V10.541H10.0548Z" fill="#8D998C"/>
<path d="M59.4117 20.723V18.2643H49.6449V20.723H59.4117Z" fill="#8D998C"/>
<path d="M50.1823 19.0776C50.271 19.0645 50.3605 19.0582 50.4501 19.0589C50.5817 19.0589 50.6745 19.0789 50.7377 19.1299C50.7649 19.1526 50.7866 19.1815 50.8008 19.2143C50.815 19.2471 50.8214 19.2828 50.8195 19.3185C50.8189 19.3674 50.8035 19.415 50.7755 19.4548C50.7474 19.4946 50.7079 19.5246 50.6625 19.541V19.545C50.7245 19.5703 50.7587 19.6306 50.7813 19.7136C50.809 19.8153 50.8366 19.933 50.8537 19.9677H50.6491C50.6346 19.9423 50.6135 19.8687 50.5872 19.7577C50.5609 19.6466 50.5251 19.6146 50.4433 19.6133H50.3826V19.9677H50.1834L50.1823 19.0776ZM50.3815 19.466H50.4606C50.5609 19.466 50.6203 19.4153 50.6203 19.3363C50.6203 19.2533 50.5648 19.2119 50.4725 19.2106C50.442 19.21 50.4115 19.2123 50.3815 19.2173V19.466Z" fill="#8D998C"/>
<path d="M51.1836 19.7359L51.1205 19.9672H50.9123L51.1836 19.0656H51.4469L51.7239 19.9672H51.5076L51.439 19.7359H51.1836ZM51.4093 19.5832L51.3539 19.3919C51.3381 19.3385 51.3223 19.2716 51.3089 19.2182H51.3071C51.294 19.2716 51.2808 19.3399 51.2663 19.3919L51.2135 19.5832H51.4093Z" fill="#8D998C"/>
<path d="M51.9079 19.9672L51.6969 19.0656H51.9119L51.9792 19.4375C51.999 19.5445 52.0174 19.66 52.0321 19.7519H52.0347C52.0492 19.6542 52.0703 19.5459 52.0926 19.4349L52.1679 19.0656H52.382L52.4533 19.4455C52.473 19.5512 52.4875 19.6475 52.5006 19.7479H52.5033C52.5167 19.6475 52.5364 19.5419 52.5548 19.4349L52.6274 19.0656H52.8319L52.6013 19.9672H52.3837L52.3085 19.5792C52.2914 19.4882 52.2769 19.4042 52.2664 19.3011H52.2637C52.248 19.4028 52.2335 19.4882 52.2122 19.5792L52.1277 19.9672H51.9079Z" fill="#8D998C"/>
<path d="M53.7681 19.9673C53.7497 19.9472 53.7312 19.9272 53.7102 19.9032C53.6399 19.9566 53.5539 19.9844 53.466 19.9822C53.2511 19.9822 53.1561 19.8522 53.1561 19.7265C53.1561 19.6075 53.2234 19.5219 53.325 19.4683V19.4629C53.283 19.4148 53.2591 19.3532 53.2577 19.2889C53.2577 19.1753 53.3454 19.0509 53.5242 19.0509C53.6613 19.0509 53.7655 19.1325 53.7655 19.2622C53.7655 19.3532 53.7128 19.4309 53.59 19.4938L53.5887 19.4992C53.64 19.5566 53.6942 19.6222 53.7376 19.6676C53.7767 19.6002 53.8023 19.5257 53.8128 19.4482H53.9923C53.9686 19.5846 53.9236 19.7012 53.8444 19.7908C53.8947 19.8482 53.946 19.9072 54.0015 19.9673H53.7681ZM53.6165 19.7893C53.561 19.733 53.4884 19.6513 53.416 19.5684C53.395 19.5816 53.3776 19.5999 53.3654 19.6216C53.3532 19.6434 53.3465 19.6679 53.3461 19.6929C53.346 19.7123 53.3498 19.7314 53.3574 19.7492C53.3649 19.767 53.3759 19.783 53.3897 19.7963C53.4036 19.8095 53.42 19.8198 53.4379 19.8264C53.4558 19.833 53.4749 19.8358 53.4939 19.8347C53.5389 19.8357 53.5827 19.8196 53.6165 19.7895V19.7893ZM53.4371 19.27C53.4371 19.3145 53.459 19.3557 53.4979 19.4C53.5623 19.3555 53.5955 19.3196 53.5955 19.2665C53.5955 19.2238 53.5702 19.1775 53.5176 19.1775C53.4649 19.1775 53.4371 19.2235 53.4371 19.2703V19.27Z" fill="#8D998C"/>
<path d="M54.3632 19.0776C54.4532 19.0644 54.544 19.0582 54.635 19.0589C54.8039 19.0589 54.9133 19.0896 54.9991 19.1552C55.0914 19.2249 55.1494 19.3359 55.1494 19.4952C55.1494 19.6676 55.0875 19.7866 55.0017 19.8602C54.9081 19.9392 54.7655 19.9766 54.5915 19.9766C54.5152 19.9772 54.4389 19.9727 54.3632 19.9632V19.0776ZM54.565 19.8135C54.5881 19.8171 54.6116 19.8184 54.635 19.8175C54.817 19.8189 54.9357 19.7172 54.9357 19.5018C54.937 19.3145 54.8289 19.2155 54.656 19.2155C54.6255 19.2148 54.595 19.2175 54.565 19.2235V19.8135Z" fill="#8D998C"/>
<path d="M55.8105 19.5859H55.4832V19.7997H55.8478V19.9668H55.2805V19.0656H55.8289V19.2328H55.4819V19.4202H55.8092L55.8105 19.5859Z" fill="#8D998C"/>
<path d="M55.986 19.9672V19.0656H56.2207L56.4054 19.3961C56.4604 19.4958 56.5089 19.599 56.5506 19.7052H56.5546C56.5419 19.5802 56.5362 19.4547 56.5374 19.3292V19.0656H56.7221V19.9672H56.5109L56.3212 19.6195C56.2644 19.5162 56.2131 19.41 56.1676 19.3011L56.1637 19.3025C56.1689 19.4215 56.1716 19.5485 56.1716 19.6958V19.9672H55.986Z" fill="#8D998C"/>
<path d="M57.0981 19.0656V19.9672H56.8963V19.0656H57.0981Z" fill="#8D998C"/>
<path d="M58.0242 19.6218C58.0203 19.5135 58.0163 19.3822 58.0163 19.2512H58.0124C57.9847 19.3662 57.9477 19.4948 57.9134 19.6004L57.8053 19.9522H57.6482L57.5533 19.6031C57.5243 19.4974 57.4938 19.3689 57.4728 19.2512H57.471C57.4657 19.3729 57.4618 19.5121 57.4552 19.6245L57.4394 19.9669H57.2516L57.3085 19.0652H57.5761L57.6638 19.3662C57.6917 19.4705 57.7193 19.5829 57.7391 19.6888H57.743C57.768 19.5842 57.7985 19.4663 57.8275 19.3649L57.9224 19.0652H58.1857L58.2344 19.9669H58.0369L58.0242 19.6218Z" fill="#8D998C"/>
<path d="M4.42658 9.69449C4.38929 9.7134 4.30528 9.73365 4.19604 9.73365C3.88543 9.73365 3.72552 9.53765 3.72552 9.27803C3.72552 8.96657 3.94488 8.79416 4.216 8.79416C4.29171 8.79145 4.36712 8.80526 4.43711 8.83465L4.39587 8.99816C4.34178 8.97545 4.28376 8.96396 4.22522 8.96435C4.06399 8.96435 3.93874 9.06312 3.93874 9.26579C3.93874 9.44844 4.04534 9.56323 4.22653 9.56323C4.28424 9.56315 4.34151 9.55307 4.39587 9.53342L4.42658 9.69449Z" fill="#8D998C"/>
<path d="M4.78193 9.48634L4.71787 9.72016H4.50729L4.78193 8.80981H5.04844L5.32702 9.72083H5.10767L5.03835 9.48701L4.78193 9.48634ZM5.00984 9.33217L4.9539 9.13885C4.93789 9.08479 4.92187 9.01716 4.90849 8.9631H4.90586C4.89248 9.01716 4.8791 9.08612 4.86462 9.13885L4.81132 9.33217H5.00984Z" fill="#8D998C"/>
<path d="M5.45404 9.50785C5.52392 9.54383 5.60096 9.56323 5.67932 9.56458C5.77255 9.56458 5.8219 9.52542 5.8219 9.46602C5.8219 9.40662 5.77935 9.37704 5.67142 9.33744C5.52204 9.28471 5.42487 9.20106 5.42487 9.06847C5.42487 8.91274 5.55275 8.79417 5.76465 8.79417C5.84341 8.79267 5.92157 8.8083 5.99388 8.83999L5.94869 9.0064C5.8901 8.9776 5.8258 8.96276 5.7607 8.96302C5.67296 8.96302 5.62909 9.00373 5.62909 9.0509C5.62909 9.10896 5.67976 9.13477 5.7958 9.17926C5.95439 9.23888 6.02897 9.32275 6.02897 9.45112C6.02897 9.60373 5.91315 9.73365 5.66638 9.73365C5.57855 9.73463 5.49162 9.7157 5.41193 9.67826L5.45404 9.50785Z" fill="#8D998C"/>
<path d="M6.36986 8.80981V9.33417C6.36986 9.4899 6.42843 9.57088 6.53241 9.57088C6.63638 9.57088 6.69758 9.49502 6.69758 9.33417V8.80981H6.90026V9.32149C6.90026 9.6027 6.76032 9.73662 6.52561 9.73662C6.29901 9.73662 6.16586 9.60959 6.16586 9.31882V8.80981H6.36986Z" fill="#8D998C"/>
<path d="M7.2453 9.48634L7.18147 9.72016H6.97089L7.2453 8.80981H7.51203L7.79062 9.72083H7.57126L7.50194 9.48634H7.2453ZM7.47343 9.33217L7.41727 9.13885C7.40126 9.08479 7.38525 9.01716 7.37209 8.9631H7.37033C7.35695 9.01716 7.34357 9.08612 7.32887 9.13885L7.27557 9.33217H7.47343Z" fill="#8D998C"/>
<path d="M7.91037 8.80981H8.11437V9.54775H8.47148V9.72083H7.91037V8.80981Z" fill="#8D998C"/>
<path d="M17.5616 29.6894L17.4653 29.9846H17.3418L17.6563 29.046H17.8004L18.1163 29.9846H17.9886L17.8897 29.6894H17.5616ZM17.8649 29.5946L17.7743 29.3246C17.7537 29.2632 17.7401 29.2075 17.7263 29.1532H17.7239C17.7103 29.2089 17.6951 29.266 17.6774 29.323L17.5866 29.5946H17.8649Z" fill="#8D998C"/>
<path d="M19.5693 29.046V29.6022C19.5693 29.8124 19.6614 29.9016 19.7849 29.9016C19.9222 29.9016 20.0102 29.8098 20.0102 29.6022V29.046H20.1311V29.5933C20.1311 29.8825 19.9815 30 19.7801 30C19.5906 30 19.4478 29.8901 19.4478 29.5995V29.0467L19.5693 29.046Z" fill="#8D998C"/>
<path d="M21.7504 29.149H21.4687V29.046H22.1549V29.149H21.8712V29.9846H21.7504V29.149Z" fill="#8D998C"/>
<path d="M23.6127 29.0461V29.4387H24.0604V29.0461H24.1813V29.9847H24.0604V29.544H23.6127V29.984H23.4929V29.0454L23.6127 29.0461Z" fill="#8D998C"/>
<path d="M26.1033 29.544H25.7433V29.8823H26.1445V29.984H25.624V29.0454H26.1252V29.1471H25.7446V29.4436H26.1033V29.544Z" fill="#8D998C"/>
<path d="M27.5363 29.9846V29.046H27.6679L27.9634 29.5217C28.0253 29.6195 28.0808 29.7214 28.1296 29.8267L28.1323 29.8251C28.1213 29.6999 28.1187 29.5857 28.1187 29.4393V29.0467H28.231V29.9853H28.1101L27.8162 29.509C27.7523 29.4081 27.6945 29.3035 27.6431 29.1955L27.6392 29.1971C27.646 29.3154 27.6486 29.4282 27.6486 29.5842V29.9846H27.5363Z" fill="#8D998C"/>
<path d="M29.8518 29.149H29.5704V29.046H30.2556V29.149H29.9727V29.9846H29.8518V29.149Z" fill="#8D998C"/>
<path d="M31.7141 29.046V29.9846H31.5946V29.046H31.7141Z" fill="#8D998C"/>
<path d="M33.8057 29.9541C33.7282 29.9862 33.645 30.0014 33.5613 29.9986C33.3003 29.9986 33.104 29.8315 33.104 29.5236C33.104 29.2297 33.3003 29.0306 33.5866 29.0306C33.7019 29.0306 33.7748 29.0556 33.8059 29.0722L33.777 29.1712C33.7183 29.1444 33.6546 29.1311 33.5903 29.1323C33.3731 29.1323 33.229 29.2729 33.229 29.5194C33.229 29.7492 33.3595 29.8976 33.5848 29.8976C33.6518 29.8986 33.7182 29.8853 33.7798 29.8587L33.8057 29.9541Z" fill="#8D998C"/>
<path d="M36.8203 29.9846L36.5856 29.046H36.7119L36.8216 29.521C36.8492 29.6378 36.8738 29.7548 36.8903 29.8454H36.8931C36.9082 29.7521 36.937 29.6407 36.9686 29.5194L37.0923 29.046H37.2173L37.3298 29.5223C37.3559 29.6336 37.3807 29.7448 37.3943 29.844H37.3972C37.4163 29.741 37.4424 29.6365 37.4713 29.5194L37.5935 29.046H37.7157L37.4525 29.9846H37.3276L37.2107 29.4952C37.1851 29.3942 37.1649 29.2919 37.1504 29.1886H37.1478C37.1292 29.292 37.1054 29.3943 37.0763 29.4952L36.9447 29.9846H36.8203Z" fill="#8D998C"/>
<path d="M39.5464 29.544H39.1867V29.8823H39.5877V29.984H39.0671V29.0454H39.567V29.1471H39.1867V29.4436H39.5464V29.544Z" fill="#8D998C"/>
<path d="M41.1291 29.6894L41.033 29.9846H40.9097L41.2243 29.046H41.3684L41.6843 29.9846H41.5566L41.4577 29.6894H41.1291ZM41.4327 29.5946L41.3419 29.3246C41.3212 29.2632 41.3076 29.2075 41.2938 29.1532H41.2912C41.2774 29.2089 41.2622 29.266 41.2445 29.323L41.1539 29.5946H41.4327Z" fill="#8D998C"/>
<path d="M43.0554 29.0584C43.1312 29.0448 43.208 29.0382 43.2849 29.0389C43.4126 29.0389 43.4948 29.0627 43.5525 29.1156C43.5765 29.1383 43.5953 29.1659 43.6079 29.1966C43.6205 29.2273 43.6264 29.2604 43.6253 29.2936C43.626 29.3475 43.6092 29.4001 43.5775 29.4434C43.5458 29.4867 43.5009 29.5182 43.4498 29.5332V29.5374C43.5214 29.5623 43.5639 29.6293 43.5858 29.7267C43.6161 29.8578 43.6381 29.9492 43.6574 29.9844H43.5336C43.5185 29.9579 43.4979 29.8771 43.4718 29.7601C43.4444 29.6306 43.395 29.5821 43.2864 29.5777H43.1739V29.9844H43.0544L43.0554 29.0584ZM43.175 29.486H43.2972C43.4248 29.486 43.506 29.4151 43.506 29.308C43.506 29.1868 43.4194 29.1339 43.293 29.1325C43.2534 29.1314 43.2137 29.1351 43.175 29.1436V29.486Z" fill="#8D998C"/>
<path d="M47.3627 29.4209H44.9169V29.6171H47.3627V29.4209Z" fill="#8D998C"/>
<path d="M16.0833 29.4209H13.6375V29.6171H16.0833V29.4209Z" fill="#8D998C"/>
</g>
<defs>
<clipPath id="clip0_73_452">
<rect width="61" height="30" fill="white"/>
</clipPath>
</defs>
</svg>
