<svg width="94" height="31" viewBox="0 0 94 31" fill="none" xmlns="http://www.w3.org/2000/svg">
<g clip-path="url(#clip0_92_3177)">
<path fill-rule="evenodd" clip-rule="evenodd" d="M3.7716 24.6498V23.7781H0V24.6498H1.35633V28.3124H2.37176V24.6498H3.7716ZM10.1543 28.3124H11.3076L10.3502 26.8254C10.6247 26.7003 10.8539 26.4921 11.0059 26.2296C11.158 25.9671 11.2254 25.6633 11.1988 25.3603C11.1988 24.3494 10.5242 23.7781 9.34923 23.7781H7.39089V28.3344H8.40633V27.0305H9.44352L10.1688 28.3344L10.1543 28.3124ZM8.40633 26.1148V24.6278H9.33472C9.89321 24.6278 10.2123 24.8842 10.2123 25.3603C10.2123 25.8365 9.89321 26.1441 9.33472 26.1441L8.40633 26.1148ZM15.1372 23.7781V28.3344H17.0157C17.3253 28.3588 17.6364 28.3179 17.9294 28.2141C18.2223 28.1103 18.4907 27.946 18.7172 27.7316C18.9438 27.5173 19.1237 27.2576 19.2453 26.9691C19.367 26.6806 19.4277 26.3697 19.4238 26.0562C19.4364 25.7435 19.3828 25.4317 19.2664 25.1416C19.1501 24.8515 18.9738 24.5899 18.7492 24.3742C18.5247 24.1585 18.2571 23.9937 17.9644 23.8909C17.6717 23.7881 17.3606 23.7496 17.052 23.7781H15.1372ZM16.1599 24.6424H17.0302C17.2133 24.6381 17.3952 24.6721 17.5646 24.7422C17.7339 24.8123 17.8871 24.917 18.0145 25.0498C18.1419 25.1826 18.2407 25.3405 18.3047 25.5137C18.3688 25.6869 18.3966 25.8716 18.3866 26.0562C18.3986 26.2372 18.3734 26.4188 18.3127 26.5896C18.2521 26.7603 18.1571 26.9166 18.0339 27.0486C17.9107 27.1806 17.7618 27.2855 17.5966 27.3568C17.4314 27.428 17.2534 27.4641 17.0738 27.4627H16.1454V24.6424H16.1599Z" fill="#8D998C"/>
<path fill-rule="evenodd" clip-rule="evenodd" d="M78.007 28.3343V23.778H76.8756L75.5627 26.5616L74.2499 23.778H73.1112V28.3343H74.0323V25.2577L75.2291 27.8655H75.8964L77.0931 25.2577V28.3343H78.007ZM84.8467 28.3343H85.9999L85.0425 26.8253C85.3124 26.6949 85.5371 26.4854 85.6872 26.224C85.8373 25.9626 85.9059 25.6616 85.8839 25.3603C85.8839 24.3494 85.2166 23.778 84.0344 23.778H82.076V28.3343H83.0987V27.0304H84.1286L84.854 28.3343H84.8467ZM83.0987 26.1367V24.6277H84.0416C84.6001 24.6277 84.9265 24.8841 84.9265 25.3603C84.9265 25.8364 84.6001 26.1441 84.0416 26.1441L83.0987 26.1367ZM92.7743 28.3343H94.0001L92.1868 25.6753L93.8841 23.778H92.7018L90.8305 25.8437V23.778H89.8441V28.3343H90.8595V27.2062L91.5123 26.4737L92.7453 28.3343H92.7743Z" fill="#8D998C"/>
<path d="M65.372 7.48669C65.8045 7.52974 66.2214 7.6726 66.5905 7.90423C66.981 8.14992 67.305 8.48973 67.5334 8.89314C67.7947 9.40447 67.9157 9.97713 67.8838 10.5516C67.8519 11.1261 67.6683 11.6816 67.3521 12.1602L67.3086 12.2188C66.1626 13.8963 65.0891 15.4785 64.1897 16.8117C63.0945 18.4379 62.1444 19.8737 61.6004 20.7014C61.5116 20.8255 61.4611 20.9733 61.4553 21.1263C61.458 21.2211 61.4828 21.314 61.5279 21.3973C61.617 21.5259 61.7304 21.6354 61.8615 21.7196C62.4076 22.0277 63.0282 22.1749 63.653 22.1445C64.1725 22.1466 64.6864 22.2533 65.1646 22.4583C65.6428 22.6633 66.0758 22.9626 66.4382 23.3385C66.8359 23.742 67.1146 24.2492 67.2433 24.8036C67.3762 25.4055 67.3046 26.035 67.0402 26.5909C66.6268 27.4846 65.6911 28.3709 64.0229 29.0668C60.5515 30.5371 56.7918 31.1812 53.0345 30.9494C51.5342 30.8257 50.0641 30.4545 48.6826 29.8506C49.1835 29.4471 49.6516 29.0038 50.0825 28.5248C51.0825 28.8808 52.1231 29.1073 53.1795 29.1987C56.6528 29.4032 60.1263 28.8018 63.3339 27.4406C64.198 27.1803 64.9415 26.6165 65.43 25.8511C65.5328 25.6451 65.561 25.4093 65.5098 25.1845C65.4503 24.9478 65.3274 24.7324 65.1544 24.5618C64.7497 24.1487 64.1994 23.9143 63.624 23.9099C62.6567 23.9401 61.7017 23.6856 60.8751 23.1774C60.5254 22.9539 60.2303 22.6534 60.012 22.2983C59.7955 21.941 59.6801 21.5306 59.6783 21.1116C59.6826 20.6165 59.8342 20.1341 60.1135 19.7272C60.5487 19.0459 61.4843 17.6395 62.7246 15.8082C63.6893 14.3431 64.7772 12.7682 65.8362 11.2299C65.9815 11.0183 66.0717 10.7732 66.0983 10.5171C66.1249 10.261 66.0871 10.0023 65.9885 9.76484C65.906 9.6205 65.7888 9.49955 65.6476 9.41323C65.493 9.32051 65.3192 9.26535 65.1399 9.25207C64.8228 9.25364 64.5112 9.33562 64.2337 9.49049C63.9561 9.64536 63.7215 9.86816 63.5515 10.1384C61.2015 13.4348 58.5686 17.0461 58.5613 17.0608L57.205 16.0059C57.205 16.0059 60.9621 10.8783 63.4644 7.30356C64.139 6.35128 64.2695 5.62608 64.0809 5.17924C64.0306 5.06041 63.9475 4.9587 63.8416 4.88623C63.7173 4.80818 63.5745 4.76518 63.4282 4.7617C63.0599 4.78726 62.7032 4.90257 62.3887 5.09775C62.0741 5.29294 61.8111 5.56219 61.6221 5.88246C61.6221 5.93374 61.5569 5.98502 61.5206 6.02897C59.3447 9.09092 55.2974 14.6508 55.2829 14.6654L53.8831 13.6252C53.8831 13.6252 57.7853 8.23387 60.1062 5.00344C60.6937 4.18301 60.8316 3.59699 60.672 3.23073C60.6372 3.11952 60.5687 3.02215 60.4762 2.95237C60.3665 2.86956 60.2403 2.81204 60.1062 2.78389C59.9625 2.74546 59.8113 2.74551 59.6676 2.78405C59.5239 2.82258 59.3926 2.89827 59.2866 3.00365L59.0255 3.29666C57.9303 4.51997 56.9729 5.58213 55.7979 7.12043C54.2675 9.06894 51.8667 12.314 51.8595 12.3287L50.4524 11.2592C50.4524 11.2592 52.7516 8.15329 54.4198 6.02164L54.4778 5.94107C54.5803 5.8271 54.6511 5.68777 54.6829 5.53723C54.7148 5.38669 54.7066 5.23032 54.6592 5.08401C54.6087 4.96944 54.5316 4.86891 54.4343 4.791C54.3146 4.69639 54.176 4.62894 54.0282 4.59322C53.7539 4.54174 53.471 4.56481 53.2085 4.66005C52.9459 4.7553 52.7132 4.91931 52.534 5.13529C51.125 6.65933 49.8463 8.30117 48.7116 10.0432C47.5311 11.8006 46.4906 13.6499 45.6001 15.5738C44.7347 17.2771 44.294 19.168 44.3163 21.0823C44.4453 22.9235 45.1924 24.6652 46.4342 26.0195C46.614 26.2327 46.8053 26.4357 47.0072 26.6275C47.2091 26.4357 47.4004 26.2327 47.5802 26.0195C47.9828 25.5463 48.3443 25.039 48.6609 24.5032H46.9999C46.6224 23.949 46.3016 23.3575 46.0425 22.7378H49.4152C49.5674 22.198 49.6598 21.6428 49.6908 21.0823C49.6908 21.0457 49.6908 21.0091 49.6908 20.9725H45.6653C45.5817 20.3895 45.5817 19.7974 45.6653 19.2144H49.553C49.4519 18.6048 49.3015 18.0045 49.1033 17.4197L46.2021 17.3245C46.2819 17.1267 46.3616 16.9216 46.4559 16.7165C46.634 16.3323 46.8325 15.9582 47.0507 15.5957L48.407 15.6397V15.5738C48.262 15.2441 48.1024 14.9145 47.9356 14.5848C48.3127 14.0062 48.7116 13.4568 49.0743 12.9806C49.4007 13.6033 49.7126 14.2259 49.9954 14.8412C50.9821 16.8001 51.4801 18.9727 51.4461 21.1702C51.2991 23.4032 50.4037 25.519 48.9075 27.1696C46.8766 29.5576 44.0262 30.6637 40.9799 30.9494C37.2226 31.1812 33.4628 30.5371 29.9914 29.0668C28.3232 28.3343 27.3876 27.4846 26.9741 26.5909C26.6999 26.0385 26.6181 25.4087 26.742 24.8036C26.8707 24.2492 27.1494 23.742 27.5471 23.3385C27.9143 22.9588 28.3532 22.6575 28.8379 22.4524C29.3226 22.2473 29.8431 22.1426 30.3686 22.1445C30.9934 22.1749 31.614 22.0277 32.1601 21.7196C32.2912 21.6354 32.4046 21.5259 32.4937 21.3973C32.5421 21.3154 32.5672 21.2216 32.5663 21.1263C32.5604 20.9733 32.51 20.8255 32.4212 20.7014C31.8772 19.8737 30.9271 18.4379 29.8319 16.8117C28.9325 15.4785 27.859 13.8816 26.713 12.2188L26.6695 12.1602C26.3533 11.6816 26.1697 11.1261 26.1378 10.5516C26.1059 9.97713 26.2269 9.40447 26.4882 8.89314C26.7166 8.48973 27.0406 8.14992 27.4311 7.90423C27.8002 7.6726 28.2171 7.52974 28.6496 7.48669C28.3853 7.04125 28.2221 6.54211 28.172 6.02527C28.1218 5.50844 28.1858 4.9868 28.3595 4.498C28.5409 4.06387 28.8433 3.69232 29.2299 3.42851C29.6153 3.17374 30.0609 3.02711 30.5209 3.00365C30.8889 2.98335 31.2575 3.0305 31.6089 3.14283C31.6869 2.53704 31.9871 1.98286 32.4502 1.58988C32.964 1.17229 33.6143 0.964668 34.2724 1.00807C34.9305 1.05148 35.5486 1.34276 36.0042 1.82428L36.2581 2.11729C36.8383 2.76924 37.3823 3.36991 37.9408 4.02918C38.0851 3.81529 38.2585 3.62296 38.4558 3.45781C38.7759 3.19479 39.1501 3.00712 39.551 2.90842C40.1186 2.78298 40.709 2.81182 41.262 2.99197C41.815 3.17213 42.3108 3.49717 42.6988 3.93395C44.1788 5.52585 45.523 7.24117 46.717 9.06162C46.8113 9.19347 46.8984 9.32533 46.9854 9.46451C47.0725 9.32533 47.1595 9.19347 47.2538 9.06162C48.4478 7.24117 49.792 5.52585 51.272 3.93395C51.6607 3.49594 52.1577 3.17015 52.7121 2.98994C53.2665 2.80974 53.8584 2.78161 54.4271 2.90842C54.828 3.00712 55.2022 3.19479 55.5223 3.45781C55.7233 3.61896 55.8973 3.81191 56.0373 4.02918C56.5958 3.36991 57.1397 2.76924 57.72 2.12462L57.9811 1.83161C58.4368 1.34287 59.0587 1.04632 59.722 1.00149C60.3852 0.956648 61.0407 1.16684 61.5569 1.58988C61.8868 1.86147 62.1375 2.21846 62.2822 2.62273C62.3461 2.79275 62.3899 2.96978 62.4127 3.15015C62.7628 3.03185 63.1321 2.98212 63.5007 3.00365C63.9607 3.02711 64.4063 3.17374 64.7917 3.42851C65.1783 3.69232 65.4807 4.06387 65.6621 4.498C65.8358 4.9868 65.8998 5.50844 65.8496 6.02527C65.7995 6.54211 65.6363 7.04125 65.372 7.48669ZM46.9999 1.36279C47.3772 1.36279 47.746 1.47578 48.0597 1.68747C48.3734 1.89916 48.6179 2.20005 48.7623 2.55208C48.9067 2.90411 48.9444 3.29147 48.8708 3.66518C48.7972 4.03889 48.6155 4.38217 48.3488 4.6516C48.082 4.92103 47.7421 5.10451 47.3721 5.17885C47.002 5.25319 46.6185 5.21503 46.2699 5.06922C45.9214 4.9234 45.6234 4.67648 45.4138 4.35966C45.2042 4.04284 45.0924 3.67036 45.0924 3.28933C45.0924 3.03633 45.1417 2.78582 45.2376 2.55208C45.3334 2.31834 45.4739 2.10596 45.6511 1.92706C45.8282 1.74817 46.0385 1.60626 46.2699 1.50944C46.5014 1.41263 46.7494 1.36279 46.9999 1.36279ZM30.4194 10.1531C30.2493 9.88281 30.0147 9.66001 29.7372 9.50514C29.4596 9.35027 29.148 9.26829 28.8309 9.26672C28.6516 9.28 28.4778 9.33517 28.3232 9.42788C28.1821 9.5142 28.0648 9.63515 27.9823 9.77949C27.8837 10.0169 27.8459 10.2757 27.8725 10.5317C27.8992 10.7878 27.9893 11.033 28.1346 11.2445C29.1936 12.7828 30.3106 14.3797 31.2535 15.8228C32.4865 17.6541 33.4294 19.0606 33.8573 19.7418C34.1366 20.1488 34.2882 20.6312 34.2925 21.1263C34.3017 21.5418 34.1989 21.9519 33.9951 22.313C33.7768 22.668 33.4817 22.9685 33.132 23.192C32.3054 23.7002 31.3504 23.9547 30.3831 23.9245C29.8077 23.9289 29.2574 24.1633 28.8527 24.5765C28.6797 24.747 28.5567 24.9625 28.4973 25.1991C28.4461 25.4239 28.4743 25.6597 28.5771 25.8657C29.0656 26.6312 29.8091 27.195 30.6732 27.4553C33.8807 28.8165 37.3543 29.4178 40.8275 29.2133C42.5125 29.0975 44.1494 28.5966 45.6146 27.7483C45.4478 27.5725 45.2809 27.3894 45.1214 27.2062C43.6251 25.5556 42.7298 23.4398 42.5828 21.2069C42.5455 19.009 43.0436 16.8356 44.0334 14.8779C44.6187 13.6034 45.2749 12.3635 45.999 11.164C45.7741 10.7977 45.5421 10.4314 45.2737 10.1018C44.139 8.35977 42.8604 6.71794 41.4513 5.19389C41.2722 4.97792 41.0394 4.81391 40.7769 4.71866C40.5143 4.62341 40.2314 4.60034 39.9572 4.65183C39.8093 4.68754 39.6708 4.75499 39.551 4.84961C39.4537 4.92751 39.3766 5.02804 39.3262 5.14262C39.2788 5.28892 39.2706 5.44529 39.3024 5.59583C39.3343 5.74637 39.405 5.8857 39.5075 5.99967L39.5655 6.08025C41.2482 8.17526 43.5402 11.2592 43.5474 11.2592L42.1476 12.314C42.1476 12.314 39.7396 9.06162 38.2092 7.12776C37.0269 5.58946 36.0768 4.5273 34.9816 3.30398L34.7204 3.00365C34.6145 2.89827 34.4832 2.82258 34.3395 2.78405C34.1958 2.74551 34.0446 2.74546 33.9008 2.78389C33.777 2.81594 33.661 2.87328 33.56 2.95237C33.4674 3.02215 33.3989 3.11952 33.3641 3.23073C33.2263 3.59699 33.3641 4.18301 33.9299 5.00344C36.2218 8.23387 40.1385 13.6106 40.1458 13.6252L38.7459 14.6654C38.7459 14.6654 34.6697 9.06162 32.501 6.02897C32.501 5.98502 32.4357 5.93374 32.3995 5.88246C32.2105 5.56219 31.9475 5.29294 31.6329 5.09775C31.3184 4.90257 30.9617 4.78726 30.5934 4.7617C30.4471 4.76518 30.3043 4.80818 30.18 4.88623C30.0741 4.9587 29.991 5.06041 29.9407 5.17924C29.7521 5.62608 29.8826 6.35128 30.5572 7.30356C33.0595 10.8417 36.8093 15.9913 36.8166 16.0059L35.4458 17.0461C35.4458 17.0461 32.7694 13.4568 30.4194 10.1238V10.1531Z" fill="#8D998C"/>
</g>
<defs>
<clipPath id="clip0_92_3177">
<rect width="94" height="31" fill="white"/>
</clipPath>
</defs>
</svg>
