<svg width="105" height="30" viewBox="0 0 105 30" fill="none" xmlns="http://www.w3.org/2000/svg">
<g clip-path="url(#clip0_73_513)">
<path fill-rule="evenodd" clip-rule="evenodd" d="M8.6459 26.2349C9.48748 24.6135 10.3515 23.0035 11.238 21.4048V3.3493C10.3901 2.25026 9.56456 1.13383 8.76152 0H2.50329C1.64303 1.43332 0.808603 2.88091 0 4.34277V27.5456C0.740259 28.3849 1.50138 29.2059 2.2929 30C4.37897 28.6969 6.49604 27.436 8.6459 26.2349ZM3.51653 5.5198C4.87725 5.34093 6.23916 5.16792 7.60166 5.00137L8.15239 4.93451V21.6933L7.86093 21.8206C6.49008 22.4188 5.14248 23.0598 3.79726 23.7072L3.08799 24.045V5.57141L3.51415 5.51277L3.51653 5.5198ZM96.8417 19.7181C95.8189 19.3123 94.7884 18.927 93.7537 18.5522V21.406C94.635 23.0043 95.4988 24.612 96.3452 26.229C98.4944 27.4289 100.609 28.6922 102.696 29.9924C103.483 29.192 104.251 28.3747 105.002 27.5404V17.2561C104.164 15.546 103.307 13.8453 102.433 12.1539C100.701 11.7264 98.9665 11.3106 97.2243 10.9223L96.8417 10.8373V4.93568L97.3912 5.00078C98.7553 5.16382 100.118 5.33683 101.478 5.5198L101.904 5.57845V7.75951C102.937 7.94835 103.969 8.14482 105.003 8.33952V4.34453C104.179 2.88619 103.34 1.43801 102.486 0H96.2277C95.4156 1.12601 94.5911 2.24205 93.7543 3.34813V11.3047C94.6233 12.7122 95.4752 14.1285 96.31 15.5536C98.0774 16.1538 99.8363 16.777 101.587 17.4233L101.904 17.5406V24.0503L101.197 23.709C99.8528 23.0598 98.504 22.4188 97.1343 21.8229L96.8422 21.6957V19.7181H96.8417ZM91.4047 19.5046C88.8299 18.5944 86.2303 17.7568 83.6058 16.9916L83.2523 16.8902V0H80.165V19.4847C83.9755 20.7472 87.7215 22.1795 91.403 23.7817V19.5046H91.4047ZM74.6637 18.0045C75.6721 18.239 76.6752 18.5 77.676 18.7669C77.0577 15.6086 76.4293 12.4526 75.7907 9.29898C75.155 6.19658 74.5041 3.09731 73.8382 0.00117293H70.5499C69.9082 2.82793 69.2589 5.65293 68.6021 8.47617C67.9743 11.1598 67.3368 13.841 66.6895 16.5195C67.7147 16.6738 68.7398 16.828 69.762 17.0045C69.8854 16.326 70.0141 15.6486 70.1428 14.9713L70.2311 14.5068L70.7079 14.5836C71.7581 14.7537 72.8059 14.9355 73.8501 15.1378L74.1821 15.2023L74.2381 15.5308C74.38 16.3547 74.5212 17.1793 74.669 18.0027L74.6637 18.0045ZM70.839 11.178C70.9767 10.4086 71.1257 9.64089 71.2628 8.87145C71.4022 8.09145 71.5608 7.31556 71.7092 6.53673L72.2152 3.87067L72.6753 6.54788C72.8136 7.35446 72.9513 8.16104 73.0884 8.96763C73.2273 9.78105 73.3757 10.5927 73.5223 11.405L73.6415 12.0677L72.965 11.9639C72.4 11.8794 71.8326 11.8073 71.2652 11.7416L70.749 11.683L70.839 11.1792V11.178ZM60.9486 15.8932C62.0435 15.9817 63.1366 16.0908 64.2267 16.2099V0H61.1381V10.4344L60.2227 8.87673C59.3195 7.34058 58.4121 5.80698 57.5006 4.27591C56.6525 2.84728 55.7906 1.42452 54.9336 0H51.6233V15.5683C52.6562 15.5595 53.6897 15.5683 54.7226 15.5835V5.36263L55.6357 6.88744C56.5434 8.40404 57.4565 9.91711 58.3506 11.439C59.2247 12.92 60.0907 14.4047 60.9486 15.8932ZM46.1869 0V15.7431C47.22 15.6918 48.2531 15.6473 49.2862 15.6093V0H46.1869ZM40.7631 3.94573C41.7923 3.91406 42.8218 3.88552 43.8517 3.86011V2.14294C43.0399 1.43488 42.2345 0.720569 41.4354 0H35.0318C34.2117 0.78293 33.4005 1.57055 32.6024 2.37108V15.2146C33.3832 15.8345 34.1687 16.4503 34.9626 17.0567C37.0994 16.7002 39.2439 16.3864 41.3967 16.1413C42.2013 15.3312 43.0187 14.534 43.8487 13.7497V6.63291C42.137 6.69156 40.4258 6.76897 38.7152 6.85342V9.61802C39.2218 9.5754 39.7288 9.5363 40.2363 9.50072L40.7602 9.46554V13.4957L40.3179 13.5385C38.959 13.6699 37.6036 13.8247 36.2483 13.986L35.7017 14.054V2.86781L36.1785 2.85256C37.5395 2.80956 38.9004 2.76889 40.2613 2.73058L40.7649 2.71709V3.94866L40.7631 3.94573ZM27.1738 0V18.8097C28.1996 18.534 29.2277 18.2643 30.2618 18.0209V0H27.1738ZM21.5277 20.5667C22.5696 20.2207 23.6198 19.9017 24.6705 19.5844C24.2593 18.5217 23.854 17.4579 23.4654 16.387C23.0005 15.1073 22.5374 13.8265 22.0862 12.5415L21.9217 12.0724L22.3127 11.9492C23.1364 10.883 23.9738 9.82738 24.8249 8.7823V2.61446C23.9964 1.75431 23.1819 0.882824 22.3812 0H13.5893V23.7706C14.6145 23.3096 15.6402 22.8487 16.6773 22.4153V13.2371L17.0504 13.1462L18.0881 12.8922L18.5178 12.7867L18.668 13.1972C19.1591 14.5332 19.6741 15.8609 20.1819 17.191C20.614 18.3229 21.0724 19.4454 21.5301 20.5673L21.5277 20.5667ZM16.6749 8.64155V4.05071L17.1237 4.01259C18.485 3.8953 19.8463 3.778 21.2088 3.67889L21.7369 3.6396V8.44861L21.3149 8.50725C19.956 8.69727 18.5995 8.90546 17.2435 9.11952L16.6749 9.20749V8.64097V8.64155Z" fill="#8D998C"/>
</g>
<defs>
<clipPath id="clip0_73_513">
<rect width="105" height="30" fill="white"/>
</clipPath>
</defs>
</svg>
