<svg width="124" height="30" viewBox="0 0 124 30" fill="none" xmlns="http://www.w3.org/2000/svg">
<g clip-path="url(#clip0_73_504)">
<path fill-rule="evenodd" clip-rule="evenodd" d="M34.2857 19.8658H27.1246C26.9019 19.8655 26.6884 19.7785 26.5309 19.6238C26.3734 19.4692 26.2848 19.2596 26.2844 19.0409V11.1284C26.2851 10.8648 26.3919 10.6122 26.5817 10.4257C26.7714 10.2391 27.0287 10.1339 27.2972 10.133H34.2857C34.5086 10.1336 34.7221 10.2209 34.8795 10.3757C35.037 10.5305 35.1256 10.7403 35.1259 10.9591V19.0409C35.1256 19.2596 35.037 19.4692 34.8795 19.6238C34.722 19.7785 34.5084 19.8655 34.2857 19.8658ZM40.2852 23.0644V23.8905H35.1259V21.859C35.1253 21.696 35.0756 21.5369 34.983 21.4017C34.8904 21.2665 34.7591 21.1612 34.6057 21.0991C34.4522 21.0371 34.2835 21.0211 34.1208 21.053C33.958 21.085 33.8086 21.1636 33.6913 21.2789L31.2736 23.6515C31.1971 23.7292 31.1052 23.7908 31.0036 23.8325C30.902 23.8742 30.7928 23.8951 30.6827 23.8939H24.9858C23.9627 23.8912 22.9824 23.491 22.259 22.7807C21.5356 22.0705 21.128 21.108 21.1252 20.1036V10.9591C21.1258 10.7402 21.2146 10.5304 21.3723 10.3756C21.5299 10.2208 21.7436 10.1336 21.9665 10.133H25.2753C25.5438 10.1324 25.8011 10.0275 25.9911 9.84119C26.1811 9.65489 26.2882 9.40235 26.2892 9.13873V6.93439C26.2895 6.71571 26.3781 6.50607 26.5356 6.35144C26.6931 6.19681 26.9066 6.1098 27.1294 6.1095H36.4293C37.4523 6.11225 38.4327 6.51247 39.1561 7.2227C39.8795 7.93292 40.2871 8.89541 40.2899 9.89981V23.0644H40.2852Z" fill="#8D998C"/>
<path fill-rule="evenodd" clip-rule="evenodd" d="M98.5026 10.9591V19.8658H90.5013C90.2786 19.8655 90.0651 19.7785 89.9076 19.6238C89.7501 19.4692 89.6614 19.2596 89.6611 19.0409V11.1284C89.6617 10.8648 89.7686 10.6122 89.9584 10.4257C90.1481 10.2391 90.4053 10.1339 90.6738 10.133H98.5026V10.9591ZM98.5026 21.8648V24.9868C98.5016 25.2502 98.3946 25.5026 98.2049 25.6889C98.0152 25.8751 97.7582 25.9802 97.4899 25.9811H84.5018V30.0058H97.6624C97.8852 30.0052 98.0987 29.9179 98.2562 29.7631C98.4137 29.6083 98.5023 29.3985 98.5026 29.1797V26.9754C98.5032 26.7116 98.6102 26.4587 98.8002 26.2722C98.9902 26.0856 99.2478 25.9806 99.5165 25.9799H102.825C103.048 25.9796 103.261 25.8926 103.419 25.738C103.576 25.5834 103.665 25.3737 103.665 25.1551V6.1095H90.5013C90.2786 6.1098 90.0651 6.19681 89.9076 6.35144C89.7501 6.50607 89.6614 6.71571 89.6611 6.93439V9.13873C89.6602 9.40235 89.553 9.65489 89.3631 9.84119C89.1731 10.0275 88.9157 10.1324 88.6472 10.133H85.3385C85.1155 10.1336 84.9019 10.2208 84.7442 10.3756C84.5866 10.5304 84.4977 10.7402 84.4971 10.9591V20.1001C84.4999 21.1045 84.9076 22.067 85.631 22.7773C86.3544 23.4875 87.3347 23.8877 88.3577 23.8905H94.0511C94.1612 23.8916 94.2704 23.8706 94.372 23.8289C94.4735 23.7872 94.5654 23.7257 94.642 23.648L97.0585 21.2754C97.176 21.1603 97.3255 21.0819 97.4882 21.05C97.651 21.0181 97.8197 21.0341 97.9731 21.0961C98.1266 21.1581 98.258 21.2633 98.3507 21.3984C98.4434 21.5335 98.4934 21.6926 98.4943 21.8555L98.5026 21.8648Z" fill="#8D998C"/>
<path fill-rule="evenodd" clip-rule="evenodd" d="M5.99947 15.9711H13.1594C13.3822 15.9714 13.5958 16.0584 13.7535 16.2129C13.9112 16.3675 14.0001 16.5772 14.0007 16.796V23.8905H19.1588V15.7367C19.1551 14.7329 18.747 13.7713 18.0237 13.0618C17.3004 12.3524 16.3206 11.9526 15.2982 11.9499H9.606C9.4959 11.9487 9.38671 11.9696 9.28512 12.0113C9.18352 12.053 9.09166 12.1146 9.01515 12.1924L6.59386 14.5615C6.47641 14.6766 6.32692 14.755 6.16418 14.7869C6.00144 14.8188 5.83273 14.8027 5.67927 14.7407C5.5258 14.6787 5.39444 14.5735 5.30171 14.4384C5.20898 14.3033 5.15901 14.1443 5.1581 13.9814V10.133H19.1588V6.10952H9.606C9.49601 6.10841 9.38694 6.12923 9.28538 6.17071C9.18382 6.21219 9.09189 6.27347 9.01515 6.35084L6.59386 8.72457C6.47641 8.83968 6.32692 8.91811 6.16418 8.95001C6.00144 8.98191 5.83273 8.96585 5.67927 8.90384C5.5258 8.84184 5.39444 8.73666 5.30171 8.60155C5.20898 8.46643 5.15901 8.30741 5.1581 8.14448V0H0V23.8905H5.1581V16.796C5.15872 16.5772 5.24761 16.3675 5.40529 16.2129C5.56298 16.0584 5.77662 15.9714 5.99947 15.9711Z" fill="#8D998C"/>
<path fill-rule="evenodd" clip-rule="evenodd" d="M109.999 15V11.1284C110 10.8646 110.107 10.6118 110.297 10.4252C110.487 10.2387 110.744 10.1336 111.013 10.133H118.842V18.8715C118.841 19.1351 118.734 19.3877 118.544 19.574C118.354 19.7603 118.097 19.8652 117.828 19.8658H109.999V15ZM124 16.4038V6.1095H110.843C110.62 6.1098 110.407 6.19677 110.249 6.35137C110.091 6.50597 110.002 6.7156 110.002 6.93439V9.13873C110.001 9.40215 109.894 9.65452 109.704 9.84078C109.514 10.027 109.257 10.1321 108.989 10.133H105.68C105.457 10.1336 105.244 10.2209 105.086 10.3757C104.929 10.5305 104.84 10.7403 104.84 10.9591V23.8905H118.001C118.223 23.8898 118.437 23.8026 118.595 23.6478C118.752 23.4931 118.841 23.2833 118.842 23.0644V20.8601C118.843 20.5964 118.949 20.3438 119.139 20.1573C119.329 19.9707 119.586 19.8655 119.855 19.8646H123.163C123.386 19.8643 123.6 19.7773 123.757 19.6227C123.915 19.468 124.003 19.2584 124.004 19.0397V16.4038H124Z" fill="#8D998C"/>
<path fill-rule="evenodd" clip-rule="evenodd" d="M76.536 19.8658H69.3761C69.1533 19.8655 68.9397 19.7785 68.782 19.6239C68.6243 19.4693 68.5354 19.2597 68.5348 19.0409V6.1095H63.3767V20.1001C63.3795 21.1047 63.7873 22.0674 64.5109 22.7777C65.2346 23.4879 66.2152 23.888 67.2385 23.8905H72.9319C73.0419 23.8914 73.1511 23.8704 73.2526 23.8287C73.3542 23.7871 73.4461 23.7256 73.5227 23.648L75.9393 21.2754C76.0567 21.1603 76.2062 21.0819 76.369 21.05C76.5317 21.0181 76.7004 21.0341 76.8539 21.0961C77.0073 21.1581 77.1387 21.2633 77.2314 21.3984C77.3242 21.5335 77.3741 21.6926 77.375 21.8555V23.887H82.5331V6.1095H77.3774V19.0409C77.3768 19.2597 77.2879 19.4693 77.1302 19.6239C76.9725 19.7785 76.7589 19.8655 76.536 19.8658Z" fill="#8D998C"/>
<path fill-rule="evenodd" clip-rule="evenodd" d="M56.2487 12.994V11.1377C56.2481 10.8741 56.1412 10.6214 55.9515 10.4349C55.7617 10.2484 55.5045 10.1432 55.236 10.1423H42.2503V6.1095H61.4103V13.2261C61.4063 14.2299 60.9979 15.1913 60.2744 15.9006C59.5509 16.6098 58.571 17.0093 57.5486 17.0117H48.2486C48.0258 17.0123 47.8123 17.0996 47.6548 17.2544C47.4973 17.4092 47.4087 17.619 47.4084 17.8378V19.0409C47.4087 19.2594 47.4972 19.4688 47.6544 19.6234C47.8117 19.778 48.0249 19.8652 48.2474 19.8658H61.4103V23.8905H56.2487V21.859C56.2481 21.696 56.1984 21.5369 56.1058 21.4017C56.0132 21.2665 55.8819 21.1612 55.7285 21.0991C55.575 21.0371 55.4063 21.0211 55.2436 21.053C55.0808 21.085 54.9314 21.1636 54.8141 21.2789L52.3964 23.6515C52.3199 23.7292 52.228 23.7908 52.1264 23.8325C52.0248 23.8742 51.9156 23.8951 51.8055 23.8939H46.1109C45.088 23.8909 44.1079 23.4906 43.3845 22.7804C42.6612 22.0702 42.2535 21.1079 42.2503 20.1036V19.8716V16.7774C42.2553 15.7743 42.6639 14.8137 43.387 14.1051C44.1101 13.3964 45.0892 12.9971 46.1109 12.994H56.2487Z" fill="#8D998C"/>
</g>
<defs>
<clipPath id="clip0_73_504">
<rect width="124" height="30" fill="white"/>
</clipPath>
</defs>
</svg>
