<svg width="46" height="46" viewBox="0 0 46 46" fill="none" xmlns="http://www.w3.org/2000/svg">
<path d="M10.7041 40.6755C19.5424 40.6755 25.6119 45.2538 29.8707 45.2538C34.1296 45.2538 43.074 42.8056 43.074 23.2134C43.074 3.62123 31.0412 0.744949 26.3568 0.744949C4.42122 0.744949 -4.94873 40.6755 10.7041 40.6755Z" fill="#EFEFEF"/>
<path d="M34.0439 11.0085L34.9475 10.1049L36.7545 11.912L35.851 12.8155L34.0439 11.0085Z" fill="#A4AFC1"/>
<path d="M39.2373 16.2039L40.1408 15.3004L41.9479 17.1074L41.0444 18.011L39.2373 16.2039Z" fill="#A4AFC1"/>
<path d="M39.0127 11.9125L40.8197 10.1054L41.7233 11.0089L39.9162 12.816L39.0127 11.9125Z" fill="#A4AFC1"/>
<path d="M27.1528 11.1806C27.1528 9.76861 26.0092 8.625 24.5972 8.625H11.1806C9.76861 8.625 8.625 9.76861 8.625 11.1806V34.8194C8.625 36.2314 9.76861 37.375 11.1806 37.375H24.5972C26.0092 37.375 27.1528 36.2314 27.1528 34.8194V11.1806Z" fill="#F3F3F1"/>
<path d="M11.8193 8.625C12.8773 8.625 13.736 9.48367 13.736 10.5417C13.736 11.247 14.3084 11.8194 15.0138 11.8194H20.7638C21.4691 11.8194 22.0416 11.247 22.0416 10.5417C22.0416 9.48367 22.9002 8.625 23.9582 8.625H11.8193Z" fill="#2FDF84"/>
<path d="M11.5 34.8194V11.1806C11.5 9.76861 12.6436 8.625 14.0556 8.625H11.1806C9.76861 8.625 8.625 9.76861 8.625 11.1806V34.8194C8.625 36.2314 9.76861 37.375 11.1806 37.375H14.0556C12.6436 37.375 11.5 36.2314 11.5 34.8194Z" fill="#D5DBE1"/>
<path d="M16.611 10.5417C16.611 9.48367 15.7523 8.625 14.6943 8.625H11.8193C12.8773 8.625 13.736 9.48367 13.736 10.5417C13.736 11.247 14.3084 11.8194 15.0138 11.8194H17.8888C17.1834 11.8194 16.611 11.247 16.611 10.5417Z" fill="#00B871"/>
<path d="M19.4861 26.8333H16.6111V24.9167H19.4861C19.6624 24.9167 19.8055 24.7736 19.8055 24.5972V19.1667H21.7222V24.5972C21.7222 25.8303 20.7191 26.8333 19.4861 26.8333Z" fill="black"/>
<path d="M25.875 26.8333H25.2361C24.0031 26.8333 23 25.8303 23 24.5972V21.4028C23 20.1697 24.0031 19.1667 25.2361 19.1667H25.875C27.1081 19.1667 28.1111 20.1697 28.1111 21.4028V24.5972C28.1111 25.8303 27.1081 26.8333 25.875 26.8333ZM25.2361 21.0833C25.0598 21.0833 24.9167 21.2264 24.9167 21.4028V24.5972C24.9167 24.7736 25.0598 24.9167 25.2361 24.9167H25.875C26.0513 24.9167 26.1944 24.7736 26.1944 24.5972V21.4028C26.1944 21.2264 26.0513 21.0833 25.875 21.0833H25.2361Z" fill="black"/>
<path d="M32.1106 26.8333H30.3472C29.8182 26.8333 29.3889 26.404 29.3889 25.875V20.125C29.3889 19.596 29.8182 19.1667 30.3472 19.1667H32.1106C33.428 19.1667 34.5 20.2387 34.5 21.5561C34.5 22.0979 34.3224 22.5962 34.0221 22.9987C34.3224 23.3987 34.5 23.8944 34.5 24.4311C34.5 25.7613 33.428 26.8333 32.1106 26.8333ZM31.3056 24.9167H32.1106C32.3712 24.9167 32.5834 24.7046 32.5834 24.4439C32.5834 24.1704 32.3712 23.9583 32.1106 23.9583H31.3056V24.9167ZM31.3056 22.0417H32.1106C32.3712 22.0417 32.5834 21.8296 32.5834 21.5689C32.5834 21.2954 32.3712 21.0833 32.1106 21.0833H31.3056V22.0417Z" fill="black"/>
<path d="M20.7638 12.7778H15.0138C13.7807 12.7778 12.7777 11.7747 12.7777 10.5417C12.7777 10.0139 12.3483 9.58333 11.8193 9.58333V7.66666C13.4051 7.66666 14.6943 8.95722 14.6943 10.5417C14.6943 10.718 14.8374 10.8611 15.0138 10.8611H20.7638C20.9401 10.8611 21.0832 10.718 21.0832 10.5417C21.0832 8.95722 22.3725 7.66666 23.9582 7.66666V9.58333C23.4292 9.58333 22.9999 10.0139 22.9999 10.5417C22.9999 11.7747 21.9968 12.7778 20.7638 12.7778Z" fill="black"/>
<path d="M24.5973 38.3333H11.1806C9.24225 38.3333 7.66675 36.7578 7.66675 34.8194V11.1806C7.66675 9.24216 9.24225 7.66666 11.1806 7.66666H24.5973C26.5357 7.66666 28.1112 9.24216 28.1112 11.1806V16.6111H26.1945V11.1806C26.1945 10.3002 25.4777 9.58333 24.5973 9.58333H11.1806C10.3002 9.58333 9.58341 10.3002 9.58341 11.1806V34.8194C9.58341 35.6998 10.3002 36.4167 11.1806 36.4167H24.5973C25.4777 36.4167 26.1945 35.6998 26.1945 34.8194V29.3889H28.1112V34.8194C28.1112 36.7578 26.5357 38.3333 24.5973 38.3333Z" fill="black"/>
</svg>
