<svg width="46" height="46" viewBox="0 0 46 46" fill="none" xmlns="http://www.w3.org/2000/svg">
<path d="M5.32462 35.2961C5.32462 26.4577 0.746338 20.3882 0.746338 16.1294C0.746338 11.8706 3.19456 2.92611 22.7867 2.92611C42.3789 2.92611 45.2539 14.9589 45.2539 19.6433C45.2552 41.5789 5.32462 50.9488 5.32462 35.2961Z" fill="#EFEFEF"/>
<path d="M4.47233 15.3333C3.41561 15.3333 2.55566 14.4734 2.55566 13.4167C2.55566 12.3599 3.41561 11.5 4.47233 11.5C5.52905 11.5 6.389 12.3599 6.389 13.4167C6.389 14.4734 5.52905 15.3333 4.47233 15.3333ZM4.47233 12.7778C4.12094 12.7778 3.83344 13.064 3.83344 13.4167C3.83344 13.7693 4.12094 14.0556 4.47233 14.0556C4.82372 14.0556 5.11122 13.7693 5.11122 13.4167C5.11122 13.064 4.82372 12.7778 4.47233 12.7778Z" fill="#A4AFC1"/>
<path d="M30.986 37.375H15.0138C13.6019 37.375 12.4583 36.2314 12.4583 34.8194V11.1806C12.4583 9.76861 13.6019 8.625 15.0138 8.625H30.986C32.398 8.625 33.5416 9.76861 33.5416 11.1806V34.8194C33.5416 36.2314 32.398 37.375 30.986 37.375Z" fill="#F3F3F1"/>
<path d="M15.3333 34.8194V11.1806C15.3333 9.76861 16.4769 8.625 17.8888 8.625H15.0138C13.6019 8.625 12.4583 9.76861 12.4583 11.1806V34.8194C12.4583 36.2314 13.6019 37.375 15.0138 37.375H17.8888C16.4769 37.375 15.3333 36.2314 15.3333 34.8194Z" fill="#D5DBE1"/>
<path d="M30.9861 38.3333H15.0139C13.0755 38.3333 11.5 36.7578 11.5 34.8194V11.1806C11.5 9.24216 13.0755 7.66666 15.0139 7.66666H30.9861C32.9245 7.66666 34.5 9.24216 34.5 11.1806V34.8194C34.5 36.7578 32.9245 38.3333 30.9861 38.3333ZM15.0139 9.58333C14.1335 9.58333 13.4167 10.3002 13.4167 11.1806V34.8194C13.4167 35.6998 14.1335 36.4167 15.0139 36.4167H30.9861C31.8665 36.4167 32.5833 35.6998 32.5833 34.8194V11.1806C32.5833 10.3002 31.8665 9.58333 30.9861 9.58333H15.0139Z" fill="black"/>
<path d="M16.6111 30.6667H29.3889V32.5833H16.6111V30.6667Z" fill="black"/>
<path d="M16.6111 24.2778H29.3889V26.1944H16.6111V24.2778Z" fill="black"/>
<path d="M21.7222 20.4444H18.8472C17.6141 20.4444 16.6111 19.4414 16.6111 18.2083V15.0139C16.6111 13.7808 17.6141 12.7778 18.8472 12.7778H21.7222V14.6944H18.8472C18.6709 14.6944 18.5278 14.8376 18.5278 15.0139V18.2083C18.5278 18.3847 18.6709 18.5278 18.8472 18.5278H21.7222V20.4444Z" fill="black"/>
<path d="M26.8333 20.4444C26.4027 20.4444 26.0245 20.1569 25.9095 19.7429L24.0554 13.0691L25.9018 12.5567L26.8333 15.9058L27.7648 12.5567L29.6112 13.0691L27.7571 19.7429C27.6421 20.1569 27.2639 20.4444 26.8333 20.4444Z" fill="black"/>
</svg>
