<svg width="46" height="46" viewBox="0 0 46 46" fill="none" xmlns="http://www.w3.org/2000/svg">
<path d="M10.7041 5.32449C19.5424 5.32449 25.6119 0.746216 29.8707 0.746216C34.1296 0.746216 43.074 3.19444 43.074 22.7866C43.074 42.3788 31.0412 45.2538 26.3568 45.2538C4.42122 45.2551 -4.94873 5.32449 10.7041 5.32449Z" fill="#EFEFEF"/>
<path d="M37.6945 14.0556C36.6378 14.0556 35.7778 13.1956 35.7778 12.1389C35.7778 11.0822 36.6378 10.2222 37.6945 10.2222C38.7512 10.2222 39.6112 11.0822 39.6112 12.1389C39.6112 13.1956 38.7512 14.0556 37.6945 14.0556ZM37.6945 11.5C37.3431 11.5 37.0556 11.7862 37.0556 12.1389C37.0556 12.4916 37.3431 12.7778 37.6945 12.7778C38.0459 12.7778 38.3334 12.4916 38.3334 12.1389C38.3334 11.7862 38.0459 11.5 37.6945 11.5Z" fill="#A4AFC1"/>
<path d="M25.9095 33.5417H11.1806C9.775 33.5417 8.625 32.3917 8.625 30.9861V11.1806C8.625 9.775 9.775 8.625 11.1806 8.625H25.875C27.2806 8.625 28.4306 9.775 28.4306 11.1806L28.4651 30.9823C28.4663 32.3942 27.3214 33.5417 25.9095 33.5417Z" fill="#F3F3F1"/>
<path d="M18.5279 15.6528C19.41 15.6528 20.1251 14.9377 20.1251 14.0556C20.1251 13.1734 19.41 12.4583 18.5279 12.4583C17.6458 12.4583 16.9307 13.1734 16.9307 14.0556C16.9307 14.9377 17.6458 15.6528 18.5279 15.6528Z" fill="#2FDF84"/>
<path d="M22.6806 23V21.4028C22.6806 19.9908 21.5369 18.8472 20.125 18.8472H16.9306C15.5186 18.8472 14.375 19.9908 14.375 21.4028V23H22.6806Z" fill="#2FDF84"/>
<path d="M27.6012 36.5189L23.3193 37.375L24.1754 33.0932L33.5952 23.6734C34.068 23.2006 34.8347 23.2006 35.3074 23.6734L37.0197 25.3856C37.4924 25.8584 37.4924 26.6251 37.0197 27.0978L27.6012 36.5189Z" fill="#2FDF84"/>
<path d="M11.5 30.9861V11.1806C11.5 9.775 12.65 8.625 14.0556 8.625H11.1806C9.775 8.625 8.625 9.775 8.625 11.1806V30.9861C8.625 32.3917 9.775 33.5417 11.1806 33.5417H14.0556C12.65 33.5417 11.5 32.3917 11.5 30.9861Z" fill="#D5DBE1"/>
<path d="M19.8057 14.0556C19.8057 13.8128 19.8683 13.5892 19.9654 13.3834C19.7098 12.8404 19.1668 12.4583 18.5279 12.4583C17.6462 12.4583 16.9307 13.1739 16.9307 14.0556C16.9307 14.9372 17.6462 15.6528 18.5279 15.6528C19.1668 15.6528 19.7098 15.2707 19.9654 14.7277C19.8683 14.5219 19.8057 14.2983 19.8057 14.0556Z" fill="#00B871"/>
<path d="M19.8056 18.8472H16.9306C15.5186 18.8472 14.375 19.9908 14.375 21.4028V23H17.25V21.4028C17.25 19.9908 18.3936 18.8472 19.8056 18.8472Z" fill="#00B871"/>
<path d="M27.0504 33.0932L35.8888 24.2548L35.3074 23.6734C34.8347 23.2006 34.068 23.2006 33.5952 23.6734L24.1754 33.0932L23.3193 37.375L26.3144 36.7757L27.0504 33.0932Z" fill="#00B871"/>
<path d="M23.3196 38.3333C23.0679 38.3333 22.8226 38.2337 22.6424 38.0522C22.415 37.8261 22.3178 37.5002 22.3805 37.1872L23.2366 32.9053C23.2736 32.7188 23.3656 32.5488 23.4985 32.4159L32.9183 22.9962C33.7642 22.1515 35.1391 22.1515 35.985 22.9962L37.6985 24.7097C38.5443 25.5555 38.5443 26.9317 37.6985 27.7776L28.2787 37.1974C28.1458 37.3315 27.9746 37.4223 27.7893 37.4593L23.5075 38.3154C23.4448 38.3269 23.3822 38.3333 23.3196 38.3333ZM25.0574 33.5659L24.5412 36.1534L27.1274 35.6359L36.3427 26.4219C36.4258 26.3375 36.4258 26.1484 36.3427 26.0641L34.6292 24.3519C34.5321 24.2548 34.3698 24.2535 34.2727 24.3519L25.0574 33.5659Z" fill="black"/>
<path d="M12.7778 24.9167H24.2778V26.8333H12.7778V24.9167Z" fill="black"/>
<path d="M12.7778 28.75H23.0001V30.6667H12.7778V28.75Z" fill="black"/>
<path d="M18.5277 16.6111C17.1183 16.6111 15.9722 15.4649 15.9722 14.0556C15.9722 12.6462 17.1183 11.5 18.5277 11.5C19.9371 11.5 21.0833 12.6462 21.0833 14.0556C21.0833 15.4649 19.9371 16.6111 18.5277 16.6111ZM18.5277 13.4167C18.1763 13.4167 17.8888 13.7029 17.8888 14.0556C17.8888 14.4082 18.1763 14.6944 18.5277 14.6944C18.8791 14.6944 19.1666 14.4082 19.1666 14.0556C19.1666 13.7029 18.8791 13.4167 18.5277 13.4167Z" fill="black"/>
<path d="M23.6387 23H21.7221V21.4028C21.7221 20.5224 21.0052 19.8056 20.1248 19.8056H16.9304C16.05 19.8056 15.3332 20.5224 15.3332 21.4028V23H13.4165V21.4028C13.4165 19.4644 14.992 17.8889 16.9304 17.8889H20.1248C22.0632 17.8889 23.6387 19.4644 23.6387 21.4028V23Z" fill="black"/>
<path d="M20.4443 34.5H11.1804C9.242 34.5 7.6665 32.9245 7.6665 30.9861V11.1806C7.6665 9.24217 9.242 7.66667 11.1804 7.66667H25.8748C27.8132 7.66667 29.3887 9.24217 29.3887 11.1806V23H27.4721V11.1806C27.4721 10.3002 26.7552 9.58334 25.8748 9.58334H11.1804C10.3 9.58334 9.58317 10.3002 9.58317 11.1806V30.9861C9.58317 31.8665 10.3 32.5833 11.1804 32.5833H20.4443V34.5Z" fill="black"/>
</svg>
