<svg width="46" height="46" viewBox="0 0 46 46" fill="none" xmlns="http://www.w3.org/2000/svg">
<path d="M40.6754 10.7039C40.6754 19.5423 45.2537 25.6118 45.2537 29.8706C45.2537 34.1294 42.8055 43.0739 23.2133 43.0739C3.62115 43.0739 0.744873 31.0411 0.744873 26.3567C0.744873 4.42111 40.6754 -4.94883 40.6754 10.7039Z" fill="#EFEFEF"/>
<path d="M36.4167 16.6111C35.3599 16.6111 34.5 15.7512 34.5 14.6944C34.5 13.6377 35.3599 12.7778 36.4167 12.7778C37.4734 12.7778 38.3333 13.6377 38.3333 14.6944C38.3333 15.7512 37.4734 16.6111 36.4167 16.6111ZM36.4167 14.0556C36.064 14.0556 35.7778 14.3418 35.7778 14.6944C35.7778 15.0471 36.064 15.3333 36.4167 15.3333C36.7693 15.3333 37.0556 15.0471 37.0556 14.6944C37.0556 14.3418 36.7693 14.0556 36.4167 14.0556Z" fill="#A4AFC1"/>
<path d="M27.1528 32.2639H8.625V27.7917C8.625 25.6744 10.3411 23.9583 12.4583 23.9583H23.3194C25.4367 23.9583 27.1528 25.6744 27.1528 27.7917V32.2639Z" fill="#F3F3F1"/>
<path d="M17.8888 19.4861C20.5352 19.4861 22.6805 17.3408 22.6805 14.6944C22.6805 12.0481 20.5352 9.90278 17.8888 9.90278C15.2425 9.90278 13.0972 12.0481 13.0972 14.6944C13.0972 17.3408 15.2425 19.4861 17.8888 19.4861Z" fill="#F3F3F1"/>
<path d="M22.6679 14.4389C20.4957 14.7711 19.1668 12.4583 19.1668 12.4583C16.9179 14.5539 14.0684 14.5028 13.1101 14.4133C13.2507 11.8961 15.3334 9.90278 17.889 9.90278C20.4446 9.90278 22.5401 11.9089 22.6679 14.4389Z" fill="#2FDF84"/>
<path d="M30.0279 34.2841L25.4867 37.375L26.8794 31.8793L22.6807 28.2938L28.0818 27.9872L30.0279 22.6806L31.9739 27.9872L37.3751 28.2938L33.1763 31.8793L34.5691 37.375L30.0279 34.2841Z" fill="#2FDF84"/>
<path d="M28.9609 35.0111L29.7544 31.8793L25.5557 28.2938L30.9568 27.9872L31.4654 26.6008L30.0279 22.6806L28.0818 27.9872L22.6807 28.2938L26.8794 31.8793L25.4867 37.375L28.9609 35.0111Z" fill="#00B871"/>
<path d="M32.9028 34.284L31.4653 35.2628L34.5691 37.375L33.9698 35.0111L32.9028 34.284Z" fill="#00B871"/>
<path d="M15.3333 23.9583H12.4583C10.3411 23.9583 8.625 25.6744 8.625 27.7917V32.2639H11.5V27.7917C11.5 25.6744 13.2161 23.9583 15.3333 23.9583Z" fill="#D5DBE1"/>
<path d="M15.9722 14.6944C15.9722 12.5529 17.3867 10.7602 19.3263 10.1468C18.8702 10.0024 18.3936 9.90278 17.8888 9.90278C15.2426 9.90278 13.0972 12.0482 13.0972 14.6944C13.0972 17.3407 15.2426 19.4861 17.8888 19.4861C18.3936 19.4861 18.8702 19.3864 19.3263 19.2421C17.3867 18.6287 15.9722 16.836 15.9722 14.6944Z" fill="#D5DBE1"/>
<path d="M19.3239 10.1443C18.8691 9.99989 18.3924 9.90278 17.889 9.90278C15.3334 9.90278 13.2507 11.8961 13.1101 14.4133C13.6404 14.4632 14.7572 14.4862 16.0247 14.1539C16.2368 12.2526 17.5517 10.7052 19.3239 10.1443Z" fill="#00B871"/>
<path d="M22.2307 15.4304C20.7472 15.4304 19.6483 14.5437 19.0018 13.8268C16.5919 15.5365 13.8626 15.4458 13.0205 15.3678L13.1994 13.4601C13.9431 13.5304 16.5229 13.6134 18.5137 11.7581C18.7271 11.5588 19.0184 11.4681 19.3097 11.5115C19.5985 11.5549 19.8515 11.7274 19.9985 11.9817C20.0061 11.9945 21.0309 13.708 22.5246 13.4921L22.8147 15.3857C22.6128 15.4164 22.4186 15.4304 22.2307 15.4304Z" fill="black"/>
<path d="M17.8889 20.4444C14.7187 20.4444 12.1389 17.8646 12.1389 14.6944C12.1389 11.5243 14.7187 8.94445 17.8889 8.94445C21.0591 8.94445 23.6389 11.5243 23.6389 14.6944C23.6389 17.8646 21.0591 20.4444 17.8889 20.4444ZM17.8889 10.8611C15.7755 10.8611 14.0556 12.581 14.0556 14.6944C14.0556 16.8079 15.7755 18.5278 17.8889 18.5278C20.0024 18.5278 21.7222 16.8079 21.7222 14.6944C21.7222 12.581 20.0024 10.8611 17.8889 10.8611Z" fill="black"/>
<path d="M34.5691 38.3333C34.3813 38.3333 34.1934 38.2784 34.0299 38.1672L30.0279 35.4443L26.0259 38.1672C25.6975 38.3895 25.2643 38.3883 24.9372 38.1595C24.6114 37.9321 24.4593 37.5245 24.5577 37.1399L25.8036 32.2204L22.0571 29.0222C21.7594 28.7679 21.6469 28.3577 21.7709 27.9872C21.8961 27.6166 22.2347 27.3585 22.6244 27.3368L27.3969 27.0672L29.1271 22.3522C29.2663 21.9727 29.6267 21.7222 30.0279 21.7222C30.4291 21.7222 30.7894 21.9727 30.9274 22.3509L32.6576 27.0659L37.4301 27.3355C37.8211 27.3585 38.1584 27.6153 38.2836 27.9859C38.4088 28.3577 38.2951 28.7666 37.9974 29.0209L34.2509 32.2192L35.4968 37.1386C35.5952 37.5245 35.4431 37.9308 35.1173 38.1583C34.9524 38.2758 34.7608 38.3333 34.5691 38.3333ZM30.0279 33.327C30.2157 33.327 30.4036 33.3819 30.5671 33.4931L33.0192 35.1619L32.2474 32.1144C32.1579 31.7617 32.2768 31.3873 32.5541 31.1509L34.9371 29.1154L31.919 28.9442C31.5369 28.9225 31.2047 28.6759 31.0731 28.3168L30.0279 25.4635L28.9814 28.3168C28.8498 28.6759 28.5176 28.9225 28.1355 28.9442L25.1174 29.1154L27.5004 31.1509C27.7777 31.3886 27.8966 31.7617 27.8071 32.1144L27.0353 35.1619L29.4874 33.4931C29.6522 33.3819 29.8401 33.327 30.0279 33.327Z" fill="black"/>
<path d="M21.7223 33.2222H8.62508C8.09608 33.2222 7.66675 32.7929 7.66675 32.2639V27.7917C7.66675 25.1492 9.81597 23 12.4584 23H23.0001V24.9167H12.4584C10.8727 24.9167 9.58341 26.2059 9.58341 27.7917V31.3056H21.7223V33.2222Z" fill="black"/>
</svg>
