<svg width="55" height="50" viewBox="0 0 55 50" fill="none" xmlns="http://www.w3.org/2000/svg">
<path d="M36.9531 6H44.5414V13.5883H36.9531V6Z" fill="black"/>
<path d="M40.7471 6H48.3354V13.5883H40.7471V6Z" fill="#F7D046"/>
<path d="M6.59961 6H14.1879V13.5883H6.59961V6ZM6.59961 13.5883H14.1879V21.1766H6.59961V13.5883ZM6.59961 21.1766H14.1879V28.7649H6.59961V21.1766ZM6.59961 28.7649H14.1879V36.3533H6.59961V28.7649ZM6.59961 36.3533H14.1879V43.9416H6.59961V36.3533Z" fill="black"/>
<path d="M10.3936 6H17.9819V13.5883H10.3936V6Z" fill="#F7D046"/>
<path d="M40.7468 13.5883H48.3351V21.1766H40.7468V13.5883ZM10.3936 13.5883H17.9819V21.1766H10.3936V13.5883Z" fill="#F2A73B"/>
<path d="M29.3643 13.5883H36.9526V21.1766H29.3643V13.5883Z" fill="black"/>
<path d="M33.1591 13.5883H40.7474V21.1766H33.1591V13.5883ZM17.9824 13.5883H25.5707V21.1766H17.9824V13.5883Z" fill="#F2A73B"/>
<path d="M25.5707 21.1765H33.1591V28.7648H25.5707V21.1765ZM33.1591 21.1765H40.7474V28.7648H33.1591V21.1765ZM17.9824 21.1765H25.5707V28.7648H17.9824V21.1765Z" fill="#EE792F"/>
<path d="M21.7764 28.765H29.3647V36.3533H21.7764V28.765Z" fill="black"/>
<path d="M25.5703 28.765H33.1586V36.3533H25.5703V28.765Z" fill="#EB5829"/>
<path d="M40.7468 21.1765H48.3351V28.7648H40.7468V21.1765ZM10.3936 21.1765H17.9819V28.7648H10.3936V21.1765Z" fill="#EE792F"/>
<path d="M36.9531 28.765H44.5414V36.3533H36.9531V28.765Z" fill="black"/>
<path d="M40.7471 28.765H48.3354V36.3533H40.7471V28.765Z" fill="#EB5829"/>
<path d="M36.9531 36.3533H44.5414V43.9416H36.9531V36.3533Z" fill="black"/>
<path d="M10.3936 28.765H17.9819V36.3533H10.3936V28.765Z" fill="#EB5829"/>
<path d="M40.7468 36.3533H48.3351V43.9416H40.7468V36.3533ZM10.3936 36.3533H17.9819V43.9416H10.3936V36.3533Z" fill="#EA3326"/>
</svg>
