<svg width="43" height="50" viewBox="0 0 43 50" fill="none" xmlns="http://www.w3.org/2000/svg">
<g clip-path="url(#clip0_312_9713)">
<path d="M35.1079 44.5938V32.432H40.5101V49.9985H0V32.432H5.40218V44.5938H35.1079Z" fill="#BCBBBB"/>
<path d="M31.0584 35.1344L32.1383 31.0796L10.3971 26.6224L9.45215 31.0796L31.0584 35.1344ZM12.4245 20.5403L32.6783 29.9997L34.5682 25.9449L14.3144 16.488L12.4245 20.5403ZM18.0941 10.5408L35.1081 24.865L37.9455 21.4877L20.7965 7.16354L17.9591 10.5408H18.0941ZM29.0335 0.00146484L25.3862 2.70381L38.7554 20.6752L42.4002 17.9729L29.0335 0.00146484ZM9.45215 40.5391H31.0584V36.4868H9.45215V40.5391Z" fill="#F48024"/>
</g>
<defs>
<clipPath id="clip0_312_9713">
<rect width="42.4" height="50" fill="white"/>
</clipPath>
</defs>
</svg>
