<svg width="44" height="40" viewBox="0 0 44 40" fill="none" xmlns="http://www.w3.org/2000/svg">
<path d="M31.5679 9.41215C31.5679 14.6081 27.2846 18.8244 22.0016 18.8244C16.7154 18.8244 12.4319 14.6114 12.4319 9.41215C12.4319 4.21293 16.7154 0 22.0016 0C27.2846 0 31.5679 4.21293 31.5679 9.41215ZM9.56968 21.1756C4.28677 21.1756 0 25.3886 0 30.5846C0 35.7806 4.28344 39.9967 9.56968 39.9967C14.8559 39.9967 19.1393 35.7837 19.1393 30.5846C19.1393 25.3886 14.8559 21.1756 9.56968 21.1756ZM34.4302 21.1756C29.144 21.1756 24.8606 25.3886 24.8606 30.5879C24.8606 35.787 29.144 40 34.4302 40C39.7132 40 44 35.787 44 30.5879C44 25.3886 39.7165 21.1756 34.4302 21.1756Z" fill="#F06A6A"/>
</svg>
